<svg width="101" height="100" viewBox="0 0 101 100" fill="none" xmlns="http://www.w3.org/2000/svg">
<g opacity="0.5">
<rect width="100" height="100" transform="translate(0.81604)" fill="white" fill-opacity="0.01"/>
<path fill-rule="evenodd" clip-rule="evenodd" d="M53.6577 50H21.691C19.4757 49.9956 17.3492 50.8708 15.7789 52.4334C14.2085 53.9959 13.3227 56.118 13.316 58.3333V76.8583C13.316 85.8667 33.466 89.1542 48.1827 86.725C44.4897 82.2534 42.4737 76.6328 42.4827 70.8333C42.4799 66.7079 43.499 62.6461 45.449 59.0107C47.3991 55.3752 50.2193 52.2795 53.6577 50Z" fill="#4CC1FF"/>
<path d="M38.316 45.8333C47.5208 45.8333 54.9827 38.3714 54.9827 29.1667C54.9827 19.9619 47.5208 12.5 38.316 12.5C29.1113 12.5 21.6494 19.9619 21.6494 29.1667C21.6494 38.3714 29.1113 45.8333 38.316 45.8333Z" fill="#4CC1FF"/>
<path fill-rule="evenodd" clip-rule="evenodd" d="M88.316 70.8333C88.316 82.3393 78.9886 91.6667 67.4827 91.6667C55.9768 91.6667 46.6494 82.3393 46.6494 70.8333C46.6494 59.3274 55.9768 50 67.4827 50C78.9886 50 88.316 59.3274 88.316 70.8333ZM67.3744 80.5459C65.8785 82.0459 63.4577 82.0459 61.9577 80.5459L56.0994 74.6918C55.4286 73.9641 55.0653 73.0052 55.0854 72.0157C55.1055 71.0262 55.5076 70.0829 56.2074 69.3831C56.9072 68.6833 57.8505 68.2813 58.84 68.2611C59.8294 68.241 60.7883 68.6043 61.516 69.2751L64.6619 72.4168L73.4452 63.6251C74.1736 62.9635 75.1286 62.6074 76.1123 62.6305C77.0961 62.6536 78.0333 63.0541 78.7299 63.7491C79.4265 64.4441 79.8291 65.3803 79.8545 66.364C79.8798 67.3477 79.5259 68.3035 78.866 69.0334L67.3744 80.5459Z" fill="#4CC1FF"/>
</g>
</svg>
