<svg width="100" height="100" viewBox="0 0 100 100" fill="none" xmlns="http://www.w3.org/2000/svg">
<g opacity="0.5">
<rect width="100" height="100" fill="white" fill-opacity="0.01"/>
<path fill-rule="evenodd" clip-rule="evenodd" d="M79.125 37.4583L79.1667 41.6875V79.1667C79.1667 81.3768 78.2887 83.4964 76.7259 85.0592C75.1631 86.622 73.0435 87.5 70.8334 87.5H29.1667C26.9566 87.5 24.837 86.622 23.2742 85.0592C21.7113 83.4964 20.8334 81.3768 20.8334 79.1667V20.8333C20.8334 18.6232 21.7113 16.5036 23.2742 14.9408C24.837 13.378 26.9566 12.5 29.1667 12.5H51.1459C53.1 12.5 54.9875 13.1833 56.4875 14.4333L77.6292 32.0833C78.575 32.875 79.125 34.0458 79.125 35.2833V37.4542V37.4583ZM50.0834 20.8333L50 34.1333C49.9995 34.6768 50.1063 35.215 50.3144 35.717C50.5225 36.2191 50.8278 36.6751 51.2126 37.0588C51.5975 37.4425 52.0544 37.7463 52.5571 37.9529C53.0597 38.1595 53.5983 38.2647 54.1417 38.2625H70.8084L50.0834 20.8333Z" fill="#4CC1FF"/>
</g>
</svg>
