<svg width="32" height="32" viewBox="0 0 32 32" fill="none" xmlns="http://www.w3.org/2000/svg">
<rect width="32" height="32" fill="white" fill-opacity="0.01"/>
<path fill-rule="evenodd" clip-rule="evenodd" d="M6.66669 18.6667C6.66669 17.1933 7.86935 16 9.34535 16H19.988C21.468 16 22.6667 17.192 22.6667 18.6747V24.5947C22.6667 29.1347 6.66669 29.1347 6.66669 24.5947V18.6667Z" fill="#263238"/>
<path d="M14.6667 14.6667C17.6122 14.6667 20 12.2789 20 9.33333C20 6.38781 17.6122 4 14.6667 4C11.7212 4 9.33335 6.38781 9.33335 9.33333C9.33335 12.2789 11.7212 14.6667 14.6667 14.6667Z" fill="#263238"/>
<path d="M23.0574 12.3907C22.93 12.5137 22.8284 12.6608 22.7586 12.8235C22.6887 12.9861 22.6519 13.1611 22.6504 13.3381C22.6488 13.5152 22.6826 13.6907 22.7496 13.8546C22.8166 14.0185 22.9156 14.1673 23.0408 14.2925C23.166 14.4177 23.3149 14.5167 23.4788 14.5838C23.6426 14.6508 23.8182 14.6845 23.9952 14.683C24.1723 14.6815 24.3472 14.6447 24.5099 14.5748C24.6726 14.5049 24.8197 14.4033 24.9427 14.276L27.604 11.6147C27.7296 11.4908 27.8292 11.3432 27.8973 11.1804C27.9653 11.0177 28.0003 10.8431 28.0003 10.6667C28.0003 10.4903 27.9653 10.3157 27.8973 10.1529C27.8292 9.99018 27.7296 9.84257 27.604 9.71867L24.9427 7.05733C24.6912 6.81446 24.3544 6.68006 24.0048 6.6831C23.6552 6.68614 23.3208 6.82636 23.0736 7.07358C22.8264 7.32079 22.6862 7.6552 22.6831 8.0048C22.6801 8.35439 22.8145 8.6912 23.0574 8.94267L24.7814 10.6667L23.0574 12.3907Z" fill="#263238"/>
</svg>
