<svg width="97" height="9" viewBox="0 0 97 9" fill="none" xmlns="http://www.w3.org/2000/svg">
<path d="M3.55948 8.0813L93.5289 8.0813C95.013 8.0813 96.216 6.88119 96.216 5.40077V3.18291C96.216 1.7025 95.013 0.502386 93.5289 0.502386L3.55948 0.502386C2.07545 0.502386 0.872398 1.7025 0.872398 3.18291V5.40077C0.872398 6.88119 2.07545 8.0813 3.55948 8.0813Z" fill="#263238"/>
<path opacity="0.6" d="M3.55948 8.0813L93.5289 8.0813C95.013 8.0813 96.216 6.88119 96.216 5.40077V3.18291C96.216 1.7025 95.013 0.502386 93.5289 0.502386L3.55948 0.502386C2.07545 0.502386 0.872398 1.7025 0.872398 3.18291V5.40077C0.872398 6.88119 2.07545 8.0813 3.55948 8.0813Z" fill="white"/>
</svg>
