<svg width="244" height="378" viewBox="0 0 244 378" fill="none" xmlns="http://www.w3.org/2000/svg">
<path d="M205.554 371.284V193.24H193.359V371.284L185.612 373.665V377.339H213.315V373.665L205.554 371.284Z" fill="#2E353A"/>
<path d="M50.3576 193.24H38.1635V371.284L30.4023 373.665V377.339H58.1188V373.665L50.3576 371.284V193.24Z" fill="#2E353A"/>
<g opacity="0.2">
<path d="M205.554 207.609H193.359V371.284L185.612 373.665V377.339H213.315V373.665L205.554 371.284V207.609Z" fill="white"/>
<path d="M50.3576 207.609H38.1635V371.284L30.4023 373.665V377.339H58.1188V373.665L50.3576 371.284V207.609Z" fill="white"/>
</g>
<path d="M243.255 197.662V0.813721L0.476151 0.813721V197.662L243.255 197.662Z" fill="#2E353A"/>
<path opacity="0.2" d="M243.255 197.662V0.813721L0.476151 0.813721V197.662L243.255 197.662Z" fill="white"/>
<path d="M237.853 6.28369H5.87756V192.097H237.853V6.28369Z" fill="#407BFF"/>
<path opacity="0.3" d="M237.853 6.28369H5.87756V192.097H237.853V6.28369Z" fill="white"/>
<path opacity="0.6" d="M237.853 6.28369H5.87756V192.097H237.853V6.28369Z" fill="white"/>
<g opacity="0.4">
<path d="M119.13 14.8149C121.927 39.0349 121.026 55.3494 119.13 79.6374C118.721 84.8215 121.013 97.8296 120.604 103.014C120.085 109.64 120.099 116.294 120.126 122.948C120.181 143.358 120.249 163.768 120.304 184.178" stroke="black" stroke-linecap="round" stroke-linejoin="round"/>
<path d="M20.4587 39.8921C20.0768 44.3279 19.6949 48.7637 19.313 53.1995" stroke="black" stroke-linecap="round" stroke-linejoin="round"/>
<path d="M23.4732 37.5791C23.8005 37.6743 24.046 37.9737 24.237 38.2594C26.624 41.7972 26.5831 46.3827 26.4467 50.6552C26.4194 51.4852 26.3921 52.3288 26.1603 53.1316C25.4919 55.4039 23.3368 56.8598 21.3453 58.1252" stroke="black" stroke-linecap="round" stroke-linejoin="round"/>
<path d="M34.6034 48.0154C36.4039 47.1581 38.2043 46.3009 39.9912 45.4437C39.6229 47.2398 42.1327 48.5052 43.8104 47.7568C45.4881 47.0085 46.3747 45.1988 47.1249 43.5251C47.4113 44.5184 47.6841 45.5117 47.9706 46.505C49.8256 47.0221 51.8716 46.886 53.6312 46.124C53.6994 47.0765 54.8724 47.58 55.8272 47.4303C56.782 47.2806 57.6141 46.7363 58.5416 46.505C60.3966 46.0424 62.2789 46.8452 64.134 47.3078C65.989 47.7704 68.3078 47.6888 69.3444 46.0968C70.1492 48.2467 73 48.6005 75.3051 48.5868C83.8165 48.546 92.3279 48.5188 100.853 48.478" stroke="black" stroke-linecap="round" stroke-linejoin="round"/>
<path d="M33.5394 74.0315C34.6033 75.0928 36.9631 73.5825 37.7133 74.8887C37.9997 75.3785 37.8497 76.1133 38.2862 76.4671C38.7772 76.8617 39.5138 76.4535 39.9093 75.9636C40.3049 75.4738 40.6595 74.8479 41.2733 74.7254C42.1054 74.5621 42.7601 75.3922 43.5512 75.7051C44.8743 76.2358 46.2792 75.2561 47.6023 74.7254C51.1623 73.3239 55.0906 75.3241 58.9098 75.4738C61.1468 75.5554 63.3565 75.0112 65.5252 74.4533" stroke="black" stroke-linecap="round" stroke-linejoin="round"/>
<path d="M76.4509 71.1332C76.9965 69.9494 77.7331 68.7793 78.8788 68.1533C80.843 67.092 83.5574 68.1534 84.5258 70.1672C85.4942 72.1809 84.8259 74.739 83.2164 76.2902C82.0297 77.4331 80.2019 78.6305 80.7339 80.1817" stroke="black" stroke-linecap="round" stroke-linejoin="round"/>
<path d="M81.1158 84.7808C80.7203 85.2706 80.4475 85.8557 80.3247 86.468C80.8157 86.7129 81.4432 86.6585 81.866 86.3183" stroke="black" stroke-linecap="round" stroke-linejoin="round"/>
<path d="M18.972 112.606C19.7222 112.239 20.6088 112.157 21.4135 112.375C21.7 114.321 21.9455 116.498 20.827 118.117C19.9541 119.369 18.3445 120.144 17.949 121.614C19.2311 121.764 20.5269 121.804 21.8227 121.709" stroke="black" stroke-linecap="round" stroke-linejoin="round"/>
<path d="M25.0008 110.947C27.2241 112.334 28.3972 115.097 28.2199 117.709C28.0425 120.322 26.6785 122.771 24.8235 124.621" stroke="black" stroke-linecap="round" stroke-linejoin="round"/>
<path d="M34.7671 120.117C35.4082 119.383 36.0629 118.634 36.704 117.899C37.8224 119.791 41.137 119.641 42.0918 117.655C42.0918 119.26 44.1787 120.158 45.6927 119.641C47.2068 119.124 48.257 117.777 49.2937 116.552C50.3303 115.328 51.6261 114.103 53.222 114.035C53.3175 115.75 53.413 117.478 53.5085 119.192C54.1632 117.981 55.0498 116.893 56.1137 115.995C56.6047 116.933 56.9321 117.94 57.0958 118.974L59.8647 115.178C60.6012 116.28 61.0923 117.559 61.2969 118.866C62.429 118.512 63.4793 117.927 64.3795 117.165C64.7751 117.777 65.1706 118.403 65.5526 119.029C64.8978 117.967 66.4392 116.634 67.6122 117.042C68.7853 117.45 69.3581 118.798 69.5218 120.036C74.1458 120.036 78.7561 118.362 82.2752 115.369C82.3707 117.042 82.4525 118.702 82.548 120.376C89.2725 120.566 96.0243 120.131 102.667 119.083" stroke="black" stroke-linecap="round" stroke-linejoin="round"/>
<path d="M34.7262 140.323C35.0945 141.045 35.4628 141.752 35.831 142.473C37.727 141.766 39.5002 140.691 41.0142 139.344C41.4371 140.228 41.9418 141.085 42.501 141.902C42.6647 141.426 43.2921 141.317 43.7832 141.412C44.2742 141.507 44.7516 141.752 45.2563 141.698C45.6928 141.643 46.061 141.385 46.4293 141.153C47.616 140.405 48.9663 139.929 50.3576 139.766C50.7941 139.711 51.2715 139.698 51.6262 139.956C51.9126 140.16 52.0626 140.5 52.2672 140.8C53.2493 142.269 55.6909 142.419 56.8503 141.085" stroke="black" stroke-linecap="round" stroke-linejoin="round"/>
<path d="M66.5756 137.656C65.8118 136.405 66.8757 134.785 68.1442 134.037C69.631 133.166 71.5542 132.894 73.0955 133.656C74.6369 134.418 75.5917 136.377 74.9642 137.983C74.3095 139.616 72.3999 140.378 71.4315 141.847C70.7631 142.868 70.6131 144.229 71.0495 145.371" stroke="black" stroke-linecap="round" stroke-linejoin="round"/>
<path d="M72.0316 149.494C71.5269 149.78 71.0223 150.12 70.7495 150.637C70.4903 151.154 70.5858 151.889 71.0905 152.175C71.5951 152.46 72.3863 151.916 72.1544 151.372" stroke="black" stroke-linecap="round" stroke-linejoin="round"/>
<path d="M133.084 43.0081C133.807 42.4366 135.035 42.8312 135.403 43.6884C135.771 44.5457 135.348 45.607 134.585 46.124C134.148 46.4098 133.616 46.5595 133.166 46.8316C132.716 47.1173 132.334 47.6208 132.47 48.1378C132.675 48.9678 133.93 49.0495 134.325 49.8115C134.789 50.7231 133.725 51.6348 132.825 52.111C132.102 52.492 131.393 52.8594 130.67 53.2404C130.302 53.4309 129.892 53.9071 130.206 54.1656" stroke="black" stroke-linecap="round" stroke-linejoin="round"/>
<path d="M136.931 39.4568C138.786 42.5047 140.695 45.8656 140.232 49.3897C139.809 52.492 137.626 55.0365 135.526 57.3768C134.912 58.0708 134.175 58.8191 133.248 58.8191" stroke="black" stroke-linecap="round" stroke-linejoin="round"/>
<path d="M150.202 49.0494C150.121 48.0153 151.075 46.9676 152.112 47.0764C153.149 47.1853 153.831 48.6004 153.162 49.4032C153.585 48.8589 154.008 48.3282 154.444 47.784C154.976 48.7364 155.508 49.6889 156.04 50.6278C156.586 49.4848 157.786 48.1377 158.823 48.8453C159.341 49.1855 159.546 49.9474 160.146 50.1107C160.719 50.2604 161.237 49.7569 161.619 49.3079C163.733 46.8179 165.848 44.3142 167.948 41.8242C167.743 44.7497 168.153 47.7159 169.121 50.4781C171.644 49.444 173.963 47.8928 175.887 45.9607C176.787 46.3961 176.064 48.0425 176.855 48.6684C177.878 49.4712 179.133 47.2941 180.374 47.6751C180.838 47.8112 181.111 48.2738 181.506 48.5459C182.065 48.9269 182.802 48.8997 183.484 48.8589C185.803 48.7228 188.135 48.5868 190.454 48.4643" stroke="black" stroke-linecap="round" stroke-linejoin="round"/>
<path d="M196.947 48.4506C198.065 48.2738 199.17 48.1105 200.288 47.9336C200.534 47.8928 200.82 47.8655 200.998 48.0424C201.161 48.2057 201.148 48.4642 201.216 48.682C201.421 49.3895 202.348 49.58 203.071 49.4575C203.794 49.3351 204.531 49.0357 205.24 49.2398" stroke="black" stroke-linecap="round" stroke-linejoin="round"/>
<path d="M215.061 44.7226C214.706 43.9198 215.17 42.9673 215.797 42.3414C216.984 41.1304 218.853 40.5317 220.448 41.0896C222.058 41.6339 223.204 43.4299 222.795 45.0764C222.358 46.8316 220.53 47.8385 219.521 49.3489C218.689 50.5735 218.43 52.1519 218.825 53.567" stroke="black" stroke-linecap="round" stroke-linejoin="round"/>
<path d="M218.648 57.717C218.552 58.098 218.293 58.4246 218.17 58.792C218.048 59.1594 218.116 59.6628 218.471 59.8125C218.825 59.9622 219.262 59.3771 218.921 59.1866" stroke="black" stroke-linecap="round" stroke-linejoin="round"/>
<path d="M134.735 85.9917C133.507 88.7811 131.707 91.3255 129.483 93.421C132.02 93.4482 134.544 92.9856 136.917 92.1011" stroke="black" stroke-linecap="round" stroke-linejoin="round"/>
<path d="M135.676 88.3594V96.1696" stroke="black" stroke-linecap="round" stroke-linejoin="round"/>
<path d="M137.572 83.7329C137.708 85.3113 138.581 86.7128 139.168 88.1823C140.736 92.0058 140.368 96.5641 138.213 100.102C137.94 100.551 137.531 101.041 137.013 100.986" stroke="black" stroke-linecap="round" stroke-linejoin="round"/>
<path d="M146.069 92.9856C149.125 91.6657 151.921 89.7336 154.226 87.3388C153.735 89.1349 156.586 90.6452 157.814 89.2301C158.141 90.1282 158.482 91.0262 158.809 91.9379C160.705 91.3392 162.547 90.5908 164.306 89.6792C164.443 90.3323 164.593 90.9718 164.729 91.6249C166.448 90.0601 168.153 88.4818 169.871 86.917C170.581 87.815 171.058 88.9036 171.222 90.0465C172.095 90.2642 173.09 90.0057 173.731 89.3662C173.95 89.8696 174.55 90.0737 175.095 90.1962C178.055 90.8221 181.192 90.5908 184.03 89.5295C185.025 89.1485 186.089 88.6723 187.126 88.9308C187.767 89.0941 188.299 89.5295 188.94 89.7336C190.345 90.169 191.804 89.339 193.278 89.2709C194.751 89.2029 196.428 90.9174 195.364 91.9379C196.578 92.659 198.174 90.5364 199.334 91.3392C199.716 91.5977 199.893 92.1284 200.329 92.2508C200.779 92.3869 201.202 92.0331 201.584 91.761C205.663 88.7267 212.032 92.5366 216.397 89.9241" stroke="black" stroke-linecap="round" stroke-linejoin="round"/>
<path d="M148.129 112.021C148.347 112.334 148.566 112.647 148.797 112.96C150.298 112.008 151.621 110.769 152.658 109.327C153.108 109.599 153.449 110.035 153.599 110.538C154.663 110.171 155.713 109.79 156.777 109.422C156.886 110.157 157.404 111.123 158.073 110.824C158.4 110.688 158.55 110.28 158.877 110.157C159.314 109.98 159.764 110.375 159.996 110.783C160.228 111.191 160.405 111.667 160.828 111.885C161.251 112.103 161.769 111.967 162.206 111.776C164.156 110.946 165.957 109.3 168.057 109.626" stroke="black" stroke-linecap="round" stroke-linejoin="round"/>
<path d="M178.587 105.857C178.383 105.354 178.669 104.742 179.133 104.456C179.597 104.157 180.17 104.116 180.715 104.157C182.338 104.265 184.084 105.272 184.262 106.892C184.412 108.13 183.58 109.286 182.611 110.076C181.643 110.865 180.483 111.409 179.569 112.266C178.655 113.11 177.987 114.416 178.383 115.6" stroke="black" stroke-linecap="round" stroke-linejoin="round"/>
<path d="M179.365 122.866C179.092 122.771 178.819 122.689 178.56 122.594" stroke="black" stroke-linecap="round" stroke-linejoin="round"/>
<path d="M133.78 142.187C132.402 142.187 131.038 142.187 129.661 142.174C129.401 144.269 129.36 146.392 129.524 148.501C130.152 147.984 130.82 147.467 131.625 147.317C132.429 147.181 133.384 147.576 133.562 148.365C133.739 149.154 133.125 149.875 132.511 150.392C131.652 151.127 130.574 151.78 129.456 151.59" stroke="black" stroke-linecap="round" stroke-linejoin="round"/>
<path d="M135.703 140.255C137.231 141.915 137.667 144.283 137.831 146.528C137.981 148.501 137.967 150.528 137.381 152.433C136.794 154.325 135.553 156.094 133.766 156.964" stroke="black" stroke-linecap="round" stroke-linejoin="round"/>
<path d="M145.51 146.501C147.433 145.63 149.343 144.773 151.266 143.902C150.734 144.922 151.335 146.337 152.426 146.691C153.517 147.045 154.826 146.283 155.072 145.167C155.645 145.956 155.945 146.95 155.877 147.929C158.045 147.045 160.078 145.848 161.892 144.364C162.301 145.739 162.71 147.113 163.119 148.487C165.166 148.433 167.198 147.657 168.753 146.324C169.121 146.855 169.476 147.372 169.844 147.902C171.222 147.562 172.586 147.222 173.963 146.895C175.573 146.501 178.001 146.678 178.001 148.338C180.838 146.215 184.821 147.004 188.244 147.889C189.008 148.079 189.963 148.542 189.84 149.317C191.368 148.501 192.691 147.344 194.232 146.569C197.069 145.154 200.602 145.194 203.412 146.691" stroke="black" stroke-linecap="round" stroke-linejoin="round"/>
<path d="M215.538 144.337C215.538 143.453 215.565 142.568 215.565 141.67C217.475 141.317 219.562 142.419 220.353 144.188C220.503 144.514 220.612 144.868 220.626 145.235C220.694 146.446 219.821 147.508 218.853 148.229C217.884 148.95 216.752 149.481 215.906 150.338C215.061 151.209 214.556 152.583 215.17 153.631" stroke="black" stroke-linecap="round" stroke-linejoin="round"/>
<path d="M215.538 159.686C215.265 159.237 214.992 158.788 214.733 158.339" stroke="black" stroke-linecap="round" stroke-linejoin="round"/>
</g>
<path opacity="0.2" d="M222.031 97.3805C220.026 99.8842 218.362 102.674 216.138 105.15C215.674 105.667 215.388 106.211 215.224 106.756C213.601 106.987 211.828 106.769 210.028 105.966C203.767 103.163 198.052 98.4282 193.1 93.7475C192.05 92.7542 190.959 91.8154 189.868 90.8629C194.764 96.3056 199.647 101.775 204.612 107.164C206.249 108.96 206.89 110.946 206.822 112.865C204.435 115.369 202.089 117.981 199.279 119.981C198.775 120.335 198.352 120.784 198.024 121.26C196.306 121.151 194.573 120.376 193.032 118.716C182.434 107.232 171.945 95.9382 160.228 85.6379C161.169 86.9578 162.124 88.2504 163.024 89.5975C169.162 98.7004 175.75 107.45 182.611 116.008C187.453 122.05 195.815 129.465 197.356 137.48C197.029 137.874 196.715 138.255 196.388 138.65C195.965 139.153 195.515 139.643 195.051 140.133C194.628 140.215 194.205 140.351 193.837 140.609C191.777 141.956 190.468 144.691 192.118 146.936C192.473 147.426 192.923 147.848 193.4 148.174C195.896 151.304 198.338 154.474 200.67 157.74C200.793 157.917 200.902 158.094 201.011 158.271C199.334 163.06 195.351 166.53 191.463 169.796C190.154 169.483 188.899 168.802 187.808 167.632C183.129 162.57 177.783 158.121 173.459 152.76C168.821 147.018 164.988 140.677 160.583 134.758C160.514 134.663 160.432 134.568 160.364 134.472C155.045 128.554 149.698 122.662 144.515 116.62C140 112.062 135.403 107.626 130.997 103.177C123.973 96.0743 116.839 88.9444 109.446 82.141C111.274 84.8487 113.129 87.5565 115.011 90.237C123.345 102.075 132.593 113.246 141.514 124.635C145.906 130.254 149.93 136.132 154.199 141.834C157.554 146.324 162.588 150.433 165.234 155.359C165.82 156.447 166.148 157.522 166.27 158.543C165.97 158.801 165.698 159.073 165.452 159.4C163.433 162.053 160.31 164.053 157.377 165.55C156.6 165.958 156.081 166.489 155.754 167.088C154.595 166.761 153.449 166.163 152.371 165.251C148.225 161.7 144.269 157.808 140.559 153.699C141.746 155.74 142.769 157.835 143.423 160.067C145.524 167.21 137.531 172.462 131.407 169.292C131.229 169.197 131.052 169.102 130.875 169.006C129.661 173.02 124.914 175.932 120.631 174.912C118.258 178.055 114.111 179.715 110.387 176.885C95.0423 165.183 80.4202 152.243 65.9345 139.48C64.6115 138.323 63.3157 137.153 62.0062 135.983C64.5023 139.874 67.1349 143.616 70.1084 147.385C73.4366 151.59 78.0741 155.985 79.8337 161.21C79.67 161.332 79.4927 161.441 79.329 161.591C75.578 165.101 72.4272 169.006 69.9993 173.524C69.972 173.565 69.972 173.605 69.9447 173.646C63.4793 172.204 56.7139 168.04 51.2443 164.897C44.0969 160.801 37.6452 155.862 31.3844 150.583C31.3844 149.957 31.2889 149.331 31.0298 148.596C30.8934 148.229 30.7024 147.889 30.5115 147.549C30.5251 147.168 30.5388 146.787 30.5524 146.392C31.098 145.263 31.5208 144.201 31.8345 143.113C32.8303 142.609 33.7169 141.902 34.2897 140.963C34.8899 139.983 35.1354 138.677 35.1081 137.561C35.0672 137.235 35.0263 136.922 34.9717 136.595C35.6128 136.064 36.0084 135.411 36.1994 134.731C37.5634 134.976 38.9273 135.575 40.1959 136.677C41.9145 138.16 43.6468 139.589 45.3927 140.99C43.1557 137.262 41.0143 133.466 38.8591 129.833C35.0536 123.451 31.0434 117.246 26.7059 111.219C23.3914 106.62 18.9311 102.619 18.3991 97.5302C21.4954 94.9313 23.6369 91.6385 26.3104 88.6042C26.4468 88.4409 26.5695 88.264 26.6923 88.0872C29.2293 88.128 31.8618 89.2845 34.4671 90.9445C33.7578 90.1009 33.0621 89.2437 32.4211 88.3593C26.5559 80.3449 18.2764 73.8953 12.9704 65.5544C12.2884 64.4795 11.8792 63.4318 11.7019 62.4385C12.3157 61.6629 12.9295 60.8873 13.5433 60.1253C14.5663 58.8327 15.0028 57.1999 14.4299 55.7576C14.4708 55.7168 14.5118 55.6895 14.5663 55.6487C14.3481 55.3902 14.1298 55.1317 13.9116 54.8731C13.9116 54.8731 13.898 54.8459 13.8843 54.8323C12.9841 53.7302 12.3703 52.4239 12.0293 51.0633C14.6345 47.2534 17.4716 43.6612 21.0317 40.9535C25.8602 41.3072 30.1295 44.4232 34.3579 46.8724C37.2496 48.546 40.1413 50.2469 42.9921 52.0021C41.5735 50.1516 40.2914 48.2195 39.3775 46.0696C39.0092 45.2124 38.7909 44.3551 38.6818 43.4979C38.9137 43.3619 39.1456 43.2122 39.3638 43.0353C42.7875 40.3956 46.3611 37.6062 49.2392 34.2998C49.6757 34.4631 50.1258 34.6536 50.5759 34.8849C53.3312 36.3544 56.0455 38.0824 58.6917 39.9738C58.2689 38.722 58.0506 37.4837 58.0506 36.2455C59.3055 36.4496 60.6286 36.0414 61.6652 35.157C63.9977 33.1704 65.88 30.6124 68.1851 28.585C68.9217 28.7755 69.6173 29.0612 70.2721 29.5102C76.3691 33.6331 81.5251 39.0485 87.3493 43.5387C88.8088 44.6681 90.2819 45.7838 91.7551 46.886C91.3459 45.7294 91.2231 44.5048 91.3322 43.3074C91.8778 43.1578 92.4098 42.8992 92.9281 42.491C95.7243 40.2459 98.4523 37.9328 101.221 35.6468C101.876 35.8918 102.544 36.2319 103.213 36.7082C105.927 38.6131 108.505 40.8446 111.015 43.2122C111.083 42.7223 111.192 42.2461 111.328 41.7835C112.447 42.2189 113.729 42.2325 114.684 41.4977C116.907 39.7969 119.171 38.1913 121.136 36.2591C124.355 37.1164 126.605 39.4567 129.211 41.4161C129.661 41.7563 130.111 42.0964 130.561 42.4366C130.711 42.11 130.929 41.8107 131.134 41.5113C131.966 41.6066 132.798 41.4433 133.466 40.9535C134.585 40.1235 135.621 39.2526 136.617 38.2865C136.753 38.1505 136.903 38.028 137.04 37.892C138.172 37.7015 139.318 37.6879 140.368 37.9736C146.342 39.5656 151.676 43.6748 156.804 47.2806C155.795 46.1104 154.785 44.9402 153.817 43.7428C150.08 39.1574 144.583 34.1773 142.687 28.3809C142.919 28.1495 143.151 27.891 143.342 27.5645C144.064 26.3943 144.856 25.2105 145.701 24.0675C148.497 22.3667 151.198 20.2985 153.231 17.8765C153.64 17.9853 154.035 18.135 154.445 18.2983C160.46 20.8427 164.961 25.7139 169.462 30.2858C172.681 33.5514 175.777 36.9123 178.778 40.3548C178.956 39.9058 179.187 39.4839 179.46 39.0757C180.892 39.6064 182.516 39.1982 183.771 38.1777C185.08 37.1164 186.471 36.1367 187.849 35.1434C190.14 35.2931 192.432 36.3136 194.137 38.5315C200.848 47.2398 219.698 70.9971 213.41 84.4269C216.534 87.6517 219.439 91.0534 221.212 94.8361C221.621 95.7069 221.881 96.5777 222.017 97.4077L222.031 97.3805Z" fill="white"/>
<path opacity="0.2" d="M26.3513 90.4683C28.2336 88.1143 29.7886 85.5019 31.8755 83.1751C32.312 82.6989 32.5711 82.1818 32.7348 81.6648C34.2489 81.4471 35.913 81.6511 37.6043 82.3995C43.4832 85.0256 48.83 89.4614 53.4813 93.8564C54.4634 94.7952 55.5 95.6797 56.5094 96.5641C51.9127 91.4616 47.3296 86.3319 42.692 81.2702C41.1507 79.5965 40.5505 77.7188 40.6187 75.9227C42.8557 73.5824 45.0518 71.1331 47.6843 69.2554C48.1617 68.9152 48.5436 68.507 48.8573 68.0444C50.4668 68.1533 52.1036 68.8744 53.5495 70.4392C63.4794 81.2157 73.3275 91.7881 84.3077 101.449C83.4211 100.211 82.5345 98.9997 81.6888 97.7343C75.9327 89.2029 69.7538 80.998 63.3157 72.9701C58.7736 67.3097 50.9442 60.343 49.4848 52.8457C49.7848 52.4783 50.0849 52.111 50.3986 51.7436C50.7942 51.2673 51.217 50.8047 51.6535 50.3557C52.0491 50.274 52.4446 50.1516 52.7993 49.9067C54.7225 48.6412 55.9501 46.0832 54.4088 43.9741C54.0678 43.5115 53.6586 43.1169 53.1948 42.8176C50.8624 39.8785 48.5709 36.9122 46.3748 33.8507C46.2521 33.6875 46.1566 33.5242 46.0611 33.3473C47.6434 28.8571 51.3671 25.6051 55.009 22.5299C56.2366 22.8157 57.4096 23.4688 58.4326 24.5574C62.811 29.3061 67.8306 33.4697 71.8816 38.4906C76.2328 43.8789 79.8201 49.825 83.953 55.363C84.0212 55.4582 84.0894 55.5398 84.1576 55.6215C89.1499 61.173 94.1694 66.6973 99.0116 72.3577C103.24 76.6303 107.564 80.7939 111.683 84.9712C118.271 91.6249 124.955 98.3194 131.898 104.701C130.179 102.156 128.447 99.6256 126.687 97.1084C118.871 86.0053 110.196 75.5281 101.835 64.8469C97.7158 59.5811 93.9375 54.0703 89.941 48.7229C86.7902 44.5184 82.0707 40.6677 79.5882 36.0414C79.0426 35.0209 78.7289 34.014 78.6198 33.0479C78.8926 32.803 79.1654 32.5445 79.3836 32.2451C81.2796 29.7551 84.1986 27.891 86.9538 26.4759C87.6904 26.0949 88.1678 25.5915 88.4815 25.0336C89.5727 25.3465 90.6503 25.9044 91.646 26.7616C95.5334 30.0817 99.2435 33.7419 102.722 37.5926C101.617 35.6876 100.648 33.7147 100.035 31.6192C98.0704 24.9247 105.559 19.9991 111.315 22.979C111.479 23.0606 111.642 23.1695 111.806 23.2511C112.952 19.4956 117.398 16.7471 121.408 17.7132C123.632 14.7605 127.533 13.2093 131.011 15.8627C145.401 26.8297 159.109 38.9805 172.695 50.9272C173.936 52.0157 175.15 53.1178 176.378 54.2064C174.032 50.5598 171.576 47.0493 168.78 43.5251C165.657 39.5928 161.319 35.4699 159.669 30.5715C159.832 30.4627 159.982 30.3538 160.146 30.2041C163.652 26.9113 166.611 23.2511 168.903 19.0058C168.917 18.965 168.93 18.9378 168.944 18.8969C175 20.244 181.343 24.1627 186.471 27.1018C193.169 30.9525 199.225 35.5788 205.104 40.518C205.104 41.1031 205.185 41.6882 205.445 42.3822C205.567 42.7223 205.758 43.0353 205.936 43.3618C205.922 43.7156 205.908 44.083 205.895 44.4368C205.376 45.4981 204.981 46.4914 204.694 47.5119C203.767 47.9745 202.935 48.6412 202.389 49.5257C201.83 50.4373 201.598 51.6619 201.625 52.7233C201.666 53.0226 201.707 53.322 201.748 53.6213C201.148 54.1248 200.78 54.7234 200.589 55.363C199.307 55.1316 198.024 54.5602 196.838 53.5397C195.228 52.1518 193.605 50.8047 191.968 49.4985C194.055 52.9954 196.074 56.5468 198.093 59.962C201.653 65.949 205.417 71.7591 209.496 77.4194C212.606 81.7328 216.779 85.4882 217.284 90.2642C214.392 92.6998 212.374 95.7885 209.864 98.6323C209.728 98.782 209.618 98.9453 209.509 99.1086C207.136 99.0677 204.653 97.9928 202.226 96.428C202.894 97.2172 203.535 98.02 204.149 98.85C209.646 106.361 217.407 112.416 222.385 120.24C223.027 121.247 223.408 122.226 223.572 123.165C222.999 123.886 222.426 124.621 221.84 125.342C220.871 126.553 220.462 128.077 221.008 129.438C220.967 129.465 220.926 129.506 220.885 129.533C221.09 129.778 221.294 130.009 221.499 130.254C221.499 130.254 221.512 130.282 221.526 130.295C222.372 131.329 222.945 132.554 223.258 133.833C220.817 137.411 218.157 140.786 214.815 143.317C210.287 142.99 206.29 140.051 202.321 137.765C199.607 136.2 196.892 134.609 194.219 132.948C195.542 134.677 196.756 136.5 197.615 138.514C197.956 139.316 198.161 140.119 198.27 140.922C198.052 141.044 197.833 141.194 197.629 141.344C194.423 143.82 191.068 146.433 188.367 149.535C187.958 149.385 187.535 149.209 187.112 148.977C184.521 147.589 181.984 145.984 179.501 144.215C179.897 145.385 180.101 146.555 180.101 147.698C178.928 147.508 177.687 147.889 176.719 148.719C174.536 150.583 172.763 152.991 170.608 154.883C169.926 154.706 169.258 154.434 168.644 154.025C162.929 150.161 158.086 145.086 152.63 140.868C151.253 139.806 149.875 138.759 148.498 137.724C148.879 138.813 148.989 139.956 148.893 141.085C148.388 141.221 147.884 141.466 147.406 141.847C144.787 143.956 142.223 146.12 139.632 148.27C139.018 148.038 138.39 147.712 137.763 147.276C135.212 145.48 132.798 143.398 130.452 141.181C130.397 141.643 130.288 142.079 130.152 142.514C129.101 142.106 127.901 142.092 127.001 142.786C124.928 144.392 122.8 145.888 120.958 147.698C117.93 146.895 115.83 144.691 113.388 142.854C112.965 142.541 112.542 142.215 112.12 141.902C111.97 142.215 111.779 142.487 111.588 142.773C110.81 142.691 110.019 142.827 109.405 143.29C108.355 144.065 107.387 144.895 106.445 145.793C106.309 145.916 106.186 146.038 106.05 146.161C104.986 146.337 103.908 146.351 102.926 146.079C97.3339 144.582 92.3144 140.732 87.5131 137.343C88.4542 138.446 89.409 139.534 90.3229 140.664C93.8284 144.963 98.9843 149.63 100.758 155.073C100.539 155.291 100.321 155.536 100.144 155.835C99.4617 156.937 98.7252 158.039 97.9204 159.114C95.3015 160.72 92.7645 162.638 90.8685 164.924C90.4866 164.815 90.1047 164.693 89.7364 164.53C84.0894 162.135 79.8747 157.577 75.6599 153.291C72.6455 150.229 69.7402 147.086 66.9167 143.861C66.753 144.283 66.5347 144.677 66.2756 145.072C64.9389 144.582 63.4112 144.963 62.2382 145.916C61.0106 146.909 59.7148 147.834 58.419 148.773C56.2638 148.623 54.1224 147.671 52.5128 145.589C46.2112 137.425 28.5473 115.137 34.4398 102.551C31.5209 99.5304 28.7929 96.3328 27.1288 92.7951C26.7469 91.9786 26.5014 91.1622 26.365 90.3867L26.3513 90.4683Z" fill="white"/>
</svg>
