<svg width="248" height="30" viewBox="0 0 248 30" fill="none" xmlns="http://www.w3.org/2000/svg">
<path d="M15.1355 9.73273V29.3162H6.65308V9.73273H0.147583V1.84399H21.595V9.73273H15.1125H15.1355Z" fill="#263238"/>
<path d="M24.1466 9.52515H31.9624V20.8508C31.9624 21.981 32.4681 22.5577 33.4566 22.5577C34.4451 22.5577 34.9278 21.981 34.9278 20.8508V9.52515H42.7436V20.7124C42.7436 23.3189 41.8471 25.5102 40.054 27.3094C38.261 29.1086 36.0542 30.0082 33.4566 30.0082C30.4912 30.0082 28.1005 28.9702 26.2845 26.8942C24.8822 25.2796 24.1696 23.019 24.1696 20.1357V9.54821L24.1466 9.52515Z" fill="#263238"/>
<path d="M55.088 9.24838V29.3162H47.2722V9.24838H55.088ZM51.2031 0.298584C52.2605 0.298584 53.18 0.667646 53.9386 1.38271C54.7202 2.09777 55.088 2.95123 55.088 3.92002C55.088 4.95801 54.7202 5.83454 53.9846 6.50347C53.249 7.1724 52.3065 7.51839 51.1801 7.51839C50.0537 7.51839 49.1112 7.1724 48.3756 6.50347C47.64 5.83454 47.2722 4.98108 47.2722 3.92002C47.2722 2.95123 47.663 2.09777 48.4216 1.38271C49.2032 0.667646 50.0997 0.298584 51.1571 0.298584H51.2031Z" fill="#263238"/>
<path d="M66.6507 1.84411V9.52525H70.1679V17.4832H66.6507C66.6507 19.0748 66.9036 20.182 67.4323 20.7817C67.961 21.3814 68.9035 21.6813 70.3058 21.6813V29.5931C69.892 29.5931 69.5932 29.5931 69.4093 29.5931C67.6392 29.5931 65.9841 29.201 64.398 28.4167C62.8118 27.6324 61.5705 26.5483 60.628 25.1874C59.4326 23.4574 58.835 21.1738 58.835 18.3136V1.82104H66.6507V1.84411Z" fill="#1375BC"/>
<path d="M81.7995 9.24838V29.3162H73.9838V9.24838H81.7995ZM77.9146 0.298584C78.9721 0.298584 79.8916 0.667646 80.6502 1.38271C81.4317 2.09777 81.7995 2.95123 81.7995 3.92002C81.7995 4.95801 81.4317 5.83454 80.6961 6.50347C79.9605 7.1724 79.0181 7.51839 77.8917 7.51839C76.7653 7.51839 75.8228 7.1724 75.0872 6.50347C74.3516 5.83454 73.9838 4.98108 73.9838 3.92002C73.9838 2.95123 74.3746 2.09777 75.1331 1.38271C75.9147 0.667646 76.8112 0.298584 77.8687 0.298584H77.9146Z" fill="#1375BC"/>
<path d="M96.2818 8.83325C99.2242 8.83325 101.776 9.84818 103.868 11.9011C105.983 13.954 107.04 16.3991 107.04 19.2593C107.04 22.1195 105.983 24.6338 103.845 26.6636C101.707 28.6935 99.1323 29.7315 96.0979 29.7315C93.0635 29.7315 90.4889 28.7166 88.3511 26.6636C86.2132 24.6107 85.1328 22.1426 85.1328 19.2593C85.1328 16.376 86.2132 13.8387 88.3511 11.855C90.4889 9.87124 93.1325 8.85631 96.2818 8.85631V8.83325ZM96.0749 16.2607C95.2474 16.2607 94.5347 16.5605 93.9371 17.1372C93.3624 17.7138 93.0635 18.4289 93.0635 19.2824C93.0635 20.1358 93.3624 20.8278 93.9601 21.4045C94.5577 22.0042 95.2474 22.281 96.0749 22.281C96.9025 22.281 97.6151 21.9811 98.2128 21.4045C98.8104 20.8278 99.1093 20.1128 99.1093 19.2824C99.1093 18.452 98.8104 17.7138 98.2358 17.1372C97.6611 16.5605 96.9255 16.2607 96.0749 16.2607Z" fill="#1375BC"/>
<path d="M128.878 29.3162H121.062V17.9905C121.062 16.8372 120.58 16.2605 119.591 16.2605C118.603 16.2605 118.12 16.8372 118.12 17.9905V29.3162H110.304V18.1289C110.304 15.5224 111.201 13.308 112.994 11.5088C114.787 9.70965 116.994 8.81006 119.591 8.81006C122.58 8.81006 124.947 9.84805 126.763 11.924C128.166 13.5387 128.878 15.7992 128.878 18.7056V29.2931V29.3162Z" fill="#1375BC"/>
<path d="M153.981 19.8129V12.6161C155.705 12.6161 156.555 11.9933 156.555 10.7247C156.555 9.57137 155.889 8.9947 154.601 8.9947C153.314 8.9947 152.624 9.77896 152.624 11.3706V29.3163H144.142V12.2009C144.142 10.4248 144.326 8.97164 144.694 7.84138C145.061 6.71112 145.682 5.65006 146.579 4.68127C147.59 3.59714 148.831 2.74369 150.349 2.09783C151.843 1.47503 153.406 1.1521 155.015 1.1521C157.912 1.1521 160.348 2.09782 162.325 3.96621C164.302 5.83459 165.291 8.16431 165.291 10.9554C165.291 13.7464 164.417 15.8454 162.647 17.5062C161.038 19.0517 158.601 19.8129 155.337 19.8129H154.05H153.981Z" fill="#263238"/>
<path d="M179.589 9.04085V17.0911C179.037 16.7912 178.554 16.6528 178.095 16.6528C176.669 16.6528 175.957 17.6908 175.957 19.7898V29.3163H168.141V18.3597C168.141 15.4533 168.969 13.1467 170.601 11.4167C172.233 9.68671 174.44 8.83325 177.175 8.83325C177.796 8.83325 178.577 8.90245 179.566 9.06391L179.589 9.04085Z" fill="#263238"/>
<path d="M189.703 9.24838V29.3162H181.888V9.24838H189.703ZM185.818 0.298584C186.876 0.298584 187.795 0.667646 188.554 1.38271C189.313 2.09777 189.703 2.95123 189.703 3.92002C189.703 4.95801 189.336 5.83454 188.6 6.50347C187.864 7.1724 186.922 7.51839 185.795 7.51839C184.669 7.51839 183.727 7.1724 182.991 6.50347C182.255 5.83454 181.888 4.98108 181.888 3.92002C181.888 2.95123 182.278 2.09777 183.037 1.38271C183.796 0.667646 184.715 0.298584 185.795 0.298584H185.818Z" fill="#263238"/>
<path d="M222.875 29.3163H215.059V18.4981C215.059 17.6677 214.967 17.0911 214.783 16.7681C214.599 16.4452 214.277 16.2837 213.794 16.2837C212.921 16.2837 212.484 17.0219 212.484 18.5212V29.3163H204.668V18.4981C204.668 17.6677 204.576 17.0911 204.392 16.7681C204.209 16.4452 203.864 16.2837 203.404 16.2837C202.53 16.2837 202.117 17.0219 202.117 18.5212V29.3163H194.301V16.9527C194.301 14.6921 195.082 12.7776 196.669 11.2091C198.255 9.64058 200.14 8.83325 202.393 8.83325C204.645 8.83325 206.783 9.77898 208.622 11.6474C210.668 9.77898 212.714 8.83325 214.76 8.83325C217.357 8.83325 219.449 9.75591 221.035 11.5782C222.277 13.0083 222.897 15.0843 222.897 17.8061V29.3163H222.875Z" fill="#263238"/>
<path d="M247.908 20.5049H236.069C235.886 19.9282 235.794 19.3977 235.794 18.9133C235.794 18.2444 235.909 17.5754 236.161 16.9526H240.138C239.862 15.4533 238.989 14.7152 237.518 14.7152C236.552 14.7152 235.748 15.1073 235.127 15.9147C234.506 16.722 234.207 17.7369 234.207 18.9825C234.207 20.2281 234.506 21.3353 235.104 22.1426C235.702 22.9499 236.46 23.3421 237.426 23.3421C238.207 23.3421 238.966 22.973 239.679 22.2118L244.138 27.3556C242.069 28.9242 239.747 29.7084 237.219 29.7084C234.139 29.7084 231.541 28.7166 229.426 26.7098C227.334 24.703 226.277 22.2349 226.277 19.2824C226.277 16.3298 227.334 13.8617 229.472 11.8319C231.587 9.80203 234.207 8.78711 237.288 8.78711C240.368 8.78711 242.851 9.77897 244.897 11.7627C246.943 13.7464 247.977 16.1914 247.977 19.0748C247.977 19.3746 247.954 19.836 247.885 20.4818L247.908 20.5049Z" fill="#263238"/>
</svg>
