<svg width="50" height="50" viewBox="0 0 50 50" fill="none" xmlns="http://www.w3.org/2000/svg">
<circle cx="25" cy="25" r="25" fill="white"/>
<rect width="32" height="32" transform="translate(9 9)" fill="white" fill-opacity="0.01"/>
<path fill-rule="evenodd" clip-rule="evenodd" d="M19.8346 22.3333H14.3333C12.8493 22.3333 11.6666 23.5267 11.6666 25V29.9733C11.6666 31.72 14.1653 32.7107 17 32.9467V28.9947C17.0021 27.935 17.4244 26.9193 18.1742 26.1705C18.924 25.4216 19.9402 25.0007 21 25H21.472C20.6718 24.2948 20.1015 23.366 19.8346 22.3333ZM30.1653 22.3333H35.6666C37.14 22.3333 38.3333 23.5133 38.3333 25V29.9733C38.3333 31.72 35.8346 32.7107 33 32.9467V28.9947C32.9985 27.9347 32.5765 26.9187 31.8265 26.1697C31.0765 25.4207 30.0599 25 29 25H28.528C29.3281 24.2948 29.8984 23.366 30.1653 22.3333ZM22.2893 16.4053C22.1666 15.5907 21.7954 14.8339 21.2264 14.2382C20.6574 13.6425 19.9183 13.237 19.1102 13.0772C18.302 12.9173 17.4643 13.0108 16.7113 13.345C15.9583 13.6792 15.3269 14.2377 14.9033 14.9442C14.4797 15.6507 14.2845 16.4708 14.3445 17.2924C14.4045 18.114 14.7167 18.8971 15.2385 19.5346C15.7602 20.1721 16.4661 20.6329 17.2596 20.8542C18.0531 21.0754 18.8956 21.0462 19.672 20.7707C19.7098 19.8825 19.969 19.018 20.4261 18.2555C20.8832 17.4931 21.5237 16.8571 22.2893 16.4053ZM30.3293 20.7707C31.1055 21.0461 31.9479 21.0752 32.7413 20.854C33.5347 20.6328 34.2404 20.172 34.7622 19.5347C35.2839 18.8973 35.5962 18.1145 35.6563 17.293C35.7164 16.4715 35.5215 15.6515 35.0981 14.945C34.6748 14.2385 34.0436 13.6799 33.2909 13.3455C32.5382 13.0111 31.7006 12.9172 30.8925 13.0767C30.0844 13.2361 29.3453 13.6412 28.776 14.2365C28.2068 14.8318 27.8352 15.5883 27.712 16.4027C28.4783 16.8542 29.1193 17.4906 29.5765 18.2536C30.0337 19.0166 30.2925 19.8819 30.3293 20.7707Z" fill="#263238"/>
<path fill-rule="evenodd" clip-rule="evenodd" d="M18.3333 29C18.3333 27.5267 19.516 26.3333 21 26.3333H29C30.4733 26.3333 31.6666 27.5133 31.6666 29V33.9733C31.6666 38.0093 18.3333 38.0093 18.3333 33.9733V29Z" fill="#263238"/>
<path d="M25 25C27.2091 25 29 23.2092 29 21C29 18.7909 27.2091 17 25 17C22.7908 17 21 18.7909 21 21C21 23.2092 22.7908 25 25 25Z" fill="#263238"/>
</svg>
