<svg width="198" height="369" viewBox="0 0 198 369" fill="none" xmlns="http://www.w3.org/2000/svg">
<path d="M136.608 338.268L117.458 338.445L123.828 361.331L139.827 361.195L136.608 338.268Z" fill="#EBB376"/>
<path opacity="0.2" d="M136.595 338.268L117.458 338.459L121.018 351.276L138.409 351.113L136.595 338.268Z" fill="black"/>
<path d="M87.668 249.171C76.8787 219.808 60.9336 175.872 66.4168 162.36L125.778 161C125.778 161 129.393 225.291 131.725 252.396C134.139 280.576 139.309 347.167 139.309 347.167L118.576 347.221C118.576 347.221 90.4232 282.671 87.6816 249.158L87.668 249.171Z" fill="#263238"/>
<path d="M121.113 368.325H125.287L126.419 366.638L128.615 368.339H153.795C154.286 365.849 152.717 362.583 152.717 362.583C152.717 362.583 145.188 361.903 142.282 358.161C142.064 357.875 141.71 357.712 141.355 357.794C138.845 358.324 128.888 360.202 123.405 358.229C122.805 358.011 122.177 358.42 122.177 359.046C122.109 363.372 121.113 368.325 121.113 368.325Z" fill="#263238"/>
<path d="M64.944 338.241L45.7661 338.418L47.1301 361.332L63.1571 361.195L64.944 338.241Z" fill="#EBB376"/>
<path opacity="0.2" d="M64.9437 338.241L45.7522 338.431L46.516 351.263L63.9343 351.099L64.9437 338.241Z" fill="black"/>
<path d="M35.4812 249.049C31.1028 219.645 24.7602 175.668 33.2034 162.143L92.8647 160.782C92.8647 160.782 82.4301 225.155 78.8292 252.274C75.0918 280.48 65.6938 347.153 65.6938 347.153L44.9474 347.208C44.9474 347.208 30.8982 282.589 35.4812 249.035V249.049Z" fill="#263238"/>
<path d="M115.453 62.5008C118.849 64.637 121.345 67.2087 123.186 69.5762C125.041 71.9574 126.351 74.1889 127.469 76.2707C129.693 80.4072 131.111 84.0538 132.598 87.4011C135.394 94.082 137.986 99.5927 141.314 103.96C142.132 105.076 142.992 106.097 143.919 107.049L144.26 107.417L144.438 107.593C144.438 107.593 144.478 107.634 144.492 107.661C144.519 107.729 144.547 107.811 144.683 107.934C144.765 108.042 144.929 108.192 145.12 108.342C145.27 108.478 145.515 108.655 145.733 108.818C147.602 110.206 150.616 111.607 153.672 112.941C159.892 115.594 167.025 117.948 173.859 120.533L174.214 120.669C177.883 122.057 179.724 126.153 178.333 129.813C177.365 132.344 175.114 133.99 172.604 134.317C168.43 134.848 164.502 135.052 160.424 135.025C158.391 135.025 156.359 134.943 154.299 134.793C152.24 134.671 150.166 134.453 148.066 134.127C143.824 133.514 139.568 132.616 134.658 130.63C134.03 130.357 133.43 130.113 132.762 129.759C132.121 129.446 131.48 129.092 130.784 128.67C130.129 128.289 129.393 127.799 128.683 127.282L128.179 126.915L127.824 126.629L127.101 126.058C125.178 124.534 123.364 122.874 121.7 121.132C118.344 117.649 115.575 113.825 113.202 110.056C110.829 106.274 108.933 102.477 107.173 98.9531C105.509 95.429 103.94 92.1362 102.59 89.6053C101.908 88.3671 101.267 87.3466 100.817 86.7207C100.353 86.0948 100.148 85.9315 100.38 86.0132C93.8604 81.8495 91.9645 73.2228 96.1247 66.7188C100.299 60.2148 108.946 58.3235 115.466 62.4735L115.453 62.5008Z" fill="#4CC1FF"/>
<path d="M173.218 133.541L174.146 125.527C178.047 118.002 186.885 124.67 186.885 124.67L194.96 126.711C196.843 127.214 198.043 129.228 197.797 131.46L197.197 137.065C196.924 139.624 194.878 141.542 192.655 141.311L185.139 140.277C183.694 140.127 182.289 139.624 181.088 138.821L173.232 133.541H173.218Z" fill="#EBB376"/>
<path d="M110.038 60.1877C94.7198 55.3028 73.3323 50.9487 55.9822 49.588C44.9202 48.7172 36.4224 57.1125 37.3909 67.6986C41.2919 110.682 29.1523 155.339 33.7899 165.123C33.7899 165.123 93.7241 173.26 126.528 174.988C140.632 135.351 126.951 107.212 122.504 72.6378C121.741 66.6508 115.957 62.0654 110.038 60.1877Z" fill="#4CC1FF"/>
<path d="M102.263 60.7453C102.194 58.922 101.049 55.8878 99.1391 54.4863C99.1664 52.282 99.9848 49.996 101.826 47.5332L82.4029 33.2598C80.9161 42.3082 77.1651 49.4654 72.3365 52.8807C76.0466 57.1804 82.8803 64.9226 92.9739 67.0044C103.067 69.0863 102.413 64.7321 102.276 60.7453H102.263Z" fill="#EBB376"/>
<path opacity="0.2" d="M101.294 48.2816L82.403 33.2598C82.403 47.5196 93.997 55.1258 99.2074 53.4658C99.4257 51.8057 100.08 50.1049 101.281 48.2952L101.294 48.2816Z" fill="black"/>
<path d="M93.5605 67.1133L90.887 62.6367L84.1761 64.1607C84.1761 64.1607 86.3176 68.3788 93.5605 67.1133Z" fill="#407BFF"/>
<path opacity="0.3" d="M93.5605 67.1133L90.887 62.6367L84.1761 64.1607C84.1761 64.1607 86.3176 68.3788 93.5605 67.1133Z" fill="black"/>
<path d="M76.4559 47.5195C76.4559 47.5195 80.4387 59.5887 90.887 62.6366C83.4395 64.1605 79.4567 71.032 79.4567 71.032C79.4567 71.032 67.2216 65.4396 70.6725 50.4042C73.2095 48.4584 76.4422 47.5195 76.4422 47.5195H76.4559Z" fill="#407BFF"/>
<path d="M93.5604 67.1133L99.9848 63.9565L105.182 67.1677C105.182 67.1677 98.5526 71.2906 93.5468 67.1133H93.5604Z" fill="#407BFF"/>
<path opacity="0.3" d="M93.5604 67.1133L99.9848 63.9565L105.182 67.1677C105.182 67.1677 98.5526 71.2906 93.5468 67.1133H93.5604Z" fill="black"/>
<path d="M99.1392 54.4863C99.1392 54.4863 101.267 60.378 99.9985 63.9566C104.391 66.5827 103.709 74.6107 103.709 74.6107C103.709 74.6107 109.028 64.1607 103.572 56.5545C102.195 54.8265 99.1392 54.4863 99.1392 54.4863Z" fill="#407BFF"/>
<path opacity="0.7" d="M76.4559 47.5195C76.4559 47.5195 80.4387 59.5887 90.887 62.6366C83.4395 64.1605 79.4567 71.032 79.4567 71.032C79.4567 71.032 67.2216 65.4396 70.6725 50.4042C73.2095 48.4584 76.4422 47.5195 76.4422 47.5195H76.4559Z" fill="white"/>
<path opacity="0.7" d="M99.1392 54.4863C99.1392 54.4863 101.267 60.378 99.9985 63.9566C104.391 66.5827 103.709 74.6107 103.709 74.6107C103.709 74.6107 109.028 64.1607 103.572 56.5545C102.195 54.8265 99.1392 54.4863 99.1392 54.4863Z" fill="white"/>
<path d="M44.4019 368.325H48.5757L49.7078 366.638L51.9039 368.339H77.0833C77.5743 365.849 76.0057 362.583 76.0057 362.583C76.0057 362.583 68.4765 361.903 65.5711 358.161C65.3529 357.875 64.9983 357.712 64.6436 357.794C62.1339 358.324 52.1767 360.202 46.6934 358.229C46.0932 358.011 45.4658 358.42 45.4658 359.046C45.3976 363.372 44.4019 368.325 44.4019 368.325Z" fill="#263238"/>
<path d="M113.557 9.81542C113.557 9.81542 126.187 20.9593 114.907 31.6678C103.613 42.3627 103.968 5.95111 113.557 9.81542Z" fill="#263238"/>
<path d="M81.7754 18.4013C80.275 30.0078 79.5111 37.9406 85.6219 44.4582C97.7615 57.3846 107.432 53.1529 112.588 42.4036C117.239 32.7292 118.917 15.367 107.855 8.07382C96.9567 0.889473 83.2621 6.79479 81.7617 18.4013H81.7754Z" fill="#EBB376"/>
<path d="M102.685 25.572C102.467 26.5653 102.822 27.4906 103.477 27.6266C104.131 27.7627 104.841 27.0688 105.059 26.0619C105.277 25.0686 104.922 24.1433 104.268 24.0073C103.613 23.8712 102.904 24.5651 102.685 25.572Z" fill="#263238"/>
<path d="M112.97 28.0894C112.752 29.0827 113.106 30.0079 113.761 30.144C114.416 30.28 115.125 29.5861 115.343 28.5792C115.562 27.5859 115.207 26.6607 114.552 26.5246C113.898 26.3885 113.188 27.0825 112.97 28.0894Z" fill="#263238"/>
<path d="M109.355 28.1301L107.446 36.5119C107.446 36.5119 108.81 37.165 110.365 37.2874C111.265 37.3555 111.865 36.335 111.374 35.573C109.696 32.9197 109.342 28.1301 109.342 28.1301H109.355Z" fill="#D58745"/>
<path d="M97.9797 21.5718C97.8843 21.5446 97.8024 21.4765 97.7342 21.3949C97.516 21.15 97.5433 20.769 97.8024 20.5513C100.339 18.3742 103.027 19.0954 103.136 19.1362C103.463 19.2314 103.64 19.558 103.545 19.8709C103.449 20.1839 103.122 20.3744 102.795 20.2791C102.713 20.2519 100.612 19.7077 98.5799 21.4493C98.4026 21.599 98.1843 21.6262 97.9797 21.5582V21.5718Z" fill="#263238"/>
<path d="M117.567 26.2389C117.376 26.1981 117.212 26.062 117.144 25.8715C116.23 23.3951 114.116 22.8781 114.034 22.8645C113.707 22.7964 113.516 22.4699 113.584 22.1433C113.666 21.8167 113.979 21.6126 114.307 21.6943C114.43 21.7215 117.13 22.3474 118.276 25.4497C118.385 25.7627 118.235 26.1029 117.921 26.2253C117.812 26.2661 117.689 26.2797 117.58 26.2525L117.567 26.2389Z" fill="#263238"/>
<path d="M110.733 41.2742C110.733 41.2742 106.832 39.2604 95.1971 36.2805C95.6609 40.1176 97.475 43.6282 103.449 45.0977C109.424 46.5672 110.733 41.2878 110.733 41.2878V41.2742Z" fill="#263238"/>
<path d="M101.39 41.6416C104.268 42.3491 106.191 43.5329 107.446 44.9888C106.437 45.3834 105.127 45.4923 103.449 45.0841C100.571 44.3765 98.6617 43.2064 97.4069 41.7368C98.4162 41.3422 99.712 41.2198 101.39 41.6416Z" fill="#A02724"/>
<path d="M110.228 41.043C109.71 41.6962 109.192 42.3629 107.964 42.3085C105.495 41.8458 99.4664 39.5735 97.8842 38.7979C96.8612 38.3489 96.0428 37.7502 95.7018 36.4167C104.663 38.7435 108.892 40.4443 110.242 41.0566L110.228 41.043Z" fill="white"/>
<path d="M85.5946 29.4908C85.5946 29.4908 94.0378 20.2246 92.0054 10.9857C92.0054 10.9857 97.8297 14.5098 110.242 13.8431C110.242 13.8431 106.491 17.5169 99.3846 15.3534C99.3846 15.3534 107.705 19.381 116.189 15.5167C124.673 11.6524 114.812 3.05296 103.872 1.20245C92.9329 -0.648065 85.0899 -0.457574 84.1897 4.93069C84.1897 4.93069 72.3365 4.93069 75.9921 26.2388L85.5946 29.4908Z" fill="#263238"/>
<path d="M74.4916 29.6814C75.6237 32.8654 78.1199 35.2329 80.6705 36.3759C84.5034 38.1039 87.0813 34.8383 86.5766 30.9196C86.1265 27.3818 83.5895 22.2249 79.4702 22.1569C75.4191 22.0888 73.1958 26.0484 74.4916 29.695V29.6814Z" fill="#EBB376"/>
<path d="M57.4553 78.2164L56.2686 79.06L54.9319 80.0397L52.2312 82.0535C50.4444 83.4278 48.6439 84.8021 46.9116 86.2308C43.4061 89.0474 40.1052 92.0136 37.0635 95.0071C35.5495 96.5038 34.1309 98.0278 32.8487 99.5518C31.5393 101.062 30.3663 102.572 29.3706 104.056C27.3928 107.022 26.2606 109.73 26.0287 111.362L25.1694 106.763C24.6648 106.246 24.7057 107.212 25.6059 108.328C26.0697 108.886 26.6425 109.525 27.3109 110.179C27.9929 110.832 28.7977 111.471 29.6297 112.138C31.3074 113.471 33.2307 114.778 35.263 116.084C36.2724 116.723 37.309 117.404 38.3593 118.03L39.9416 119.009C40.4462 119.336 41.0464 119.69 41.4283 119.975L42.6423 120.887C45.7522 123.2 46.3933 127.595 44.0745 130.698C42.7241 132.507 40.6236 133.473 38.5366 133.514L36.1633 133.541L33.9263 133.473C32.4395 133.378 30.9528 133.256 29.466 133.051C26.4789 132.657 23.4917 132.004 20.4227 131.038C17.381 130.017 14.2029 128.738 10.9702 126.588C9.34704 125.5 7.68296 124.18 6.04615 122.479C4.40935 120.792 2.85439 118.615 1.64043 115.921C1.10847 114.75 0.849309 113.539 0.808389 112.328L0.781109 111.308C0.658349 107.158 1.35399 103.294 2.39063 99.8511C3.41363 96.3814 4.85948 93.3471 6.38716 90.5305C9.4698 84.9245 13.098 80.271 16.9172 76.0393C20.7091 71.794 24.7739 68.0386 28.9477 64.528C31.0483 62.7864 33.1625 61.0855 35.3722 59.4936C36.477 58.6908 37.5682 57.888 38.7003 57.126L40.4326 55.9694L42.3422 54.7448C48.8348 50.5676 57.4962 52.4453 61.6837 58.9357C65.7348 65.222 64.098 73.5221 58.0827 77.8218L57.5099 78.23L57.4553 78.2164Z" fill="#4CC1FF"/>
<path d="M90.9688 105.267L88.2817 101.43L73.0322 98.7083L57.0052 85.3193L46.2842 97.1572C46.2842 97.1572 38.0729 112.125 38.8777 112.71C39.6824 113.295 59.1467 123.813 59.1467 123.813L72.3911 122.166L90.9824 105.253L90.9688 105.267Z" fill="#E0E0E0"/>
<path d="M51.6719 84.0674L28.443 112.084L51.9993 126.67L71.4226 130.085L94.4197 104.341L72.3774 100.11L51.6719 84.0674Z" fill="#263238"/>
<path opacity="0.4" d="M72.3774 100.11L51.9993 126.67L28.443 112.097L51.6719 84.0674L72.3774 100.11Z" fill="white"/>
<path opacity="0.2" d="M72.3774 100.11L51.9993 126.67L71.4226 130.085L94.4197 104.341L72.3774 100.11Z" fill="white"/>
<path d="M38.7685 121.921L37.5818 129.895C39.3959 138.168 49.6532 134.004 49.6532 134.004H55.3956C57.3462 133.99 59.0239 132.358 59.3785 130.14L60.2515 124.575C60.647 122.03 59.1603 119.649 56.9642 119.295L52.0129 118.492C50.5671 118.261 49.0939 118.383 47.7163 118.86L38.7548 121.921H38.7685Z" fill="#EBB376"/>
</svg>
