<svg width="62" height="37" viewBox="0 0 62 37" fill="none" xmlns="http://www.w3.org/2000/svg">
<path d="M4.53642 36.9865H53.1357C55.7819 36.9865 58.0189 35.0272 58.3599 32.4011L61.8108 5.55501C62.1245 3.13302 60.2285 0.983154 57.7733 0.983154H9.17405C6.52789 0.983154 4.29091 2.94252 3.94991 5.56861L0.498987 32.4147C0.185267 34.8367 2.08122 36.9865 4.53642 36.9865Z" fill="#263238"/>
<path opacity="0.6" d="M4.53642 36.9865H53.1357C55.7819 36.9865 58.0189 35.0272 58.3599 32.4011L61.8108 5.55501C62.1245 3.13302 60.2285 0.983154 57.7733 0.983154H9.17405C6.52789 0.983154 4.29091 2.94252 3.94991 5.56861L0.498987 32.4147C0.185267 34.8367 2.08122 36.9865 4.53642 36.9865Z" fill="white"/>
</svg>
