<svg width="50" height="50" viewBox="0 0 50 50" fill="none" xmlns="http://www.w3.org/2000/svg">
<circle cx="25" cy="25" r="25" fill="white"/>
<rect width="32" height="32" transform="translate(9 9)" fill="white" fill-opacity="0.01"/>
<path fill-rule="evenodd" clip-rule="evenodd" d="M34.32 20.9867L34.3333 22.34V34.3333C34.3333 35.0406 34.0523 35.7189 33.5522 36.219C33.0521 36.719 32.3739 37 31.6666 37H18.3333C17.626 37 16.9478 36.719 16.4477 36.219C15.9476 35.7189 15.6666 35.0406 15.6666 34.3333V15.6667C15.6666 14.9594 15.9476 14.2811 16.4477 13.781C16.9478 13.281 17.626 13 18.3333 13H25.3666C25.992 13 26.596 13.2187 27.076 13.6187L33.8413 19.2667C34.144 19.52 34.32 19.8947 34.32 20.2907V20.9853V20.9867ZM25.0266 15.6667L25 19.9227C24.9998 20.0966 25.034 20.2688 25.1006 20.4295C25.1672 20.5901 25.2648 20.736 25.388 20.8588C25.5111 20.9816 25.6574 21.0788 25.8182 21.1449C25.9791 21.211 26.1514 21.2447 26.3253 21.244H31.6586L25.0266 15.6667Z" fill="#263238"/>
</svg>
