<svg width="95" height="11" viewBox="0 0 95 11" fill="none" xmlns="http://www.w3.org/2000/svg">
<path d="M27.3672 1.56378C30.5726 1.45492 38.5657 2.04002 38.5657 2.04002L42.2757 0.665771C42.2757 0.665771 60.9762 3.57758 63.0767 3.44151C65.1773 3.30545 70.9197 5.53696 70.9197 5.53696L29.6451 7.34663L27.3672 1.56378Z" fill="#407BFF"/>
<path opacity="0.9" d="M27.3672 1.56378C30.5726 1.45492 38.5657 2.04002 38.5657 2.04002L42.2757 0.665771C42.2757 0.665771 60.9762 3.57758 63.0767 3.44151C65.1773 3.30545 70.9197 5.53696 70.9197 5.53696L29.6451 7.34663L27.3672 1.56378Z" fill="white"/>
<path d="M18.3921 5.52341C18.3921 5.52341 25.594 -1.29355 32.2912 2.93814C32.2912 2.93814 41.2391 -2.17799 50.4052 2.93814L62.613 5.1016L18.3784 5.53703L18.3921 5.52341Z" fill="#407BFF"/>
<path opacity="0.7" d="M18.3921 5.52341C18.3921 5.52341 25.594 -1.29355 32.2912 2.93814C32.2912 2.93814 41.2391 -2.17799 50.4052 2.93814L62.613 5.1016L18.3784 5.53703L18.3921 5.52341Z" fill="white"/>
<path d="M92.3754 10.626L1.99679 10.626C0.932869 10.626 0.0871964 9.76876 0.0871964 8.72104V7.00658C0.0871964 5.94526 0.94651 5.10165 1.99679 5.10165L92.3754 5.10165C93.4394 5.10165 94.285 5.95887 94.285 7.00658V8.72104C94.285 9.78237 93.4257 10.626 92.3754 10.626Z" fill="#263238"/>
<path opacity="0.6" d="M0.0871582 6.9521V8.77539C0.0871582 9.7959 0.919233 10.6259 1.95587 10.6259H92.4436C93.4666 10.6259 94.2987 9.7959 94.2987 8.77539V6.9521C94.2987 5.93159 93.4666 5.10156 92.4436 5.10156H1.95587C0.919233 5.10156 0.0871582 5.93159 0.0871582 6.9521Z" fill="white"/>
<path opacity="0.3" d="M0.0871582 6.9521V8.77539C0.0871582 9.7959 0.919233 10.6259 1.95587 10.6259H45.6448C46.6678 10.6259 47.4998 9.7959 47.4998 8.77539V6.9521C47.4998 5.93159 46.6678 5.10156 45.6448 5.10156H1.95587C0.919233 5.10156 0.0871582 5.93159 0.0871582 6.9521Z" fill="white"/>
</svg>
