<svg width="161" height="20" viewBox="0 0 161 20" fill="none" xmlns="http://www.w3.org/2000/svg">
<path d="M10.2302 6.23875V18.9104H4.73815V6.23875H0.526123V1.13428H14.4124V6.23875H10.2153H10.2302Z" fill="#263238"/>
<path d="M16.0645 6.10449H21.1248V13.4328C21.1248 14.1642 21.4523 14.5373 22.0923 14.5373C22.7323 14.5373 23.0448 14.1642 23.0448 13.4328V6.10449H28.1052V13.3433C28.1052 15.0299 27.5247 16.4478 26.3638 17.612C25.2029 18.7761 23.7741 19.3582 22.0923 19.3582C20.1723 19.3582 18.6244 18.6866 17.4486 17.3433C16.5407 16.2985 16.0793 14.8358 16.0793 12.9702V6.11942L16.0645 6.10449Z" fill="#263238"/>
<path d="M36.0977 5.92532V18.9104H31.0374V5.92532H36.0977ZM33.5824 0.134277C34.2671 0.134277 34.8624 0.373082 35.3536 0.835769C35.8596 1.29846 36.0977 1.8507 36.0977 2.47756C36.0977 3.1492 35.8596 3.71637 35.3833 4.1492C34.9071 4.58204 34.2968 4.80592 33.5676 4.80592C32.8383 4.80592 32.228 4.58204 31.7518 4.1492C31.2755 3.71637 31.0374 3.16413 31.0374 2.47756C31.0374 1.8507 31.2904 1.29846 31.7815 0.835769C32.2876 0.373082 32.868 0.134277 33.5527 0.134277H33.5824Z" fill="#263238"/>
<path d="M43.5841 1.13431V6.10446H45.8612V11.2537H43.5841C43.5841 12.2836 43.7478 13 44.0901 13.388C44.4324 13.7761 45.0427 13.9701 45.9505 13.9701V19.0895C45.6826 19.0895 45.4892 19.0895 45.3701 19.0895C44.2241 19.0895 43.1524 18.8358 42.1255 18.3283C41.0985 17.8209 40.2948 17.1194 39.6846 16.2388C38.9107 15.1194 38.5237 13.6418 38.5237 11.791V1.11938H43.5841V1.13431Z" fill="#2599D6"/>
<path d="M53.3923 5.92532V18.9104H48.3319V5.92532H53.3923ZM50.877 0.134277C51.5616 0.134277 52.157 0.373082 52.6481 0.835769C53.1542 1.29846 53.3923 1.8507 53.3923 2.47756C53.3923 3.1492 53.1542 3.71637 52.6779 4.1492C52.2016 4.58204 51.5914 4.80592 50.8621 4.80592C50.1328 4.80592 49.5226 4.58204 49.0463 4.1492C48.57 3.71637 48.3319 3.16413 48.3319 2.47756C48.3319 1.8507 48.5849 1.29846 49.0761 0.835769C49.5821 0.373082 50.1626 0.134277 50.8472 0.134277H50.877Z" fill="#2599D6"/>
<path d="M62.7689 5.65674C64.674 5.65674 66.3261 6.31345 67.6805 7.64181C69.0497 8.97017 69.7344 10.5523 69.7344 12.403C69.7344 14.2538 69.0498 15.8806 67.6656 17.1941C66.2814 18.5075 64.6145 19.1791 62.6498 19.1791C60.6852 19.1791 59.0183 18.5224 57.6341 17.1941C56.2499 15.8657 55.5504 14.2687 55.5504 12.403C55.5504 10.5373 56.2499 8.89554 57.6341 7.61196C59.0183 6.32838 60.7299 5.67166 62.7689 5.67166V5.65674ZM62.635 10.4627C62.0992 10.4627 61.6378 10.6567 61.2508 11.0299C60.8787 11.403 60.6852 11.8657 60.6852 12.4179C60.6852 12.9702 60.8787 13.4179 61.2657 13.7911C61.6527 14.1791 62.0992 14.3582 62.635 14.3582C63.1708 14.3582 63.6322 14.1642 64.0191 13.7911C64.4061 13.4179 64.5996 12.9552 64.5996 12.4179C64.5996 11.8806 64.4061 11.403 64.034 11.0299C63.6619 10.6567 63.1857 10.4627 62.635 10.4627Z" fill="#2599D6"/>
<path d="M83.8738 18.9105H78.8134V11.5821C78.8134 10.8359 78.5008 10.4627 77.8608 10.4627C77.2208 10.4627 76.9083 10.8359 76.9083 11.5821V18.9105H71.8479V11.6717C71.8479 9.98513 72.4284 8.55229 73.5893 7.38811C74.7502 6.22394 76.179 5.64185 77.8608 5.64185C79.7957 5.64185 81.3287 6.31349 82.5045 7.65677C83.4124 8.70154 83.8738 10.1642 83.8738 12.0448V18.8956V18.9105Z" fill="#2599D6"/>
<path d="M100.126 12.7611V8.10443C101.243 8.10443 101.793 7.70145 101.793 6.88055C101.793 6.13428 101.362 5.76115 100.528 5.76115C99.6949 5.76115 99.2484 6.26861 99.2484 7.29846V18.9104H93.7563V7.83578C93.7563 6.68652 93.8754 5.74622 94.1135 5.01488C94.3517 4.28354 94.7535 3.59697 95.334 2.9701C95.9889 2.26861 96.7926 1.71637 97.7749 1.29846C98.7423 0.895478 99.7544 0.686523 100.796 0.686523C102.672 0.686523 104.249 1.29846 105.529 2.50742C106.809 3.71637 107.449 5.22384 107.449 7.02981C107.449 8.83578 106.884 10.194 105.738 11.2686C104.696 12.2686 103.118 12.7611 101.005 12.7611H100.171H100.126Z" fill="#263238"/>
<path d="M116.707 5.79106V11C116.35 10.806 116.037 10.7164 115.739 10.7164C114.817 10.7164 114.355 11.3881 114.355 12.7463V18.9105H109.295V11.8209C109.295 9.94032 109.831 8.44778 110.887 7.32838C111.944 6.20898 113.373 5.65674 115.144 5.65674C115.546 5.65674 116.052 5.70151 116.692 5.80599L116.707 5.79106Z" fill="#263238"/>
<path d="M123.255 5.92532V18.9104H118.195V5.92532H123.255ZM120.74 0.134277C121.425 0.134277 122.02 0.373082 122.511 0.835769C123.002 1.29846 123.255 1.8507 123.255 2.47756C123.255 3.1492 123.017 3.71637 122.541 4.1492C122.065 4.58204 121.455 4.80592 120.725 4.80592C119.996 4.80592 119.386 4.58204 118.909 4.1492C118.433 3.71637 118.195 3.16413 118.195 2.47756C118.195 1.8507 118.448 1.29846 118.939 0.835769C119.43 0.373082 120.026 0.134277 120.725 0.134277H120.74Z" fill="#263238"/>
<path d="M144.732 18.9105H139.672V11.9105C139.672 11.3732 139.612 11 139.493 10.7911C139.374 10.5821 139.166 10.4776 138.853 10.4776C138.288 10.4776 138.005 10.9552 138.005 11.9254V18.9105H132.945V11.9105C132.945 11.3732 132.885 11 132.766 10.7911C132.647 10.5821 132.424 10.4776 132.126 10.4776C131.56 10.4776 131.293 10.9552 131.293 11.9254V18.9105H126.232V10.9105C126.232 9.44778 126.738 8.20898 127.765 7.19405C128.792 6.17912 130.013 5.65674 131.471 5.65674C132.93 5.65674 134.314 6.26868 135.505 7.47763C136.829 6.26868 138.154 5.65674 139.478 5.65674C141.16 5.65674 142.515 6.25375 143.542 7.43286C144.345 8.35823 144.747 9.70151 144.747 11.4627V18.9105H144.732Z" fill="#263238"/>
<path d="M160.941 13.2088H153.276C153.156 12.8357 153.097 12.4924 153.097 12.1789C153.097 11.7461 153.171 11.3133 153.335 10.9103H155.91C155.731 9.94014 155.166 9.46253 154.213 9.46253C153.588 9.46253 153.067 9.71626 152.665 10.2386C152.263 10.761 152.07 11.4178 152.07 12.2237C152.07 13.0297 152.263 13.7461 152.65 14.2685C153.037 14.7909 153.529 15.0446 154.154 15.0446C154.66 15.0446 155.151 14.8058 155.612 14.3133L158.5 17.6416C157.16 18.6566 155.657 19.164 154.02 19.164C152.025 19.164 150.344 18.5222 148.974 17.2237C147.62 15.9252 146.935 14.3282 146.935 12.4178C146.935 10.5073 147.62 8.91029 149.004 7.59686C150.373 6.28342 152.07 5.62671 154.064 5.62671C156.059 5.62671 157.666 6.2685 158.991 7.55208C160.315 8.83566 160.985 10.4178 160.985 12.2834C160.985 12.4775 160.97 12.776 160.926 13.1939L160.941 13.2088Z" fill="#263238"/>
</svg>
