<svg width="404" height="344" viewBox="0 0 404 344" fill="none" xmlns="http://www.w3.org/2000/svg">
<path d="M375.797 94.2792H27.871C21.0995 94.2792 15.6101 99.7686 15.6101 106.54V328.314C15.6101 335.085 21.0995 340.575 27.871 340.575H375.797C382.568 340.575 388.058 335.085 388.058 328.314V106.54C388.058 99.7686 382.568 94.2792 375.797 94.2792Z" fill="#263238"/>
<path d="M0.0420785 322.356H403.55V328.928C403.55 332.901 401.972 336.711 399.163 339.52C396.354 342.329 392.544 343.907 388.571 343.907H14.979C11.0063 343.907 7.19637 342.329 4.38726 339.52C1.57814 336.711 0 332.901 0 328.928V322.356H0.0420785Z" fill="#263238"/>
<path d="M377.017 104.058H25.6074V312.047H377.017V104.058Z" fill="#455A64"/>
<path d="M165.123 322.356L170.13 330.316H240.59L245.235 322.356H165.123Z" fill="#455A64"/>
<path d="M367.752 111.101H35.5961C34.0764 111.101 32.8444 112.333 32.8444 113.853V308.63C32.8444 310.15 34.0764 311.382 35.5961 311.382H367.752C369.272 311.382 370.504 310.15 370.504 308.63V113.853C370.504 112.333 369.272 111.101 367.752 111.101Z" fill="#EBEBEB"/>
<path d="M370.504 125.777H32.8444V311.391H370.504V125.777Z" fill="#EBEBEB"/>
<path d="M60.5389 118.86C60.5406 119.395 60.3833 119.918 60.0871 120.364C59.791 120.809 59.3692 121.157 58.8752 121.362C58.3813 121.568 57.8375 121.622 57.3127 121.518C56.7879 121.414 56.3058 121.157 55.9275 120.778C55.5493 120.4 55.2918 119.918 55.1878 119.393C55.0839 118.868 55.1381 118.325 55.3436 117.831C55.5491 117.337 55.8966 116.915 56.3421 116.619C56.7876 116.323 57.3111 116.165 57.846 116.167C58.5595 116.169 59.2432 116.454 59.7477 116.958C60.2522 117.463 60.5367 118.146 60.5389 118.86Z" fill="#455A64"/>
<path d="M44.1967 118.86C44.1984 119.395 44.0412 119.918 43.745 120.364C43.4488 120.809 43.027 121.157 42.5331 121.362C42.0391 121.568 41.4953 121.622 40.9705 121.518C40.4458 121.414 39.9637 121.157 39.5854 120.778C39.2071 120.4 38.9496 119.918 38.8457 119.393C38.7417 118.868 38.7959 118.325 39.0014 117.831C39.2069 117.337 39.5545 116.915 40 116.619C40.4455 116.323 40.9689 116.165 41.5039 116.167C42.2174 116.169 42.901 116.454 43.4056 116.958C43.9101 117.463 44.1945 118.146 44.1967 118.86Z" fill="#455A64"/>
<path d="M52.0059 118.86C52.0076 119.395 51.8504 119.918 51.5542 120.364C51.258 120.809 50.8362 121.157 50.3423 121.362C49.8483 121.568 49.3045 121.622 48.7797 121.518C48.255 121.414 47.7729 121.157 47.3946 120.778C47.0163 120.4 46.7588 119.918 46.6549 119.393C46.5509 118.868 46.6051 118.325 46.8106 117.831C47.0161 117.337 47.3637 116.915 47.8092 116.619C48.2547 116.323 48.7781 116.165 49.3131 116.167C50.0266 116.169 50.7102 116.454 51.2148 116.958C51.7193 117.463 52.0037 118.146 52.0059 118.86Z" fill="#455A64"/>
<path d="M384.86 322.356C384.86 322.49 302.189 322.591 200.248 322.591C98.3061 322.591 15.6101 322.49 15.6101 322.356C15.6101 322.221 98.264 322.112 200.248 322.112C302.231 322.112 384.86 322.221 384.86 322.356Z" fill="#455A64"/>
<path d="M130.629 222.206L49.6764 229.887L54.8533 284.45L135.806 276.769L130.629 222.206Z" fill="white"/>
<path d="M135.804 276.779C135.804 276.779 135.745 276.426 135.678 275.769C135.611 275.113 135.501 274.086 135.367 272.874C135.106 270.35 134.727 266.614 134.248 261.884C133.305 252.392 131.967 238.793 130.326 222.24L130.654 222.51L49.717 230.268C49.6328 230.353 50.3481 229.486 50.0536 229.864V230.066V230.294L50.0957 230.748L50.1798 231.657L50.3481 233.475C50.4659 234.686 50.5838 235.89 50.6932 237.085C50.9176 239.491 51.142 241.876 51.3664 244.238C51.8096 248.967 52.25 253.618 52.6876 258.19C53.5291 267.32 54.3706 276.097 55.1532 284.412L54.7745 284.1L113.092 278.748L129.787 277.259L134.239 276.872L135.4 276.788C135.535 276.778 135.67 276.778 135.804 276.788C135.685 276.811 135.564 276.828 135.442 276.838L134.323 276.964L129.947 277.427L113.353 279.11L54.8839 284.824H54.5389V284.479C53.7395 276.165 52.9063 267.388 52.0143 258.257C51.5767 253.685 51.1335 249.034 50.6847 244.305C50.4547 241.943 50.2275 239.562 50.0031 237.16C49.8853 235.957 49.7759 234.754 49.6581 233.55L49.4898 231.733L49.3972 230.824V230.369V230.142V230.024V229.94L49.7422 229.519L130.696 221.946H130.999V222.249C132.506 238.894 133.751 252.543 134.618 262.111C135.03 266.816 135.358 270.527 135.577 273.051C135.678 274.271 135.762 275.214 135.813 275.896C135.863 276.577 135.804 276.779 135.804 276.779Z" fill="#455A64"/>
<path d="M130.629 222.207C130.444 222.505 130.233 222.787 129.998 223.048L128.096 225.27L120.952 233.382L97.0021 260.159L96.7917 260.403L96.5224 260.226L94.3681 258.855L62.6765 238.532L53.1253 232.296C52.0482 231.581 51.1982 231 50.5418 230.571C50.241 230.383 49.9591 230.166 49.7003 229.923C50.031 230.068 50.3491 230.239 50.6512 230.437L53.302 232.044L62.9458 238.044L94.7552 258.181L96.9095 259.562L96.4298 259.629L120.548 232.995L127.861 225.051L129.872 222.922C130.102 222.661 130.355 222.421 130.629 222.207Z" fill="#455A64"/>
<path d="M301.756 143.382L290.819 182.082L348.242 198.31L359.179 159.609L301.756 143.382Z" fill="white"/>
<path d="M348.22 198.324C348.22 198.324 348.279 198.063 348.405 197.601C348.532 197.138 348.717 196.422 348.961 195.539C349.457 193.713 350.181 191.079 351.107 187.721L358.95 159.564L359.101 159.833L301.667 143.659L302.004 143.474V143.533V143.617L301.962 143.777L301.869 144.097L301.684 144.745L301.322 146.032L300.599 148.557L299.168 153.606C298.217 156.972 297.283 160.262 296.366 163.502C294.523 169.974 292.764 176.201 291.09 182.1L290.913 181.78L332.206 193.561L343.987 196.969L347.143 197.887L347.985 198.139L348.262 198.232L348.001 198.173L347.16 197.962L344.046 197.121L332.265 193.856L290.753 182.251L290.509 182.184L290.576 181.94C292.259 176.049 293.993 169.814 295.819 163.334C296.728 160.097 297.659 156.798 298.613 153.438L300.043 148.389C300.279 147.547 300.523 146.706 300.767 145.864L301.129 144.577L301.314 143.937L301.398 143.609L301.449 143.449V143.365V143.306L301.794 143.112L359.194 159.387L359.412 159.455L359.345 159.665C355.979 171.446 353.185 181.132 351.25 187.898L349.062 195.648C348.809 196.49 348.607 197.18 348.473 197.66C348.338 198.139 348.22 198.324 348.22 198.324Z" fill="#455A64"/>
<path d="M359.16 159.623C358.958 159.77 358.744 159.9 358.52 160.01L356.635 161.02L349.6 164.672L326.105 176.639L325.895 176.748L325.76 176.554L324.658 175.048L308.374 152.731L303.485 145.932L302.189 144.105C302.024 143.898 301.883 143.672 301.768 143.432C301.957 143.619 302.128 143.822 302.282 144.038L303.67 145.847L308.719 152.537L325.137 174.762L326.248 176.268L325.895 176.184L349.457 164.403L356.568 160.911L358.512 159.985C358.716 159.845 358.933 159.724 359.16 159.623Z" fill="#455A64"/>
<path d="M56.348 134.158C56.348 134.158 60.3115 130.952 66.4462 140.571C69.6658 145.461 72.5558 150.561 75.097 155.836C75.097 155.836 76.6707 157.822 77.9918 156.299C79.313 154.776 80.9287 150.644 83.4701 151.115C86.0115 151.586 87.2317 154.38 87.1475 158.638C87.0634 162.896 87.2317 172.229 87.2485 173.07C87.2654 173.912 87.8544 175.065 88.9316 174.173C90.0087 173.281 95.8657 165.311 99.4758 168.324C103.086 171.337 100.906 183.16 100.696 184.456C100.486 185.752 100.78 186.265 101.411 186.526C102.042 186.787 103.768 183.917 105.526 181.721C107.285 179.525 109.734 177.286 111.653 179.197C113.571 181.107 115.019 189.69 108.127 204.501L104.5 211.157L96.926 211.477C80.6005 211.149 73.4981 206.142 72.6314 203.567C71.7646 200.992 74.8361 199.78 77.5795 199.157C80.3228 198.535 83.6468 198.249 83.6973 197.567C83.7478 196.885 83.4112 196.389 82.1489 196.018C80.8867 195.648 69.3074 192.417 68.1881 187.856C67.0689 183.295 76.7885 181.502 78.0592 180.93C79.3299 180.358 78.5388 179.323 77.8067 178.944C77.0746 178.565 68.7351 174.324 64.8726 172.54C61.01 170.756 58.9819 168.518 59.7141 165.934C60.4462 163.351 64.8221 163.797 66.7744 163.275C68.7267 162.753 67.6159 160.473 67.6159 160.473C63.9874 155.88 60.67 151.051 57.686 146.015C51.7281 136.279 56.4658 134.1 56.4658 134.1" fill="#4CC1FF"/>
<path d="M61.86 142.759C61.8948 142.831 61.9342 142.902 61.9778 142.969L62.3312 143.575L63.7197 145.889C64.9315 147.892 66.6987 150.787 68.9035 154.305C73.3046 161.441 79.473 171.236 86.3229 182.024C93.1729 192.812 99.358 202.608 103.801 209.71C106.014 213.261 107.807 216.131 109.061 218.125L110.491 220.414C110.651 220.667 110.777 220.869 110.87 221.003L111.005 221.205C110.97 221.133 110.93 221.062 110.887 220.995L110.533 220.389L109.145 218.159C107.933 216.156 106.157 213.261 103.961 209.702C99.5516 202.574 93.3917 192.77 86.5417 181.974C79.6917 171.177 73.4982 161.399 69.055 154.296L63.8039 145.881C63.1896 144.896 62.7099 144.122 62.3733 143.592L61.9946 143.003C61.9105 142.826 61.86 142.759 61.86 142.759Z" fill="#263238"/>
<path d="M81.4589 156.972C81.3908 157.143 81.3428 157.321 81.3159 157.502C81.2401 157.847 81.1392 158.344 81.0298 158.967C80.8026 160.204 80.5333 161.92 80.2724 163.831C80.0115 165.741 79.8012 167.39 79.6244 168.703C79.5487 169.284 79.473 169.772 79.4225 170.176C79.3831 170.355 79.3661 170.539 79.372 170.723C79.4427 170.552 79.4935 170.374 79.5234 170.192C79.5992 169.847 79.6918 169.351 79.8011 168.728C80.0199 167.491 80.264 165.766 80.5249 163.864C80.7857 161.962 81.0213 160.305 81.2065 158.992C81.2906 158.42 81.358 157.923 81.4169 157.519C81.4516 157.339 81.4657 157.156 81.4589 156.972Z" fill="#263238"/>
<path d="M78.6735 170.924C78.6735 170.857 75.1644 170.142 70.8137 169.334C66.4631 168.526 62.9119 167.929 62.9035 167.996C62.895 168.063 66.4126 168.779 70.7632 169.586C75.1139 170.394 78.6651 171.034 78.6735 170.924Z" fill="#263238"/>
<path d="M89.9414 187.023C89.7541 187 89.5649 187 89.3776 187.023L87.8629 187.174C86.5838 187.292 84.8166 187.46 82.8643 187.57C80.9119 187.679 79.1363 187.738 77.8572 187.763H76.3341C76.1453 187.76 75.9566 187.774 75.7703 187.805C75.9549 187.849 76.1444 187.869 76.3341 187.864C76.6875 187.864 77.1756 187.906 77.8572 187.915C79.1363 187.915 80.9204 187.915 82.9063 187.805C84.8923 187.696 86.6343 187.494 87.9134 187.326C88.5445 187.241 89.0663 187.157 89.4197 187.098C89.5957 187.09 89.7704 187.065 89.9414 187.023Z" fill="#263238"/>
<path d="M95.2177 174.964C95.1196 175.104 95.0351 175.254 94.9653 175.41L94.3425 176.681C93.8376 177.749 93.1476 179.205 92.3986 180.888C91.6497 182.571 90.9849 184.035 90.5136 185.096C90.278 185.643 90.0929 186.08 89.9751 186.392C89.8981 186.546 89.8415 186.71 89.8068 186.88C89.9125 186.744 89.9976 186.594 90.0592 186.434C90.2107 186.139 90.4211 185.71 90.6819 185.171C91.1953 184.094 91.8853 182.647 92.6343 180.964C93.3832 179.281 94.0396 177.817 94.5108 176.756C94.7465 176.218 94.9316 175.772 95.0578 175.46C95.1337 175.303 95.1875 175.136 95.2177 174.964Z" fill="#263238"/>
<path d="M106.974 187.923C106.842 188.1 106.732 188.292 106.645 188.495C106.435 188.924 106.166 189.471 105.854 190.119C105.19 191.483 104.289 193.385 103.33 195.488C102.371 197.592 101.479 199.511 100.856 200.899C100.57 201.564 100.326 202.119 100.132 202.582C100.037 202.783 99.9578 202.991 99.8965 203.205C100.029 203.025 100.139 202.83 100.225 202.624L101.024 201.009C101.68 199.637 102.581 197.744 103.549 195.631C104.516 193.519 105.4 191.617 106.023 190.229C106.317 189.564 106.553 189.009 106.746 188.546C106.845 188.347 106.921 188.138 106.974 187.923Z" fill="#263238"/>
<path d="M99.9724 202.759C99.7372 202.739 99.5007 202.739 99.2655 202.759L97.3384 202.877C95.7143 202.978 93.4674 203.113 90.985 203.188C88.5025 203.264 86.2472 203.281 84.6147 203.281H82.6876C82.4524 203.262 82.2159 203.262 81.9807 203.281C82.2137 203.326 82.4504 203.348 82.6876 203.348C83.142 203.348 83.7984 203.407 84.6147 203.432C86.2472 203.475 88.5025 203.491 90.9934 203.432C93.4843 203.374 95.7311 203.197 97.3553 203.054C98.1968 202.978 98.8195 202.911 99.2739 202.852C99.5092 202.844 99.7432 202.813 99.9724 202.759Z" fill="#263238"/>
<path d="M350.635 210.064C349.196 209.462 347.649 209.158 346.088 209.169C344.528 209.181 342.986 209.508 341.555 210.131C338.698 211.394 336.168 213.293 334.158 215.685C330.153 220.187 327.923 226.751 326.804 232.675C333.443 233.517 339.931 229.233 343.087 226.869C348.077 223.124 354.818 213.337 350.661 210.038" fill="#4CC1FF"/>
<path d="M314.795 234.989C316.359 234.214 317.689 233.039 318.651 231.583C319.613 230.127 320.173 228.443 320.273 226.7C320.345 224.959 320.07 223.22 319.463 221.586C318.856 219.952 317.93 218.455 316.739 217.183C315.662 215.988 314.215 214.911 312.624 214.986C311.875 215.07 311.162 215.352 310.559 215.805C309.957 216.258 309.487 216.865 309.199 217.561C308.633 218.964 308.447 220.491 308.66 221.988C309.165 227.121 310.596 231.994 314.795 234.989Z" fill="#4CC1FF"/>
<path d="M306.068 251.744C306.068 251.744 306.405 251.433 306.91 250.793C307.415 250.154 308.122 249.219 308.963 248.033C311.219 244.965 313.053 241.608 314.416 238.052C315.76 234.441 316.101 230.532 315.401 226.742C315.17 225.604 314.8 224.499 314.299 223.452C314.164 223.062 313.968 222.695 313.718 222.367C314.265 223.82 314.695 225.314 315.005 226.835C315.54 230.539 315.135 234.319 313.827 237.825C312.468 241.324 310.718 244.658 308.61 247.764C307.684 249.039 306.836 250.368 306.068 251.744Z" fill="#263238"/>
<path d="M344.652 216.939C344.056 217.3 343.493 217.714 342.969 218.176C341.917 219.017 340.445 220.237 338.56 221.769C334.874 224.841 329.842 229.166 324.414 234.072C318.986 238.978 314.164 243.556 310.739 246.914C309.056 248.597 307.659 249.968 306.725 250.936C306.215 251.411 305.748 251.929 305.328 252.484C305.892 252.074 306.421 251.618 306.91 251.121L311.076 247.259C314.576 243.985 319.432 239.483 324.868 234.577C330.304 229.671 335.269 225.32 338.871 222.131L343.138 218.378C343.68 217.939 344.186 217.458 344.652 216.939Z" fill="#263238"/>
<path d="M318.616 244.069C321.683 242.034 325.192 240.759 328.851 240.351C332.509 239.942 336.213 240.412 339.654 241.721C341.387 242.403 343.281 243.648 343.306 245.517C343.331 247.385 341.48 248.697 339.746 249.387C336.096 250.777 332.117 251.054 328.31 250.184C324.503 249.313 321.039 247.335 318.355 244.498" fill="#4CC1FF"/>
<path d="M335.118 245.088C334.788 244.85 334.421 244.668 334.032 244.549C333.602 244.351 333.157 244.185 332.703 244.053C332.103 243.856 331.493 243.691 330.876 243.556C329.278 243.184 327.645 242.978 326.004 242.942C321.964 242.848 317.957 243.692 314.299 245.407C312.816 246.107 311.406 246.953 310.091 247.932C309.582 248.301 309.096 248.7 308.635 249.127C308.27 249.43 307.927 249.759 307.608 250.112C307.078 250.684 306.767 251.012 306.834 251.046C306.902 251.079 308.105 249.884 310.369 248.319C311.698 247.413 313.106 246.627 314.576 245.971C316.378 245.182 318.252 244.571 320.172 244.145C322.111 243.754 324.085 243.557 326.063 243.556C327.669 243.564 329.272 243.716 330.851 244.011C333.485 244.566 335.076 245.239 335.118 245.088Z" fill="#263238"/>
<path d="M313.02 60.8369H100.334V294.047H313.02V60.8369Z" fill="#FAFAFA"/>
<path d="M313.02 294.047C313.02 292.364 312.944 200.201 312.826 60.8369L313.02 61.0305H100.359L100.578 60.8117C100.578 146.647 100.578 226.767 100.578 294.022L100.393 293.836L313.078 294.022L100.393 294.207H100.208V294.022C100.208 226.767 100.208 146.63 100.208 60.8117V60.5929H100.452H313.112H313.306V60.778C313.095 200.209 313.02 292.389 313.02 294.047Z" fill="#263238"/>
<path d="M255.502 245.811H174.228C167.484 245.811 162.017 251.278 162.017 258.022V260.496C162.017 267.239 167.484 272.706 174.228 272.706H255.502C262.245 272.706 267.712 267.239 267.712 260.496V258.022C267.712 251.278 262.245 245.811 255.502 245.811Z" fill="#4CC1FF"/>
<g opacity="0.5">
<path d="M255.502 245.811H174.228C167.484 245.811 162.017 251.278 162.017 258.022V260.496C162.017 267.239 167.484 272.706 174.228 272.706H255.502C262.245 272.706 267.712 267.239 267.712 260.496V258.022C267.712 251.278 262.245 245.811 255.502 245.811Z" fill="black"/>
</g>
<path d="M246.624 245.811H165.35C158.606 245.811 153.139 251.278 153.139 258.022V260.496C153.139 267.239 158.606 272.706 165.35 272.706H246.624C253.367 272.706 258.834 267.239 258.834 260.496V258.022C258.834 251.278 253.367 245.811 246.624 245.811Z" fill="#4CC1FF"/>
<path d="M182.307 261L182.668 260.159C183.2 260.55 183.843 260.762 184.503 260.765C185.345 260.765 185.74 260.462 185.74 260.041C185.74 258.838 182.424 259.629 182.424 257.559C182.424 256.658 183.148 255.876 184.671 255.876C185.325 255.865 185.969 256.037 186.531 256.372L186.203 257.214C185.736 256.936 185.206 256.785 184.663 256.776C183.821 256.776 183.451 257.104 183.451 257.525C183.451 258.711 186.758 257.946 186.758 259.991C186.758 260.883 186.035 261.674 184.503 261.674C183.717 261.698 182.944 261.461 182.307 261Z" fill="#FAFAFA"/>
<path d="M187.743 259.166V256.027H188.778V259.132C188.778 260.277 189.291 260.773 190.192 260.773C191.092 260.773 191.605 260.277 191.605 259.132V256.027H192.624V259.174C192.624 259.821 192.367 260.442 191.909 260.9C191.451 261.358 190.83 261.615 190.183 261.615C189.536 261.615 188.915 261.358 188.458 260.9C188 260.442 187.743 259.821 187.743 259.174V259.166Z" fill="#FAFAFA"/>
<path d="M199.028 260.075C199.028 261.034 198.279 261.589 196.848 261.589H194.071V256.027H196.688C198.026 256.027 198.741 256.591 198.741 257.474C198.749 257.726 198.686 257.974 198.559 258.191C198.433 258.408 198.248 258.585 198.026 258.703C198.324 258.785 198.585 258.965 198.767 259.214C198.948 259.463 199.04 259.766 199.028 260.075ZM195.106 256.868V258.408H196.57C197.294 258.408 197.698 258.156 197.698 257.643C197.698 257.129 197.294 256.868 196.57 256.868H195.106ZM197.984 260.016C197.984 259.46 197.563 259.216 196.781 259.216H195.098V260.824H196.781C197.589 260.782 197.984 260.529 197.984 259.974V260.016Z" fill="#FAFAFA"/>
<path d="M199.667 261L200.02 260.159C200.555 260.55 201.2 260.762 201.863 260.765C202.705 260.765 203.1 260.462 203.1 260.041C203.1 258.838 199.785 259.629 199.785 257.559C199.785 256.658 200.5 255.876 202.032 255.876C202.683 255.865 203.324 256.037 203.883 256.372L203.555 257.214C203.092 256.935 202.563 256.784 202.023 256.776C201.182 256.776 200.811 257.104 200.811 257.525C200.811 258.711 204.119 257.946 204.119 259.991C204.119 260.883 203.395 261.674 201.863 261.674C201.077 261.698 200.305 261.461 199.667 261Z" fill="#FAFAFA"/>
<path d="M204.75 258.804C204.777 258.215 204.978 257.646 205.325 257.169C205.673 256.692 206.154 256.328 206.707 256.122C207.26 255.916 207.861 255.877 208.436 256.01C209.012 256.142 209.535 256.441 209.942 256.869L209.269 257.5C209.082 257.29 208.852 257.123 208.595 257.01C208.338 256.897 208.06 256.84 207.779 256.843C207.259 256.843 206.76 257.05 206.393 257.418C206.025 257.785 205.818 258.284 205.818 258.804C205.818 259.324 206.025 259.823 206.393 260.191C206.76 260.558 207.259 260.765 207.779 260.765C208.061 260.769 208.34 260.711 208.597 260.596C208.854 260.481 209.083 260.312 209.269 260.1L209.942 260.74C209.535 261.167 209.012 261.466 208.436 261.599C207.861 261.731 207.26 261.692 206.707 261.486C206.154 261.28 205.673 260.916 205.325 260.439C204.978 259.962 204.777 259.394 204.75 258.804Z" fill="#FAFAFA"/>
<path d="M214.587 261.589L213.443 259.957H211.97V261.581H210.935V256.027H213.232C214.697 256.027 215.605 256.776 215.605 258.013C215.622 258.394 215.516 258.771 215.302 259.088C215.088 259.404 214.779 259.644 214.419 259.772L215.698 261.598L214.587 261.589ZM213.182 256.868H211.97V259.09H213.182C214.091 259.09 214.562 258.678 214.562 257.979C214.562 257.281 214.091 256.868 213.182 256.868Z" fill="#FAFAFA"/>
<path d="M216.758 256.027H217.785V261.598H216.75L216.758 256.027Z" fill="#FAFAFA"/>
<path d="M224.256 260.075C224.256 261.034 223.507 261.589 222.068 261.589H219.3V256.027H221.908C223.246 256.027 223.97 256.591 223.97 257.474C223.978 257.727 223.914 257.976 223.786 258.193C223.658 258.411 223.471 258.587 223.246 258.703C223.545 258.783 223.808 258.962 223.992 259.212C224.175 259.461 224.269 259.765 224.256 260.075ZM220.31 256.868V258.408H221.774C222.489 258.408 222.901 258.156 222.901 257.643C222.901 257.129 222.489 256.868 221.774 256.868H220.31ZM223.188 260.016C223.188 259.46 222.767 259.216 221.984 259.216H220.301V260.824H221.984C222.834 260.782 223.213 260.529 223.213 259.974L223.188 260.016Z" fill="#FAFAFA"/>
<path d="M229.566 260.723V261.564H225.359V256.027H229.423V256.868H226.394V258.316H229.078V259.157H226.394V260.697L229.566 260.723Z" fill="#FAFAFA"/>
<path d="M268.57 227.878C268.57 227.996 241.524 228.097 208.166 228.097C174.808 228.097 147.754 227.996 147.754 227.878C147.754 227.76 174.792 227.659 208.166 227.659C241.541 227.659 268.57 227.752 268.57 227.878Z" fill="#263238"/>
<path d="M287.471 235.183C287.471 235.3 251.959 235.401 208.166 235.401C164.374 235.401 128.853 235.3 128.853 235.183C128.853 235.065 164.357 234.964 208.166 234.964C251.976 234.964 287.471 235.065 287.471 235.183Z" fill="#263238"/>
<path d="M110.331 69.9085C110.331 70.2647 110.226 70.6129 110.028 70.909C109.83 71.2052 109.549 71.436 109.22 71.5723C108.891 71.7086 108.529 71.7443 108.179 71.6748C107.83 71.6053 107.509 71.4338 107.257 71.1819C107.005 70.9301 106.834 70.6092 106.764 70.2599C106.695 69.9105 106.731 69.5484 106.867 69.2194C107.003 68.8903 107.234 68.6091 107.53 68.4112C107.826 68.2133 108.174 68.1077 108.531 68.1077C108.767 68.1066 109.002 68.1524 109.221 68.2425C109.44 68.3326 109.639 68.4652 109.806 68.6327C109.974 68.8001 110.107 68.9991 110.197 69.2181C110.287 69.4371 110.333 69.6717 110.331 69.9085Z" fill="#E0E0E0"/>
<path d="M114.539 71.7094C115.534 71.7094 116.34 70.9031 116.34 69.9085C116.34 68.9139 115.534 68.1077 114.539 68.1077C113.545 68.1077 112.738 68.9139 112.738 69.9085C112.738 70.9031 113.545 71.7094 114.539 71.7094Z" fill="#E0E0E0"/>
<path d="M122.34 69.9085C122.34 70.2647 122.234 70.6129 122.037 70.909C121.839 71.2052 121.557 71.436 121.228 71.5723C120.899 71.7086 120.537 71.7442 120.188 71.6748C119.839 71.6053 119.518 71.4338 119.266 71.1819C119.014 70.9301 118.842 70.6092 118.773 70.2598C118.704 69.9105 118.739 69.5484 118.875 69.2194C119.012 68.8903 119.243 68.609 119.539 68.4112C119.835 68.2133 120.183 68.1077 120.539 68.1077C121.017 68.1077 121.475 68.2974 121.813 68.6351C122.15 68.9728 122.34 69.4309 122.34 69.9085Z" fill="#E0E0E0"/>
<path d="M297.191 107.626L300.691 95.0028C300.691 95.0028 301.945 89.8779 302.248 88.683C302.644 87.1009 301.533 86.6044 300.885 87.6816C300.632 88.0855 297.864 93.3029 297.864 93.3029C297.864 93.3029 300.069 84.7615 300.153 84.4501C300.868 81.6647 299.134 81.9256 298.63 82.9522C298.125 83.9789 294.986 92.3857 294.986 92.3857C297.923 81.4038 297.005 80.4361 296.172 80.2594C295.339 80.0827 292.806 90.1304 292.806 90.1304C292.14 88.9871 291.236 87.9999 290.155 87.2356C287.505 85.4095 283.078 87.2356 282.868 88.481C282.657 89.7265 284.231 90.0799 284.231 90.0799C287.555 87.934 290.963 90.5343 290.618 93.6984C290.273 96.8625 286.251 96.4334 285.754 94.1781C284.652 89.2215 282.952 90.812 282.952 90.812L284.635 101.752L282.826 107.238" fill="#FFBE9D"/>
<path d="M171.215 159.034L246.826 158.529L248.904 209.937L170.618 209.163L171.215 159.034Z" fill="#455A64"/>
<path d="M171.215 159.034L209.622 127.999L246.826 158.529" fill="#263238"/>
<path d="M170.66 209.163C170.559 209.079 176.618 202.473 184.183 194.411C191.748 186.35 197.959 179.895 198.051 179.979C198.144 180.063 192.093 186.669 184.528 194.731C176.963 202.793 170.71 209.256 170.66 209.163Z" fill="#263238"/>
<path d="M248.921 209.937C248.828 210.021 242.938 203.542 235.768 195.463C228.598 187.384 222.834 180.77 222.943 180.686C223.053 180.602 228.927 187.082 236.096 195.16C243.266 203.239 249.005 209.853 248.921 209.937Z" fill="#263238"/>
<path d="M246.826 158.529L208.84 188.841L171.215 159.034" fill="#263238"/>
<path d="M120.69 101.104H120.943L119.933 97.7377L116.693 84.812C116.549 84.2367 116.625 83.6283 116.907 83.1065C117.189 82.5848 117.656 82.1875 118.216 81.9929L120.547 81.9087L128.525 78.1808C128.872 78.0518 129.243 78.0006 129.612 78.0309C129.98 78.0612 130.338 78.1722 130.659 78.3561C130.98 78.54 131.257 78.7922 131.47 79.0949C131.683 79.3976 131.827 79.7435 131.891 80.1079C132.186 82.4894 133.801 88.8681 135.518 86.6296L135.644 86.4866C138.059 83.1626 141.072 81.3617 142.309 81.4375C142.576 81.4597 142.831 81.5586 143.043 81.7223C143.254 81.886 143.415 82.1075 143.503 82.36C143.592 82.6126 143.606 82.8855 143.544 83.1458C143.481 83.4062 143.345 83.6429 143.151 83.8274C143.027 83.9886 142.873 84.1232 142.696 84.2229C142.605 84.276 142.518 84.335 142.435 84.3996C141.367 85.3433 140.402 86.3984 139.557 87.5469C138.782 88.5595 138.187 89.6982 137.799 90.913C137.369 92.2594 137.058 93.4375 136.814 94.4305L137.437 101.028" fill="#FFBE9D"/>
<path d="M141.998 42.5425C141.998 42.5425 132.665 40.7585 119.277 28.5817C105.888 16.405 99.257 -0.0887958 97.6581 0.0374319C96.0593 0.16366 89.0326 -2.87422 76.5529 26.3517C64.0731 55.5776 69.5262 62.1331 72.1601 62.0068C74.7941 61.8806 92.5754 56.3771 103.81 57.328C115.044 58.2789 129.594 63.7067 129.594 63.7067L141.998 42.5425Z" fill="#455A64"/>
<path d="M162.144 57.715L159.148 63.816L157.81 66.5509C156.924 68.3479 155.386 69.7389 153.509 70.4396C151.632 71.1404 149.558 71.0979 147.712 70.3209L127.633 63.959L138.43 37.2324L158.584 47.2465C160.437 48.1709 161.849 49.7889 162.516 51.749C163.182 53.709 163.049 55.8529 162.144 57.715Z" fill="#263238"/>
<path d="M150.951 67.6703L144.977 80.2931L141.779 79.502L121.582 96.913L115.481 85.7629C115.481 85.7629 127.557 80.15 129.695 75.732C131.832 71.3141 129.19 70.3884 129.19 70.3884L134.761 63.6562L150.951 67.6703Z" fill="#263238"/>
<path d="M77.6384 26.8482C71.0241 42.6772 68.4827 56.6885 71.9582 58.1443C75.4337 59.6001 83.6216 47.9451 90.2359 32.1161C96.8503 16.2872 99.3917 2.27591 95.9162 0.820081C92.4407 -0.635745 84.2528 11.0193 77.6384 26.8482Z" fill="#263238"/>
<path d="M164.096 66.3576L158.66 64.8176L161.815 58.38L165.922 60.7783L164.096 66.3576Z" fill="#455A64"/>
<path d="M132.842 65.9536L147.577 74.7727L149.285 71.1879L132.842 65.9536Z" fill="#455A64"/>
<path d="M161.815 58.38L158.66 64.8176L159.77 65.129L162.303 58.6661L161.815 58.38Z" fill="#455A64"/>
<path d="M158.138 59.9537C158.071 60.1304 155.353 59.1122 152.071 57.7826C148.789 56.453 146.18 55.157 146.264 54.9803C146.348 54.8036 149.058 55.8218 152.34 57.1514C155.622 58.481 158.214 59.777 158.138 59.9537Z" fill="#455A64"/>
<path d="M159.72 56.1245C159.636 56.3013 157.195 55.3419 154.216 53.9955C151.237 52.6491 148.923 51.4036 149.007 51.2269C149.092 51.0502 151.532 52.0095 154.503 53.3644C157.473 54.7192 159.77 55.9562 159.72 56.1245Z" fill="#455A64"/>
<path d="M156.161 63.9674C156.161 64.0599 155.496 63.9674 154.477 63.6476C153.956 63.5045 153.35 63.3194 152.677 63.109C152.003 62.8986 151.305 62.5536 150.556 62.2675C147.569 60.98 145.28 59.7429 145.347 59.5494C145.414 59.3558 147.872 60.3909 150.825 61.6279C151.566 61.9393 152.256 62.2843 152.904 62.5368L154.629 63.2016C155.597 63.5803 156.186 63.8748 156.161 63.9674Z" fill="#455A64"/>
<path d="M91.9358 22.9689C91.9358 22.9689 83.731 18.1975 79.6328 29.2129C75.5346 40.2284 84.0592 41.7768 84.0592 41.7768C87.5553 35.9087 90.207 29.5771 91.9358 22.9689Z" fill="#455A64"/>
<path d="M100.132 9.74866C100.112 10.4506 100.028 11.1492 99.8797 11.8356C99.6609 13.1736 99.358 15.1175 98.9036 17.499C98.6006 18.6772 98.264 19.9647 97.9021 21.3448C97.717 22.0348 97.5319 22.7501 97.3383 23.4822L97.0354 24.6099C96.926 24.9886 96.7829 25.3504 96.6567 25.7375L94.9737 30.4837C94.8306 30.896 94.6791 31.3252 94.5277 31.7291C94.3762 32.133 94.1742 32.5706 93.9975 32.9661L92.8699 35.4907C92.4912 36.3322 92.1125 37.1737 91.7338 38.0153C91.5403 38.4192 91.3804 38.8568 91.1616 39.227C90.9428 39.5973 90.7408 40.0012 90.522 40.3883C89.6805 41.9115 88.839 43.3925 88.0816 44.7979C87.8797 45.1429 87.703 45.4963 87.4926 45.8245L86.853 46.7923L85.616 48.6352L83.4028 51.934C81.9133 53.8442 80.6594 55.3589 79.8011 56.4024C79.3765 56.9647 78.9095 57.4936 78.4042 57.9845C78.746 57.369 79.1431 56.7859 79.5907 56.2425L83.0073 51.6394L85.1447 48.2734C85.5234 47.6759 85.9273 47.0616 86.3313 46.4304L86.9624 45.4627C87.1644 45.1345 87.3327 44.7811 87.5347 44.4276L89.9246 40.0349L90.5473 38.9157C90.7577 38.5286 90.9176 38.0742 91.1111 37.7039L92.2303 35.1793C92.609 34.3378 92.9877 33.4963 93.3495 32.6548C93.5263 32.2424 93.7366 31.8133 93.8881 31.4346L94.3341 30.1975C94.9232 28.565 95.5038 26.9914 96.0172 25.4935C96.1434 25.1148 96.2949 24.7529 96.4127 24.3827C96.5305 24.0124 96.6146 23.6337 96.724 23.2719C96.926 22.5482 97.1195 21.8413 97.3131 21.1596C97.7002 19.7964 98.062 18.5173 98.3987 17.356C98.8867 15.0166 99.2907 13.1484 99.5768 11.7599C99.7102 11.0763 99.8959 10.4039 100.132 9.74866Z" fill="#263238"/>
<path d="M148.595 130.027L140.247 98.3267L119.395 98.8821L125.883 143.121C126.724 152.748 132.379 159.042 141.872 160.574C147.594 161.491 153.796 156.038 158.391 152.512C161.386 150.206 161.917 150.661 165.013 147.85L178.478 138.139L178.806 139.738H178.722L181.002 166.767L208.823 188.647L242.004 162.063L241.246 150.56C241.331 150.56 241.406 150.391 241.246 150.391L240.405 137.365L257.404 156.863C259.403 159.777 262.159 162.091 265.376 163.554C268.593 165.017 272.149 165.575 275.659 165.166C279.17 164.757 282.502 163.398 285.297 161.235C288.092 159.072 290.243 156.187 291.519 152.891L300.271 108.29L281.05 104.158L272.054 136.271L250.604 111.589C238.217 95.4487 223.76 96.8119 223.76 96.8119L197.1 96.3407H197.042C196.251 96.3407 181.356 96.8372 171.257 107.625L148.595 130.027Z" fill="#4CC1FF"/>
<path d="M251.639 113.348C251.639 113.348 251.353 113.213 250.798 113.036C249.965 112.781 249.09 112.689 248.222 112.767C246.852 112.914 245.517 113.296 244.276 113.895C242.803 114.551 241.28 115.578 239.504 116.613C237.606 117.858 235.403 118.556 233.134 118.632C231.872 118.56 230.632 118.276 229.465 117.791C228.27 117.32 227.084 116.739 225.838 116.242C223.243 115.188 220.396 114.919 217.65 115.468C214.789 116.015 212.163 117.623 209.479 119.179C208.149 119.971 206.763 120.663 205.33 121.249C203.926 121.799 202.454 122.156 200.954 122.31C198.096 122.63 195.204 122.231 192.539 121.148C190.188 120.104 187.97 118.782 185.933 117.21C183.989 115.805 182.197 114.467 180.438 113.449C178.859 112.526 177.16 111.826 175.389 111.37C174.054 111.032 172.672 110.918 171.299 111.033C170.133 111.163 168.995 111.485 167.933 111.984L168.127 111.867C168.261 111.791 168.463 111.681 168.741 111.547C169.547 111.202 170.396 110.973 171.266 110.865C172.659 110.72 174.068 110.811 175.431 111.134C177.233 111.57 178.964 112.259 180.573 113.179C182.357 114.189 184.166 115.527 186.118 116.916C188.138 118.459 190.336 119.753 192.665 120.77C196.669 122.377 201.133 122.401 205.154 120.837C206.567 120.258 207.934 119.571 209.243 118.784C211.911 117.235 214.587 115.594 217.549 115.039C220.376 114.491 223.302 114.783 225.964 115.881C228.489 116.899 230.736 118.212 233.117 118.287C235.499 118.363 237.569 117.328 239.328 116.36C241.086 115.392 242.643 114.332 244.149 113.693C245.422 113.099 246.789 112.734 248.189 112.615C249.074 112.548 249.963 112.668 250.798 112.969C251.095 113.054 251.378 113.182 251.639 113.348Z" fill="#FAFAFA"/>
<path d="M267.098 129.135C267 129.546 266.847 129.942 266.643 130.313C266.067 131.383 265.238 132.296 264.228 132.972C262.641 134.063 260.796 134.718 258.876 134.874C256.347 135.038 253.807 134.925 251.302 134.537C248.559 134.26 245.412 133.923 242.323 134.941C240.746 135.537 239.248 136.326 237.863 137.289C236.381 138.328 234.813 139.24 233.176 140.016C229.568 141.582 225.578 142.047 221.706 141.354C219.667 140.994 217.7 140.303 215.883 139.309C214.032 138.316 212.306 137.087 210.522 135.943C208.808 134.75 206.932 133.809 204.952 133.149C203.011 132.592 200.972 132.463 198.977 132.77C195.022 133.351 191.403 134.941 187.852 135.909C186.11 136.434 184.309 136.733 182.491 136.801C180.769 136.868 179.05 136.582 177.442 135.959C174.337 134.68 172.048 132.492 170.02 130.607C168.261 128.821 166.321 127.221 164.231 125.836C162.629 124.828 160.813 124.211 158.929 124.035C157.74 123.927 156.541 124.07 155.411 124.456C154.646 124.742 154.284 124.986 154.267 124.961C154.612 124.721 154.985 124.523 155.378 124.372C156.515 123.94 157.734 123.768 158.946 123.867C160.864 124.014 162.719 124.617 164.357 125.626C166.483 126.998 168.457 128.591 170.247 130.38C172.292 132.257 174.564 134.394 177.594 135.623C179.158 136.234 180.83 136.521 182.508 136.464C184.293 136.388 186.061 136.082 187.768 135.555C189.535 135.059 191.327 134.436 193.17 133.872C195.043 133.19 196.972 132.672 198.935 132.324C200.991 132.001 203.093 132.13 205.095 132.703C207.115 133.38 209.029 134.338 210.783 135.547C212.576 136.708 214.292 137.937 216.102 138.913C217.88 139.885 219.804 140.561 221.799 140.916C225.589 141.6 229.496 141.152 233.033 139.628C236.399 138.164 239.008 135.623 242.222 134.579C243.757 134.097 245.36 133.867 246.969 133.898C248.438 133.924 249.904 134.031 251.361 134.217C253.837 134.616 256.347 134.749 258.851 134.613C260.737 134.477 262.556 133.86 264.136 132.821C265.135 132.166 265.968 131.287 266.568 130.254C266.963 129.555 267.072 129.126 267.098 129.135Z" fill="#FAFAFA"/>
<path d="M291.418 150.56C291.065 150.2 290.672 149.881 290.248 149.609C289.044 148.951 287.646 148.739 286.301 149.011C284.325 149.524 282.5 150.499 280.974 151.856C280.057 152.571 279.106 153.345 278.029 154.044C276.942 154.828 275.696 155.366 274.379 155.619C273.062 155.872 271.706 155.834 270.405 155.508C269.208 155.245 268.03 154.902 266.879 154.481C265.777 154.111 264.742 153.732 263.749 153.472C262.831 153.23 261.893 153.072 260.946 153C259.581 152.855 258.201 153.076 256.949 153.64C256.108 154.069 255.687 154.481 255.653 154.431C255.732 154.323 255.826 154.227 255.931 154.145C256.048 154.033 256.174 153.931 256.31 153.842C256.483 153.706 256.669 153.588 256.865 153.488C258.13 152.835 259.551 152.544 260.972 152.647C261.939 152.7 262.9 152.844 263.841 153.076C264.859 153.328 265.911 153.699 267.005 154.061C269.185 154.767 271.693 155.634 274.301 155.146C275.554 154.879 276.744 154.37 277.802 153.648C278.854 152.967 279.796 152.201 280.73 151.494C282.31 150.117 284.202 149.147 286.242 148.666C287.654 148.409 289.111 148.675 290.341 149.415C290.653 149.633 290.936 149.89 291.182 150.181C291.277 150.297 291.356 150.424 291.418 150.56Z" fill="#FAFAFA"/>
<path d="M295.642 126.374C295.432 126.57 295.186 126.724 294.918 126.829C294.203 127.151 293.437 127.345 292.655 127.401C291.498 127.478 290.337 127.373 289.213 127.09C287.856 126.732 286.524 126.288 285.224 125.76C283.944 125.247 282.621 124.853 281.269 124.582C280.156 124.384 279.016 124.384 277.903 124.582C276.887 124.793 275.925 125.208 275.075 125.802C275.243 125.567 275.454 125.367 275.698 125.213C276.342 124.764 277.068 124.447 277.835 124.279C278.973 124.036 280.146 124.008 281.294 124.195C282.682 124.453 284.04 124.847 285.35 125.373C286.637 125.888 287.948 126.337 289.28 126.719C290.364 127.007 291.483 127.137 292.604 127.107C293.652 127.042 294.68 126.794 295.642 126.374Z" fill="#FAFAFA"/>
<path d="M239.841 158.184C239.13 157.804 238.396 157.467 237.645 157.174C235.553 156.472 233.331 156.242 231.14 156.501C227.906 156.934 224.773 157.931 221.883 159.446C218.517 161.02 215.008 163.123 210.893 164.495C208.895 165.164 206.806 165.524 204.699 165.564C202.736 165.531 200.788 165.196 198.927 164.571C197.258 164.007 195.62 163.355 194.021 162.619C192.514 161.954 191.117 161.306 189.813 160.801C187.789 159.923 185.644 159.356 183.451 159.118L182.416 159.059H181.65C181.44 159.079 181.229 159.079 181.019 159.059C181.226 159.012 181.438 158.984 181.65 158.975L182.408 158.907C182.71 158.907 183.064 158.907 183.459 158.907C185.682 159.075 187.863 159.595 189.922 160.447C191.244 160.944 192.649 161.575 194.13 162.223C195.725 162.942 197.357 163.576 199.019 164.125C200.842 164.726 202.746 165.047 204.666 165.076C206.728 165.033 208.771 164.675 210.725 164.015C214.772 162.703 218.298 160.649 221.664 159.059C224.606 157.536 227.799 156.559 231.089 156.173C233.321 155.937 235.577 156.225 237.678 157.014C238.452 157.297 239.181 157.691 239.841 158.184Z" fill="#FAFAFA"/>
<path d="M124.915 136.675C125.034 136.589 125.168 136.526 125.311 136.49C125.732 136.378 126.178 136.396 126.59 136.54C127.248 136.754 127.832 137.151 128.273 137.685C128.798 138.4 129.244 139.17 129.602 139.982C130.054 140.921 130.686 141.761 131.462 142.456C132.378 143.218 133.437 143.79 134.576 144.139C137.238 144.916 140.047 145.052 142.772 144.535C145.527 144 148.317 143.665 151.12 143.533C153.451 143.482 155.745 144.117 157.717 145.359C159.061 146.182 160.112 147.407 160.722 148.86C160.945 149.393 161.065 149.965 161.075 150.543C160.932 150.004 160.76 149.473 160.562 148.953C159.917 147.57 158.866 146.416 157.549 145.645C155.613 144.476 153.38 143.891 151.12 143.962C148.339 144.115 145.572 144.461 142.839 144.997C140.039 145.527 137.153 145.374 134.424 144.551C133.237 144.164 132.141 143.54 131.201 142.717C130.398 141.984 129.751 141.097 129.299 140.108C128.965 139.307 128.548 138.542 128.054 137.828C127.662 137.315 127.134 136.922 126.531 136.692C126.01 136.501 125.44 136.495 124.915 136.675Z" fill="#FAFAFA"/>
<path d="M143.168 110.966C142.296 110.273 141.299 109.756 140.231 109.443C139.069 109.143 137.862 109.063 136.671 109.207C135.218 109.416 133.802 109.826 132.463 110.428C131.016 111.05 129.678 111.766 128.441 112.372C127.349 112.929 126.225 113.421 125.075 113.844C124.292 114.119 123.487 114.325 122.668 114.459C122.37 114.525 122.064 114.545 121.759 114.517C122.845 114.255 123.916 113.932 124.966 113.55C126.093 113.092 127.197 112.578 128.273 112.01C129.493 111.387 130.839 110.663 132.312 110.024C133.699 109.404 135.171 108.995 136.679 108.812C137.921 108.675 139.177 108.79 140.374 109.149C141.178 109.392 141.929 109.786 142.587 110.31C142.817 110.493 143.014 110.715 143.168 110.966Z" fill="#FAFAFA"/>
<g opacity="0.3">
<path d="M204.102 184.894C214.898 178.633 227.403 171.286 233.639 160.49C237.628 153.572 239.614 145.292 240.371 137.348L241.995 162.046L208.814 188.63L204.102 184.894Z" fill="black"/>
</g>
<g opacity="0.2">
<path d="M176.096 103.191C173.706 112.535 168.536 120.933 161.269 127.275C159.539 128.905 157.51 130.186 155.294 131.045C154.186 131.467 152.999 131.646 151.816 131.569C150.633 131.492 149.48 131.161 148.435 130.599L148.595 130.027L165.426 113.373L176.096 103.191Z" fill="black"/>
</g>
<path d="M150.733 143.264C150.665 143.264 150.935 142.498 151.162 141.269C151.446 139.664 151.461 138.023 151.204 136.414C150.936 134.805 150.395 133.254 149.605 131.828C148.991 130.734 148.494 130.144 148.553 130.077C149.087 130.522 149.535 131.061 149.874 131.668C150.763 133.093 151.361 134.68 151.633 136.338C151.912 137.999 151.855 139.699 151.465 141.337C151.34 142.018 151.092 142.671 150.733 143.264Z" fill="#263238"/>
<path d="M145.911 139.056C147.77 136.613 148.62 133.549 148.284 130.498C148.495 130.907 148.61 131.359 148.621 131.819C148.849 134.052 148.23 136.29 146.887 138.088C146.365 138.745 145.953 139.056 145.911 139.056Z" fill="#263238"/>
<path d="M177.223 121.637C177.341 121.637 178.065 128.369 178.763 136.616C179.462 144.863 179.992 151.628 179.866 151.637C179.74 151.645 179.024 144.905 178.326 136.658C177.627 128.411 177.097 121.645 177.223 121.637Z" fill="#263238"/>
<path d="M222.144 95.8527C222.225 95.9956 222.287 96.1483 222.329 96.3071C222.483 96.7462 222.604 97.1962 222.691 97.6535C223.015 99.3548 222.989 101.104 222.615 102.795C222.065 105.323 220.79 107.636 218.946 109.452C216.603 111.61 213.552 112.84 210.367 112.909C207.182 112.979 204.08 111.884 201.645 109.83C199.725 108.096 198.351 105.842 197.689 103.342C197.243 101.669 197.137 99.9236 197.378 98.2089C197.449 97.7476 197.553 97.292 197.689 96.8456C197.724 96.6855 197.778 96.5301 197.849 96.3828C197.9 96.3828 197.689 97.0392 197.546 98.2342C197.373 99.9297 197.522 101.643 197.984 103.283C198.667 105.704 200.027 107.879 201.905 109.553C204.276 111.52 207.277 112.565 210.356 112.497C213.436 112.429 216.387 111.252 218.668 109.182C220.175 107.714 221.311 105.907 221.981 103.913C222.651 101.918 222.837 99.7929 222.523 97.7124C222.337 96.5006 222.093 95.8695 222.144 95.8527Z" fill="#263238"/>
<path d="M271.036 146.546C270.768 144.8 270.72 143.027 270.893 141.27C270.923 139.501 271.172 137.743 271.633 136.035C271.76 136.035 271.49 138.4 271.33 141.295C271.171 144.19 271.162 146.546 271.036 146.546Z" fill="#263238"/>
<path d="M274.411 148.077C274.101 147.55 273.86 146.984 273.695 146.394C273.218 144.975 272.827 143.528 272.526 142.061C272.222 140.594 272.006 139.11 271.878 137.617C271.794 137 271.794 136.375 271.878 135.758C272.004 135.758 272.256 138.568 272.972 141.976C273.687 145.385 274.537 148.035 274.411 148.077Z" fill="#263238"/>
<path d="M240.388 148.565C240.262 148.565 239.984 143.828 239.765 137.971C239.547 132.114 239.471 127.376 239.589 127.367C239.706 127.359 239.984 132.105 240.203 137.954C240.422 143.802 240.506 148.557 240.388 148.565Z" fill="#263238"/>
<path d="M210.211 111.589C207.172 111.53 204.27 110.313 202.097 108.189C199.923 106.064 198.642 103.19 198.514 100.153C198.321 95.5413 198.161 91.3085 198.161 91.3085C198.161 91.3085 188.508 90.2818 187.928 80.7138C187.347 71.1457 187.928 49.0643 187.928 49.0643C193.26 46.4583 199.192 45.3238 205.109 45.778C211.027 46.2322 216.716 48.2586 221.588 51.6477L223.061 52.6744L222.354 99.7994C222.336 101.372 222.006 102.926 221.385 104.371C220.764 105.816 219.863 107.124 218.735 108.22C217.606 109.315 216.272 110.177 214.809 110.755C213.346 111.334 211.784 111.617 210.211 111.589Z" fill="#FFBE9D"/>
<path d="M198.152 91.1739C202.577 91.0391 206.863 89.5921 210.464 87.0168C210.464 87.0168 207.847 94.0519 198.245 93.6564L198.152 91.1739Z" fill="#EB996E"/>
<path d="M222.371 62.6464C222.531 62.5707 228.859 60.3827 228.968 66.9465C229.078 73.5104 222.472 72.2565 222.455 72.0714C222.438 71.8863 222.371 62.6464 222.371 62.6464Z" fill="#FFBE9D"/>
<path d="M224.416 69.5552C224.416 69.5552 224.534 69.6309 224.727 69.7151C224.998 69.8219 225.299 69.8219 225.569 69.7151C226.259 69.4542 226.823 68.3434 226.831 67.1905C226.84 66.63 226.722 66.0748 226.486 65.5664C226.422 65.3701 226.312 65.1917 226.166 65.0455C226.019 64.8994 225.841 64.7895 225.645 64.7249C225.513 64.6935 225.374 64.7091 225.253 64.7691C225.132 64.829 225.035 64.9294 224.98 65.0531C224.896 65.2382 224.98 65.3644 224.904 65.3812C224.828 65.3981 224.761 65.2719 224.812 64.9942C224.843 64.8327 224.929 64.6871 225.056 64.5818C225.144 64.5116 225.245 64.4598 225.353 64.4295C225.462 64.3991 225.575 64.3908 225.687 64.4051C225.957 64.455 226.211 64.5732 226.423 64.7485C226.635 64.9237 226.798 65.1502 226.899 65.4065C227.189 65.9678 227.337 66.5922 227.328 67.2242C227.328 68.5454 226.646 69.7908 225.704 70.0853C225.529 70.1385 225.344 70.1518 225.164 70.1241C224.983 70.0964 224.811 70.0285 224.66 69.9254C224.433 69.7067 224.399 69.5636 224.416 69.5552Z" fill="#EB996E"/>
<path d="M192.539 63.5469C192.535 63.9041 192.671 64.2489 192.918 64.5071C193.165 64.7652 193.503 64.916 193.86 64.927C194.034 64.9407 194.208 64.9196 194.373 64.8649C194.538 64.8103 194.691 64.7231 194.822 64.6087C194.953 64.4942 195.06 64.3547 195.136 64.1983C195.212 64.042 195.256 63.872 195.266 63.6983C195.271 63.3416 195.136 62.9971 194.891 62.7379C194.646 62.4787 194.309 62.3251 193.953 62.3098C193.779 62.2961 193.603 62.3174 193.437 62.3725C193.271 62.4276 193.117 62.5153 192.986 62.6306C192.854 62.7459 192.747 62.8863 192.67 63.0436C192.593 63.201 192.549 63.3721 192.539 63.5469Z" fill="#263238"/>
<path d="M190.856 62.1752C191.025 62.3603 192.06 61.5861 193.532 61.5945C195.005 61.6029 196.057 62.3351 196.25 62.1499C196.444 61.9648 196.158 61.7544 195.687 61.4094C195.05 60.966 194.291 60.7308 193.515 60.7362C192.748 60.7348 192 60.9764 191.378 61.4262C190.932 61.7712 190.781 62.0994 190.856 62.1752Z" fill="#263238"/>
<path d="M206.677 63.7152C206.672 64.0725 206.808 64.4173 207.055 64.6754C207.302 64.9335 207.641 65.0843 207.998 65.0953C208.172 65.1102 208.348 65.09 208.514 65.0359C208.68 64.9817 208.833 64.8948 208.965 64.7802C209.097 64.6656 209.204 64.5257 209.281 64.3688C209.358 64.2119 209.402 64.0411 209.412 63.8667C209.417 63.5086 209.281 63.1628 209.034 62.9034C208.787 62.6439 208.449 62.4913 208.091 62.4782C207.916 62.4644 207.741 62.4857 207.575 62.5408C207.409 62.5959 207.255 62.6837 207.123 62.7989C206.992 62.9142 206.884 63.0546 206.808 63.212C206.731 63.3693 206.687 63.5404 206.677 63.7152Z" fill="#263238"/>
<path d="M205.347 62.478C205.516 62.6547 206.559 61.8889 208.032 61.8889C209.504 61.8889 210.556 62.6294 210.741 62.4527C210.927 62.276 210.649 62.0488 210.178 61.7122C209.543 61.2652 208.783 61.0296 208.007 61.039C207.239 61.0393 206.492 61.2807 205.869 61.729C205.423 62.0488 205.263 62.3686 205.347 62.478Z" fill="#263238"/>
<path d="M200.004 73.4177C199.225 73.1732 198.42 73.0262 197.605 72.9801C197.227 72.9801 196.873 72.8707 196.814 72.6098C196.78 72.2233 196.866 71.8357 197.058 71.499C197.42 70.5902 197.79 69.6309 198.178 68.6295C199.718 64.5481 200.837 61.1989 200.702 61.1399C200.567 61.081 199.145 64.3293 197.605 68.4107C197.235 69.4205 196.873 70.3798 196.537 71.2971C196.3 71.7495 196.231 72.2714 196.343 72.7697C196.397 72.9026 196.48 73.0216 196.587 73.1178C196.693 73.214 196.82 73.2849 196.957 73.3251C197.166 73.3784 197.381 73.4066 197.597 73.4093C198.396 73.5133 199.204 73.5161 200.004 73.4177Z" fill="#263238"/>
<path d="M204.321 74.4025C204.085 74.4025 204.077 75.9845 202.705 77.1206C201.333 78.2566 199.633 78.0799 199.625 78.3071C199.625 78.4081 200.004 78.6185 200.727 78.6353C201.665 78.6479 202.577 78.329 203.302 77.7349C203.997 77.1643 204.443 76.347 204.548 75.4544C204.624 74.7896 204.447 74.3941 204.321 74.4025Z" fill="#263238"/>
<path d="M204.969 56.6801C205.112 57.0756 206.584 56.8904 208.335 57.1008C210.085 57.3112 211.457 57.774 211.701 57.4206C211.81 57.2439 211.566 56.8652 211.002 56.4781C210.249 56.0043 209.398 55.7074 208.513 55.6098C207.628 55.5121 206.733 55.6162 205.894 55.9143C205.221 56.1751 204.91 56.4865 204.969 56.6801Z" fill="#263238"/>
<path d="M191.403 57.9085C191.664 58.2452 192.682 57.9085 193.928 57.9085C195.173 57.9085 196.183 58.1358 196.452 57.7823C196.553 57.614 196.393 57.2774 195.939 56.9408C195.335 56.5542 194.627 56.3632 193.911 56.3938C193.195 56.4045 192.5 56.64 191.925 57.067C191.428 57.4289 191.294 57.7487 191.403 57.9085Z" fill="#263238"/>
<path d="M183.055 42.736C182.99 42.1407 183.076 41.5384 183.305 40.9852C183.535 40.432 183.9 39.9458 184.368 39.5719C184.851 39.2225 185.442 39.0553 186.037 39.0999C186.631 39.1446 187.191 39.3982 187.616 39.8159C187.528 39.4151 187.524 39 187.606 38.5977C187.687 38.1953 187.852 37.8145 188.09 37.4799C188.328 37.1452 188.634 36.8642 188.987 36.6549C189.34 36.4456 189.733 36.3127 190.141 36.2647C191.706 36.1637 193.044 37.3503 194.551 37.7626C196.058 38.07 197.625 37.8841 199.019 37.2325C200.441 36.6602 201.771 35.8692 203.227 35.3475C206.262 34.2375 209.612 34.3707 212.55 35.718C215.487 37.0654 217.774 39.518 218.912 42.5424C219.983 42.2799 221.108 42.3485 222.139 42.7391C223.17 43.1298 224.058 43.8242 224.685 44.7304C225.908 46.5854 226.397 48.8292 226.057 51.025C225.849 52.4945 225.479 53.9366 224.955 55.3251C224.955 55.4513 224.955 55.5692 224.955 55.6954C224.854 60.9633 224.256 67.1569 222.009 67.1905C218.088 67.2494 219.022 59.8609 219.022 59.8609C214.208 58.0096 216.001 50.7977 214.814 49.7038C213.628 48.6098 211.095 46.0684 201.022 51.2185C197.109 53.2129 191.908 53.154 189.064 52.506C188.982 52.4941 188.9 52.4772 188.82 52.4555H188.761H188.677C187.764 52.2269 186.893 51.8579 186.093 51.3616C185.148 50.8184 184.402 49.9867 183.964 48.9885C183.755 48.4899 183.695 47.9412 183.792 47.4092C183.889 46.8772 184.139 46.385 184.511 45.9927C183.715 45.0745 183.209 43.9414 183.055 42.736Z" fill="#263238"/>
</svg>
