<svg width="778" height="573" viewBox="0 0 778 573" fill="none" xmlns="http://www.w3.org/2000/svg">
<path d="M0.148047 429.17C0.13005 428.828 -1.79561 395.005 8.78654 357.195C15.0045 334.979 24.2638 315.75 36.3038 300.039C51.3671 280.397 70.8397 266.243 94.1907 257.974C135.278 243.424 172.198 248.94 204.763 253.807C253.832 261.141 292.588 266.936 323.57 203.796C326.17 198.506 328.672 193.359 331.092 188.383C377.137 93.8135 396.196 54.672 524.505 70.9765C574.131 77.2841 611.115 70.0767 634.421 49.5522C658.41 28.4248 658.707 0.287937 658.707 0H659.607C659.607 0.287937 659.328 28.8117 635.033 50.209C611.529 70.9135 574.302 78.2019 524.388 71.8583C462.263 63.967 424.334 68.9969 397.564 88.6936C371.189 108.093 354.713 141.935 331.902 188.77C329.473 193.755 326.971 198.892 324.38 204.192C310.036 233.427 293.074 249.911 271.01 256.066C251.06 261.636 228.51 258.261 204.628 254.689C172.162 249.839 135.368 244.333 94.4876 258.81C41.9818 277.4 19.3777 322.696 9.65039 357.429C-0.895771 395.095 1.0209 428.774 1.03889 429.116L0.139049 429.17H0.148047Z" fill="white"/>
<path d="M43.0263 439.978C42.9812 439.654 38.6676 406.821 46.2052 369.606C50.6359 347.735 58.2364 328.646 68.7908 312.869C81.9928 293.132 99.8776 278.56 121.959 269.56C161.367 253.486 198.658 259.237 231.564 264.322C278.609 271.585 319.241 277.858 351.094 220.122C359.613 204.669 367.105 190.665 374.355 177.12C376.714 172.719 379.01 168.416 381.262 164.222C398.849 131.435 413.294 109.78 435.06 96.1543C458.528 81.466 490.065 76.7319 537.308 80.8C636.215 89.3232 656.306 36.5733 663.88 16.719C665.951 11.2739 667.095 8.27681 668.887 8.51981L668.77 9.41083C667.662 9.27583 666.383 12.6959 664.726 17.043C660.917 27.0331 653.839 45.6274 635.359 60.3067C612.873 78.181 579.85 85.3811 537.236 81.709C441.445 73.4469 416.392 100.645 382.054 164.663C379.803 168.857 377.507 173.151 375.147 177.561C367.898 191.106 360.405 205.119 351.877 220.572C319.728 278.857 278.807 272.539 231.429 265.231C198.64 260.173 161.484 254.431 122.301 270.415C72.6902 290.656 54.0219 335.63 47.0967 369.804C39.5862 406.866 43.8818 439.546 43.9268 439.879L43.0353 439.996L43.0263 439.978Z" fill="white"/>
<path d="M85.8114 451.586C85.7394 451.271 79.0276 419.488 83.5081 382.911C86.1442 361.41 92.0643 342.483 101.115 326.641C112.443 306.832 128.718 291.835 149.501 282.075C186.983 264.469 223.061 270.254 257.942 275.84C304.88 283.361 345.421 289.847 377.99 237.41C390.442 217.367 400.752 199.698 409.533 183.407C441.338 124.177 460.528 88.436 549.176 91.7016C630.761 94.7242 653.398 53.7475 665.562 31.7433C670.132 23.476 673.173 18.0245 677.393 18.6002L677.276 19.4908C673.641 19.005 670.744 24.2407 666.353 32.1841C654.522 53.5766 632.849 92.7631 557.57 92.7631C554.835 92.7631 552.028 92.7091 549.14 92.6012C461.05 89.3536 441.968 124.915 410.325 183.838C401.544 200.148 391.215 217.834 378.755 237.886C363.729 262.077 346.095 275.436 323.243 279.943C302.901 283.955 280.993 280.446 257.798 276.731C223.043 271.163 187.109 265.414 149.879 282.893C103.212 304.807 88.5105 349.428 84.3988 383.001C79.9363 419.434 86.6211 451.091 86.6931 451.406L85.8114 451.595V451.586Z" fill="white"/>
<path d="M128.601 462.421C128.511 462.115 119.367 431.365 120.78 395.373C121.608 374.216 125.865 355.41 133.434 339.485C142.903 319.553 157.609 304.088 177.131 293.532C212.547 274.383 249.16 280.481 284.558 286.381C329.55 293.874 372.05 300.963 405.279 253.55C419.634 233.078 429.795 216.973 438.229 201.346C441.694 194.897 444.943 188.601 448.075 182.522C473.159 133.866 491.285 98.7123 561.676 101.198C629.439 103.603 652.084 68.404 667.078 45.1211C674.171 34.1056 679.301 26.1345 686.672 27.1522L686.555 28.0439C679.742 27.1252 674.747 34.8712 667.834 45.6074C660.346 57.2264 651.031 71.6915 634.839 83.2834C615.66 97.001 591.701 103.153 561.64 102.099C491.816 99.64 473.807 134.578 448.876 182.936C445.735 189.025 442.495 195.321 439.021 201.779C430.569 217.433 420.39 233.564 406.017 254.073C372.455 301.945 329.685 294.82 284.405 287.272C249.151 281.4 212.7 275.32 177.554 294.325C133.713 318.031 122.967 362.381 121.671 395.409C120.267 431.248 129.366 461.854 129.456 462.16L128.592 462.421H128.601Z" fill="white"/>
<path d="M171.312 473.247C171.195 472.95 159.614 443.327 157.949 408.015C156.976 387.258 159.56 368.617 165.648 352.612C173.257 332.585 186.395 316.67 204.684 305.293C237.866 284.653 275.12 291.107 311.148 297.354C356.19 305.158 398.729 312.539 432.533 270.08C447.913 250.763 458.512 235.245 466.895 219.781C472.388 209.6 477.053 199.852 481.573 190.428C491.641 169.41 500.339 151.263 513.793 137.428C528.507 122.297 547.669 114.016 574.089 111.37C628.694 105.888 650.783 77.7951 666.911 57.2723C677.104 44.3105 684.47 34.9492 695.951 36.5154L695.834 37.4065C684.857 35.9123 677.627 45.1026 667.622 57.8304C651.396 78.4702 629.163 106.743 574.179 112.261C517.296 117.968 502.654 148.527 482.384 190.815C477.863 200.248 473.19 210.006 467.688 220.204C459.286 235.722 448.661 251.276 433.244 270.638C417.909 289.892 399.179 300.612 375.965 303.411C355.245 305.905 332.75 302.007 311.004 298.236C275.147 292.016 238.065 285.589 205.17 306.049C164.144 331.567 157.345 375.547 158.867 407.943C160.515 443.111 172.05 472.617 172.167 472.914L171.33 473.247H171.312Z" fill="white"/>
<path d="M214.555 484.846C214.411 484.558 200.397 456.057 195.663 421.383C192.882 401.001 193.8 382.493 198.39 366.391C204.142 346.234 215.689 329.798 232.719 317.534C263.474 295.404 301.449 302.279 338.181 308.929C381.267 316.723 425.812 324.788 460.051 287.033C476.288 269.129 487.314 254.171 495.784 238.546C503.407 224.417 508.979 210.685 514.37 197.403C529.482 160.153 541.417 130.732 586.637 121.695C629.481 113.125 649.714 89.4451 665.97 70.4234C678.751 55.4655 688.849 43.6614 705.231 45.8961L705.114 46.7881C689.218 44.6166 679.255 56.2585 666.663 71.0001C650.317 90.1299 629.976 113.945 586.817 122.569C542.074 131.516 530.22 160.738 515.207 197.736C509.807 211.036 504.226 224.787 496.585 238.97C488.07 254.657 477.017 269.669 460.726 287.628C426.145 325.752 381.348 317.643 338.028 309.803C301.485 303.189 263.69 296.35 233.25 318.255C195.06 345.738 192.216 389.422 196.554 421.23C201.27 455.759 215.221 484.152 215.365 484.432L214.555 484.837V484.846Z" fill="white"/>
<path d="M257.388 495.672C257.226 495.402 240.804 468.129 233.001 434.185C228.417 414.233 227.662 395.901 230.763 379.712C234.646 359.444 244.597 342.49 260.354 329.327C288.517 305.8 325.587 312.805 364.832 320.215C407.898 328.345 452.429 336.755 486.983 303.585C503.99 287.252 515.424 272.891 524.062 257.008C533.356 239.811 538.786 222.415 544.026 205.587C554.39 172.363 563.334 143.677 598.508 131.927C630.383 121.284 647.776 101.593 663.111 84.2157C678.878 66.3611 691.336 52.2611 713.737 55.3224L713.62 56.2138C691.678 53.2156 679.372 67.1535 663.785 84.8099C649.134 101.404 630.895 122.059 598.787 132.782C564.045 144.379 555.164 172.867 544.871 205.857C539.613 222.721 534.174 240.162 524.835 257.44C516.161 273.404 504.673 287.837 487.594 304.233C452.708 337.727 407.943 329.273 364.653 321.097C325.623 313.723 288.75 306.763 260.921 330.02C225.603 359.525 226.718 402.834 233.864 433.96C241.621 467.769 257.981 494.934 258.143 495.204L257.379 495.672H257.388Z" fill="white"/>
<path d="M299.73 506.498C299.541 506.237 280.691 480.255 269.826 447.067C263.435 427.554 261.014 409.408 262.625 393.124C264.641 372.738 273.013 355.249 287.515 341.125C313.053 316.258 351.13 323.744 391.439 331.669C434.584 340.153 479.197 348.925 514.051 320.127C531.838 305.436 543.721 291.653 552.569 275.459C563.128 256 567.449 235.137 571.617 214.949C577.855 184.802 583.742 156.319 610.81 142.186C632.675 130.769 647.024 114.099 659.68 99.3985C677.567 78.6166 693.023 60.6687 723.016 64.771L722.899 65.6617C693.383 61.6313 678.089 79.4083 660.374 99.9922C647.663 114.755 633.251 131.498 611.233 142.995C584.543 156.931 578.962 183.902 572.508 215.138C568.322 235.38 563.992 256.324 553.361 275.891C544.459 292.202 532.514 306.056 514.627 320.829C479.44 349.896 434.62 341.08 391.268 332.56C351.193 324.679 313.332 317.239 288.145 341.772C255.658 373.413 260.717 416.335 270.682 446.77C281.502 479.823 300.279 505.706 300.468 505.967L299.739 506.498H299.73Z" fill="white"/>
<path d="M342.864 518.097C342.648 517.854 321.447 493.166 307.543 460.718C299.372 441.639 295.287 423.65 295.395 407.237C295.53 386.691 302.279 368.594 315.454 353.441C338.23 327.24 377.394 335.29 418.861 343.807C461.957 352.666 506.52 361.814 541.517 337.153C559.785 324.287 572.456 310.674 581.401 294.315C592.838 273.282 595.196 249.09 597.473 225.69C600.307 196.608 602.98 169.13 623.309 152.662C636.366 142.074 646.193 129.334 655.687 117.008C675.593 91.1773 692.781 68.8665 732.296 74.2777L732.179 75.169C693.177 69.8479 676.142 91.9516 656.407 117.558C646.877 129.919 637.023 142.713 623.876 153.365C603.844 169.598 601.18 196.888 598.373 225.78C596.087 249.27 593.72 273.553 582.192 294.747C573.175 311.232 560.415 324.936 542.039 337.892C506.718 362.777 461.966 353.585 418.681 344.689C377.484 336.226 338.563 328.231 316.137 354.026C286.621 387.969 295.629 430.583 308.38 460.358C322.221 492.68 343.341 517.26 343.548 517.503L342.864 518.088V518.097Z" fill="white"/>
<path d="M385.917 528.914C385.684 528.68 362.191 505.392 345.294 473.765C335.361 455.172 329.612 437.361 328.208 420.846C326.454 400.166 331.537 381.465 343.324 365.265C363.298 337.802 403.705 346.474 446.479 355.658C487.453 364.446 533.879 374.413 568.942 353.724C587.909 342.534 601.018 329.527 610.204 312.787C622.216 290.766 622 263.439 621.793 237.011C621.568 208.64 621.352 181.843 635.793 163.026C641.92 155.038 647.336 146.231 652.582 137.713C671.872 106.365 690.101 76.7526 741.575 83.7868L741.458 84.6773C690.542 77.7241 672.484 107.093 653.347 138.19C648.092 146.726 642.658 155.56 636.503 163.583C622.252 182.149 622.468 208.802 622.693 237.011C622.908 263.556 623.124 291 610.996 313.227C601.738 330.111 588.52 343.226 569.401 354.506C534.041 375.375 487.426 365.372 446.29 356.548C403.804 347.436 363.676 338.819 344.044 365.804C317.636 402.1 330.575 444.305 346.068 473.333C362.902 504.843 386.304 528.051 386.538 528.285L385.909 528.923L385.917 528.914Z" fill="white"/>
<path d="M428.84 539.749C428.579 539.533 402.877 517.639 383.024 486.788C371.352 468.649 363.945 451.013 361.012 434.359C357.34 413.5 360.715 394.154 371.037 376.834C388.19 348.062 428.102 357.029 474.304 367.417C515.071 376.582 561.283 386.97 596.308 370.01C615.972 360.486 629.525 348.062 638.956 330.904C651.402 308.155 648.19 277.502 645.085 247.857C642.295 221.255 639.415 193.735 648.244 172.787C649.783 169.132 651.312 165.324 652.797 161.651C660.393 142.782 668.249 123.274 682.549 109.572C698.748 94.0435 721.093 88.462 750.854 92.5311L750.737 93.4223C684.88 84.42 668.996 123.85 653.643 161.984C652.158 165.666 650.629 169.483 649.081 173.138C640.333 193.879 643.204 221.273 645.985 247.758C649.108 277.538 652.338 308.326 639.757 331.327C630.236 348.656 616.557 361.197 596.713 370.811C561.4 387.907 515.026 377.482 474.115 368.291C428.246 357.983 388.64 349.08 371.82 377.293C348.682 416.093 365.556 457.99 383.789 486.302C403.579 517.036 429.173 538.849 429.434 539.065L428.849 539.749H428.84Z" fill="white"/>
<path d="M471.43 550.575C471.151 550.368 443.386 529.928 420.645 499.929C407.279 482.294 398.236 464.848 393.769 448.086C388.178 427.088 389.778 407.116 398.524 388.699C412.825 358.609 454.199 368.366 502.108 379.679C542.494 389.211 588.254 400.011 623.121 386.603C643.165 378.888 657.547 366.721 667.093 349.401C679.937 325.993 673.268 291.372 666.805 257.892C661.835 232.101 656.684 205.429 660.109 183.253C663.363 162.201 668.01 138.38 682.14 121.995C697.942 103.677 723.199 97.1848 759.36 102.122L759.243 103.012C723.406 98.1111 698.409 104.514 682.823 122.58C668.846 138.785 664.226 162.462 660.999 183.388C657.601 205.42 662.724 232.011 667.686 257.721C674.176 291.354 680.881 326.137 667.875 349.833C658.23 367.35 643.696 379.652 623.444 387.44C588.326 400.947 542.413 390.111 501.91 380.551C454.379 369.329 413.328 359.644 399.342 389.085C379.729 430.344 400.492 471.836 421.355 499.371C444.015 529.271 471.691 549.649 471.96 549.847L471.43 550.575Z" fill="white"/>
<path d="M514.017 562.174C513.72 561.985 483.926 542.957 458.308 513.754C443.248 496.589 432.555 479.315 426.515 462.41C418.954 441.25 418.72 420.621 425.822 401.089C437.298 369.511 480.442 380.226 530.4 392.641C570.357 402.565 615.652 413.819 650.334 403.716C671.074 397.68 685.926 386.11 695.737 368.359C709.077 344.167 698.582 306.058 687.474 265.717C680.741 241.291 673.792 216.037 672.496 193.906C671.173 171.18 672.028 142.886 690.589 125.72C706.179 111.307 731.707 106.746 768.64 111.784L768.523 112.675C731.869 107.673 706.584 112.153 691.21 126.377C676.942 139.575 671.452 160.375 673.405 193.852C674.692 215.893 681.632 241.102 688.347 265.483C699.509 306.004 710.05 344.275 696.53 368.791C686.601 386.767 671.569 398.471 650.586 404.58C615.67 414.746 570.258 403.464 530.184 393.514C480.649 381.207 437.865 370.582 426.668 401.395C410.753 445.182 435.462 486.341 458.983 513.151C484.52 542.256 514.197 561.211 514.494 561.4L514.008 562.156L514.017 562.174Z" fill="white"/>
<path d="M557.046 573C556.73 572.829 525.059 555.18 496.654 526.767C479.959 510.063 467.629 492.963 460.015 475.935C450.483 454.614 448.35 433.356 453.678 412.746C455.649 405.123 459.555 399.687 465.613 396.132C484.162 385.25 519.083 394.431 559.512 405.051C622.855 421.692 694.649 440.556 724.53 386.573C738.408 361.49 722.577 316.859 705.819 269.609C687.503 217.967 668.558 164.57 690.851 137.165C704.802 120.011 733.287 114.638 777.919 120.74L777.802 121.631C733.503 115.583 705.288 120.848 691.553 137.732C669.584 164.741 688.439 217.904 706.674 269.312C723.504 316.76 739.407 361.58 725.322 387.014C711.84 411.378 688.637 423.15 654.427 423.132C624.583 423.078 591.39 414.357 559.296 405.924C519.056 395.349 484.297 386.222 466.081 396.905C460.24 400.335 456.477 405.582 454.569 412.962C442.617 459.195 471.202 500.01 497.293 526.11C525.617 554.442 557.189 572.037 557.504 572.208L557.072 573H557.046Z" fill="white"/>
</svg>
