<svg width="27" height="44" viewBox="0 0 27 44" fill="none" xmlns="http://www.w3.org/2000/svg">
<path d="M6.17664 35.4327C7.45662 35.1193 9.16822 34.8208 11.1924 34.8208C13.2165 34.8208 14.9133 35.1193 16.1783 35.4327C14.5263 37.9402 12.8742 40.4477 11.2073 42.9701L6.17664 35.4327Z" fill="black"/>
<path d="M1.6669 22.9552C1.6669 22.9552 1.5776 22.8657 1.53295 22.8358C1.29482 22.6418 1.02691 22.5373 0.729242 22.4925C0.580407 22.4627 0.416689 22.4627 0.267854 22.4478C0.178553 22.4478 0.119019 22.3731 0.119019 22.2836C0.119019 21.5075 0.119019 20.7164 0.119019 19.9403C0.119019 19.8507 0.178553 19.7761 0.282737 19.7761C0.625058 19.7761 0.937611 19.8358 1.23528 20.0149C1.399 20.1194 1.54783 20.2537 1.65202 20.4179C1.6669 20.4478 1.68179 20.4776 1.68179 20.5224C1.68179 21.3284 1.68179 22.1493 1.68179 22.9552C1.68179 22.9552 1.68179 22.9552 1.68179 22.9702L1.6669 22.9552Z" fill="url(#paint0_linear_283_18)"/>
<path d="M1.90503 22.9552V22.8955C1.90503 22.1194 1.90503 21.3582 1.90503 20.5821C1.90503 20.4627 1.9348 20.3881 2.00921 20.2985C2.21758 20.0299 2.51525 19.8806 2.84269 19.8209C2.99152 19.791 3.14036 19.7761 3.2892 19.7761C3.39338 19.7761 3.4678 19.8358 3.4678 19.9552C3.4678 20.7313 3.4678 21.5075 3.4678 22.2836C3.4678 22.3881 3.40826 22.4478 3.30408 22.4627C3.02129 22.4627 2.75339 22.5075 2.48549 22.6119C2.292 22.6866 2.09851 22.806 1.94968 22.9552C1.94968 22.9552 1.9348 22.9702 1.90503 22.9851V22.9552Z" fill="url(#paint1_linear_283_18)"/>
<path d="M7.56084 20.4776C7.56084 20.4776 7.44178 20.3582 7.36736 20.3134C7.05481 20.0596 6.68272 19.9104 6.28086 19.8358C6.07249 19.8059 5.86413 19.791 5.65576 19.7761C5.53669 19.7761 5.44739 19.6716 5.44739 19.5522C5.44739 18.4925 5.44739 17.4179 5.44739 16.3582C5.44739 16.2238 5.53669 16.1343 5.67064 16.1343C6.13203 16.1343 6.56365 16.2238 6.9655 16.4626C7.20364 16.597 7.38224 16.7761 7.53108 17.0149C7.56084 17.0596 7.56084 17.1044 7.56084 17.1492C7.56084 18.2537 7.56084 19.3582 7.56084 20.4626C7.56084 20.4626 7.56084 20.4626 7.56084 20.4776Z" fill="url(#paint2_linear_283_18)"/>
<path d="M7.8883 20.4776V20.4029C7.8883 19.3582 7.8883 18.2985 7.8883 17.2537C7.8883 17.1044 7.93295 16.985 8.02225 16.8656C8.31992 16.5074 8.70689 16.2985 9.15339 16.2089C9.34688 16.1641 9.55525 16.1492 9.76362 16.1343C9.91245 16.1343 10.0018 16.2238 10.0018 16.3731C10.0018 17.4328 10.0018 18.4925 10.0018 19.5522C10.0018 19.7014 9.91245 19.791 9.76362 19.791C9.37665 19.791 9.00456 19.8507 8.64736 19.985C8.37945 20.0895 8.12643 20.2388 7.91806 20.4477C7.91806 20.4477 7.8883 20.4776 7.87341 20.4925L7.8883 20.4776Z" fill="url(#paint3_linear_283_18)"/>
<path d="M2.72365 6.38797C2.72365 6.38797 2.78318 6.4029 2.81295 6.4029C3.09573 6.47752 3.28922 6.73126 3.25945 7.01484C3.22968 7.31335 2.99155 7.53723 2.69388 7.53723C2.39621 7.53723 2.15807 7.3432 2.09854 7.05961C2.039 6.74618 2.24737 6.44767 2.55993 6.38797C2.57481 6.38797 2.58969 6.38797 2.60458 6.37305H2.70876L2.72365 6.38797Z" fill="#41B9E5"/>
<path d="M2.08374 12.4926C2.08374 12.4926 2.15816 12.3881 2.21769 12.3732C2.24746 12.3582 2.27723 12.3433 2.30699 12.3433C2.97675 12.1791 3.63162 12 4.30138 11.8358C4.34603 11.8358 4.39068 11.806 4.42045 11.806C4.5544 11.7761 4.6437 11.806 4.68835 11.9403C4.733 12.0746 4.8223 12.1642 4.92649 12.2537C5.00091 12.3135 5.09021 12.3284 5.17951 12.3433C5.20928 12.3433 5.25393 12.3433 5.26881 12.3881C5.26881 12.4926 5.26881 12.597 5.26881 12.6866C5.26881 12.7015 5.26881 12.7164 5.25393 12.7314C4.89672 12.7314 4.61394 12.5672 4.42045 12.2687C4.39068 12.2239 4.3758 12.2239 4.33115 12.2388C3.69116 12.403 3.03628 12.5672 2.38141 12.7314C2.21769 12.7761 2.17304 12.7612 2.08374 12.6269V12.5224V12.4926Z" fill="#1F90CF"/>
<path d="M5.2539 12.3434C5.2539 12.3434 5.13483 12.3434 5.09018 12.3135C4.89669 12.2538 4.76274 12.1344 4.68832 11.9553C4.62879 11.8061 4.55437 11.7613 4.40554 11.8061C3.69113 11.9852 2.96184 12.1792 2.24743 12.3583C2.24743 12.3583 2.24743 12.3583 2.23254 12.3583C2.27719 12.2389 2.29208 12.1195 2.33673 12.0001C2.3665 11.8807 2.38138 11.7613 2.44091 11.6419C2.4558 11.5971 2.48556 11.5822 2.53021 11.5523C2.7237 11.4478 2.93207 11.3732 3.14044 11.2986C3.33392 11.224 3.52741 11.1792 3.73578 11.1344C3.95903 11.0896 4.18228 11.0747 4.40554 11.0747C4.45019 11.0747 4.50972 11.1046 4.55437 11.0747C4.64367 11.0747 4.71809 11.0896 4.80739 11.1046C4.97111 11.1344 5.13483 11.1941 5.26878 11.2837C5.26878 11.2837 5.26878 11.2837 5.26878 11.2986C5.26878 11.3434 5.26878 11.3881 5.26878 11.4478C5.26878 11.7016 5.26878 11.9553 5.26878 12.209C5.26878 12.2389 5.26878 12.2687 5.26878 12.2986C5.26878 12.2986 5.26878 12.2986 5.26878 12.3135L5.2539 12.3434Z" fill="url(#paint4_linear_283_18)"/>
<path d="M5.25391 12.3432C5.25391 12 5.25391 11.6567 5.25391 11.3134C5.29856 11.2537 5.35809 11.2537 5.41762 11.2238C5.58134 11.1492 5.74506 11.1194 5.92366 11.0895C5.93855 11.0895 5.95343 11.0895 5.9832 11.0895C5.99808 11.1044 6.02785 11.0895 6.04273 11.0895C6.23622 11.0597 6.4297 11.0895 6.62319 11.1194C6.90597 11.1492 7.15899 11.2238 7.4269 11.3134C7.62038 11.3731 7.81387 11.4626 7.99247 11.5522C8.052 11.5821 8.09666 11.6268 8.11154 11.7015C8.15619 11.8955 8.21572 12.0895 8.26037 12.2835C8.26037 12.3134 8.26037 12.3283 8.29014 12.3582C8.26037 12.388 8.23061 12.3582 8.20084 12.3582C7.5162 12.1791 6.81667 12 6.13203 11.8358C6.11715 11.8358 6.08738 11.8358 6.0725 11.8209C5.96831 11.8059 5.8939 11.8358 5.86413 11.9403C5.8046 12.1194 5.68553 12.2537 5.50693 12.3134C5.43251 12.3432 5.35809 12.3731 5.26879 12.3432H5.25391Z" fill="url(#paint5_linear_283_18)"/>
<path d="M5.25391 12.3434C5.50693 12.3434 5.73018 12.1941 5.81948 11.9553C5.87901 11.8061 5.93855 11.7762 6.08738 11.8061C6.81667 11.9852 7.54597 12.1792 8.27526 12.3583C8.37944 12.4031 8.42409 12.4777 8.40921 12.5673C8.40921 12.6419 8.33479 12.7165 8.24549 12.7314C8.21572 12.7314 8.17107 12.7314 8.14131 12.7314C7.47155 12.5673 6.81667 12.3881 6.1618 12.224C6.11715 12.224 6.10227 12.224 6.08738 12.2538C5.90878 12.5523 5.62599 12.7016 5.28367 12.7314H5.25391C5.25391 12.612 5.25391 12.4926 5.25391 12.3732V12.3434Z" fill="#1F90CF"/>
<path d="M5.96824 11.0894C5.86405 11.1044 5.74499 11.1342 5.6408 11.1641C5.50685 11.1939 5.3729 11.2536 5.25383 11.3133C5.25383 11.3133 5.22406 11.2238 5.25383 11.1939C5.3729 11.0596 5.49197 10.9402 5.6408 10.8506C5.87894 10.7014 6.14684 10.6118 6.42963 10.5521C6.66776 10.5074 6.9059 10.4924 7.15892 10.4924C7.38217 10.4924 7.62031 10.5223 7.84356 10.5521C7.93286 10.5521 7.99239 10.6118 8.00728 10.7014C8.02216 10.776 8.00728 10.8506 7.93286 10.8954C7.87333 10.9402 7.79891 10.9402 7.72449 10.9253C7.41194 10.8656 7.11427 10.8656 6.80171 10.8805C6.51893 10.8954 6.23614 10.97 5.96824 11.0894Z" fill="#1F90CF"/>
<path d="M5.25387 11.1939C5.25387 11.1939 5.25387 11.2835 5.25387 11.3133C5.16457 11.2835 5.09016 11.2387 5.01574 11.2088C4.88179 11.1641 4.76272 11.1342 4.62877 11.1193C4.599 11.1193 4.56923 11.1044 4.53947 11.0894C4.31621 10.985 4.07808 10.9253 3.82506 10.8954C3.67622 10.8805 3.52739 10.8656 3.39344 10.8656C3.18507 10.8656 2.96182 10.8805 2.75345 10.9253C2.63438 10.9551 2.54508 10.9103 2.51531 10.8208C2.47066 10.7014 2.54508 10.582 2.69391 10.5521C2.8874 10.5223 3.066 10.5074 3.25949 10.4924C3.40832 10.4924 3.55716 10.4924 3.70599 10.4924C4.03343 10.5074 4.34598 10.582 4.65854 10.7163C4.85202 10.8059 5.03062 10.9253 5.17946 11.0745C5.20922 11.1044 5.22411 11.1491 5.26876 11.1641L5.25387 11.1939Z" fill="#1F90CF"/>
<path d="M5.64079 9.83576C5.52172 9.83576 5.43242 9.73128 5.46219 9.61188C5.53661 9.26859 5.62591 8.92531 5.70033 8.58203C5.77474 8.23874 5.86404 7.89546 5.93846 7.55218C5.96823 7.43277 6.05753 7.37307 6.16171 7.388C6.2659 7.40292 6.32543 7.5074 6.29567 7.6268C6.13195 8.31337 5.96823 8.99994 5.80451 9.6865C5.77474 9.79098 5.71521 9.85068 5.61103 9.83576H5.64079Z" fill="#41B9E5"/>
<path d="M4.06318 10.0298C4.06318 10.0298 3.959 10.0148 3.92923 9.97007C3.52738 9.56709 3.14041 9.17903 2.73855 8.77604C2.66413 8.70142 2.66413 8.58201 2.73855 8.50739C2.81297 8.43276 2.93204 8.43276 3.00646 8.50739C3.39343 8.89545 3.79528 9.29843 4.18225 9.68649C4.24179 9.74619 4.25667 9.82082 4.2269 9.89545C4.19714 9.97007 4.1376 9.99992 4.06318 9.99992V10.0298Z" fill="#41B9E5"/>
<path d="M4.852 9.83593C4.74782 9.83593 4.6734 9.77622 4.65852 9.67175C4.59898 9.26876 4.53945 8.85085 4.47992 8.44786C4.47992 8.40309 4.47992 8.35831 4.46503 8.31354C4.45015 8.19413 4.50968 8.10458 4.61387 8.08966C4.73293 8.07473 4.82224 8.13443 4.83712 8.25384C4.89665 8.7016 4.97107 9.16428 5.03061 9.61204C5.04549 9.73145 4.97107 9.83593 4.852 9.83593Z" fill="#41B9E5"/>
<path d="M7.72448 7.55231C7.6203 7.55231 7.54588 7.47769 7.53099 7.37321C7.53099 7.32843 7.53099 7.28366 7.53099 7.2538C7.53099 7.22395 7.53099 7.20903 7.48634 7.20903C7.44169 7.20903 7.38216 7.20903 7.33751 7.20903C7.24821 7.1941 7.17379 7.10455 7.18867 7.015C7.18867 6.92545 7.26309 6.85082 7.36728 6.85082C7.42681 6.85082 7.48634 6.86574 7.51611 6.85082C7.54588 6.82097 7.51611 6.74634 7.51611 6.70157C7.51611 6.59709 7.60541 6.52246 7.7096 6.52246C7.81378 6.52246 7.8882 6.59709 7.8882 6.70157C7.8882 6.76127 7.85843 6.83589 7.8882 6.86574C7.91797 6.8956 7.99238 6.86574 8.03703 6.86574C8.12633 6.86574 8.20075 6.94037 8.21564 7.04485C8.21564 7.1344 8.1561 7.22395 8.0668 7.23888C8.02215 7.23888 7.96262 7.23888 7.91797 7.23888C7.8882 7.23888 7.87331 7.23888 7.87331 7.28366C7.87331 7.32843 7.87331 7.37321 7.87331 7.40306C7.87331 7.50754 7.78401 7.58216 7.69471 7.58216L7.72448 7.55231Z" fill="#41B9E5"/>
<path d="M6.25102 10.0298C6.14684 10.0298 6.07242 9.97008 6.05754 9.88052C6.04266 9.79097 6.08731 9.70142 6.16172 9.67157C6.34033 9.59694 6.51893 9.52231 6.69753 9.44769C6.92078 9.35814 7.12915 9.26858 7.3524 9.17903C7.42682 9.14918 7.50124 9.14918 7.56077 9.20888C7.62031 9.26858 7.63519 9.32829 7.60542 9.40291C7.59054 9.44769 7.54589 9.49246 7.50124 9.50739C7.09938 9.67157 6.71241 9.83575 6.31056 9.99993C6.28079 9.99993 6.26591 9.99993 6.25102 9.99993V10.0298Z" fill="#41B9E5"/>
<path d="M6.93568 8.07471C7.03987 8.07471 7.11428 8.14933 7.11428 8.25381C7.11428 8.35829 7.03987 8.43292 6.93568 8.43292C6.8315 8.43292 6.75708 8.35829 6.75708 8.25381C6.75708 8.14933 6.8315 8.07471 6.93568 8.07471Z" fill="#41B9E5"/>
<path d="M2.38135 9.56714C2.48554 9.56714 2.55995 9.65669 2.55995 9.74624C2.55995 9.85072 2.47065 9.92535 2.36647 9.92535C2.26228 9.92535 2.18787 9.8358 2.18787 9.74624C2.18787 9.64177 2.27717 9.56714 2.38135 9.56714Z" fill="#41B9E5"/>
<path d="M5.2539 6.98514C5.35808 6.97021 5.44738 7.07469 5.44738 7.16424C5.44738 7.2538 5.35808 7.35827 5.2539 7.34335C5.2539 7.32842 5.23901 7.3135 5.23901 7.28365C5.23901 7.1941 5.23901 7.11947 5.23901 7.02992C5.23901 7.01499 5.23901 6.98514 5.2539 6.97021V6.98514Z" fill="#41B9E5"/>
<path d="M5.25298 6.98511C5.25298 7.10451 5.25298 7.22391 5.25298 7.35824C5.14935 7.35824 5.07532 7.28362 5.07532 7.17914C5.07532 7.07466 5.14935 7.00003 5.25298 7.00003V6.98511Z" fill="#41B9E5"/>
<path d="M10.9393 43.9851C12.1151 43.1343 13.3356 42.597 14.6453 42.3731C15.8211 42.1642 16.9969 42.2388 18.1727 42.2836C18.7532 42.3134 19.3187 42.3284 19.8992 42.2985C20.2862 42.2985 20.435 42.0149 20.3159 41.5821C20.2266 41.2537 20.0927 40.9403 19.9885 40.6119C19.795 39.9701 19.9439 39.6418 20.5243 39.5522C20.9857 39.4925 21.4769 39.4776 21.9234 39.5522C23.3224 39.791 24.7215 40.0895 26.1205 40.3731C26.1205 40.403 26.1205 40.4478 26.1205 40.4776C25.7038 40.403 25.287 40.3134 24.8554 40.2388C23.6647 40.0597 22.4889 39.8955 21.2982 39.7463C21.075 39.7164 20.8369 39.7463 20.6285 39.8358C20.3159 39.9403 20.2266 40.209 20.3606 40.5522C20.4052 40.6866 20.4797 40.791 20.5392 40.9104C20.6136 41.0597 20.688 41.194 20.7327 41.3433C20.9708 42.1045 20.688 42.6418 19.9885 42.6716C19.4825 42.6866 18.9764 42.6716 18.4704 42.6119C15.8955 42.3582 13.4249 42.7612 11.0584 43.9851C11.0584 43.9851 11.0286 43.9851 10.9542 43.9851H10.9393Z" fill="black"/>
<path d="M0 26.2089C1.4437 25.2239 5.52178 22.7612 11.2668 22.791C13.0082 22.791 17.756 23.0597 22.5039 26.3433C20.7774 29.0298 19.0509 31.7164 17.3095 34.403C15.8807 33.9403 13.7821 33.4478 11.2073 33.4328C8.60266 33.4179 6.45944 33.8955 5.01574 34.3433C3.34879 31.6418 1.66695 28.9254 0 26.2239L0 26.2089Z" fill="#1F90CF"/>
<path d="M15.0026 23.1492C15.2407 23.9253 15.7765 25.3731 17.0863 26.7611C18.4407 28.2089 19.929 28.8507 20.6881 29.1193L22.5038 26.2686C21.6108 25.6566 20.4648 24.985 19.0806 24.388C17.5476 23.7313 16.1337 23.3581 15.0026 23.1492Z" fill="#1375BC"/>
<path d="M6.34043 27.8955C6.87623 28.3433 7.73947 29.194 8.37946 30.5074C8.9748 31.7164 9.13852 32.8209 9.18317 33.4925C8.54318 33.5522 7.82877 33.6418 7.06972 33.806C6.32554 33.9552 5.6409 34.1343 5.03068 34.3134C4.45022 33.3731 3.86976 32.4328 3.28931 31.5074C3.78046 31.194 4.45022 30.6866 5.09021 29.9254C5.7302 29.1642 6.10229 28.4328 6.34043 27.8955Z" fill="#41B9E5"/>
<path d="M10.6268 33.418C11.1775 32.8209 12.3384 31.7015 14.1989 31.0747C16.6398 30.2389 18.7383 30.7762 19.4974 31.0001L17.3691 34.3583C16.4909 34.0896 15.464 33.8209 14.2882 33.6418C12.904 33.4329 11.6687 33.3881 10.6268 33.418Z" fill="#2599D6"/>
<path d="M12.6064 31.8209C12.4724 31.3582 12.3236 30.6567 12.3831 29.791C12.4724 28.5373 12.9636 27.6119 13.2613 27.1642C13.6929 26.9851 14.1989 26.7463 14.7496 26.4179C15.2705 26.0895 15.7021 25.7612 16.0594 25.4478C16.4314 26.0298 17.0268 26.806 17.9198 27.5522C18.9765 28.4328 20.0035 28.8955 20.703 29.1343C20.3012 29.7612 19.8993 30.3881 19.4974 31.0149C18.783 30.791 17.4733 30.4925 15.851 30.7015C14.3477 30.8955 13.2315 31.4478 12.6064 31.8209Z" fill="#41B9E5"/>
<path d="M0 26.2685C0.84836 25.6864 1.93486 25.0446 3.22972 24.4775C4.56924 23.8954 5.78968 23.5223 6.81664 23.2834C6.9506 23.9849 7.24827 26.0297 6.19154 28.2536C5.29853 30.1193 3.92924 31.1342 3.30414 31.5521L0 26.2685Z" fill="#1375BC"/>
<path d="M6.89107 25.9104C6.9506 25.5074 6.98037 25.0298 6.9506 24.4925C6.93572 24.0447 6.87618 23.6418 6.81665 23.2836C7.93291 23.0298 9.37661 22.791 11.0436 22.7761C12.5914 22.7612 13.931 22.9253 15.0026 23.1343C15.1068 23.4925 15.2556 23.9104 15.464 24.3433C15.6575 24.7612 15.8509 25.1194 16.0444 25.4179C14.8835 26.403 13.797 26.9701 13.1421 27.1791C12.5914 27.3433 11.9663 27.4627 11.2668 27.4627C10.5822 27.4627 8.88546 27.0149 6.89107 25.8955" fill="#2599D6"/>
<path d="M13.2909 13.6717C13.2909 13.6717 13.1719 13.5522 13.0975 13.5075C12.7849 13.2537 12.4128 13.1045 12.011 13.0299C11.8026 13 11.5942 12.9851 11.3859 12.9702C11.2668 12.9702 11.1775 12.8657 11.1775 12.7463C11.1775 11.6866 11.1775 10.612 11.1775 9.55225C11.1775 9.41792 11.2668 9.32837 11.4007 9.32837C11.8621 9.32837 12.2938 9.41792 12.6956 9.65673C12.9337 9.79106 13.1123 9.97016 13.2612 10.209C13.2909 10.2537 13.2909 10.2985 13.2909 10.3433C13.2909 11.4478 13.2909 12.5522 13.2909 13.6567C13.2909 13.6567 13.2909 13.6567 13.2909 13.6717Z" fill="url(#paint6_linear_283_18)"/>
<path d="M13.6184 13.6865V13.6119C13.6184 12.5671 13.6184 11.5074 13.6184 10.4627C13.6184 10.3134 13.663 10.194 13.7523 10.0746C14.05 9.7164 14.437 9.50744 14.8835 9.41789C15.077 9.37311 15.2854 9.35819 15.4937 9.34326C15.6426 9.34326 15.7319 9.43281 15.7319 9.58207C15.7319 10.6418 15.7319 11.7015 15.7319 12.7612C15.7319 12.9104 15.6426 13 15.4937 13C15.1067 13 14.7347 13.0597 14.3775 13.194C14.1096 13.2985 13.8565 13.4477 13.6482 13.6567C13.6482 13.6567 13.6184 13.6865 13.6035 13.7015L13.6184 13.6865Z" fill="url(#paint7_linear_283_18)"/>
<path d="M16.357 4.34328C16.357 4.34328 16.2379 4.22388 16.1635 4.1791C15.8509 3.92537 15.4789 3.77612 15.077 3.70149C14.8686 3.67164 14.6603 3.65672 14.4519 3.64179C14.3328 3.64179 14.2435 3.53731 14.2435 3.41791C14.2435 2.35821 14.2435 1.28358 14.2435 0.223881C14.2435 0.0895522 14.3328 0 14.4668 0C14.9282 0 15.3598 0.0895522 15.7616 0.328358C15.9998 0.462687 16.1784 0.641791 16.3272 0.880597C16.357 0.925373 16.357 0.970149 16.357 1.01493C16.357 2.1194 16.357 3.22388 16.357 4.32836C16.357 4.32836 16.357 4.32836 16.357 4.34328Z" fill="url(#paint8_linear_283_18)"/>
<path d="M16.6993 4.34328V4.26866C16.6993 3.22388 16.6993 2.16418 16.6993 1.1194C16.6993 0.970149 16.744 0.850746 16.8333 0.731343C17.131 0.373134 17.5179 0.164179 17.9644 0.0746269C18.1579 0.0298507 18.3663 0.0149254 18.5747 0C18.7235 0 18.8128 0.0895522 18.8128 0.238806C18.8128 1.29851 18.8128 2.35821 18.8128 3.41791C18.8128 3.56716 18.7235 3.65672 18.5747 3.65672C18.1877 3.65672 17.8156 3.71642 17.4584 3.85075C17.1905 3.95522 16.9375 4.10448 16.7291 4.31343C16.7291 4.31343 16.6993 4.34328 16.6844 4.35821L16.6993 4.34328Z" fill="url(#paint9_linear_283_18)"/>
<path d="M20.5244 10.3881C20.5244 10.3881 20.4202 10.2836 20.3607 10.2538C20.0779 10.0299 19.7653 9.89554 19.423 9.85077C19.2444 9.82092 19.0658 9.80599 18.8872 9.80599C18.783 9.80599 18.7086 9.71644 18.7086 9.61196C18.7086 8.68659 18.7086 7.77614 18.7086 6.85077C18.7086 6.74629 18.783 6.65674 18.9021 6.65674C19.304 6.65674 19.676 6.73137 20.0184 6.94032C20.2119 7.05972 20.3756 7.20898 20.5095 7.41793C20.5244 7.44778 20.5393 7.49256 20.5393 7.53734C20.5393 8.49256 20.5393 9.44778 20.5393 10.403C20.5393 10.403 20.5393 10.403 20.5393 10.4179L20.5244 10.3881Z" fill="url(#paint10_linear_283_18)"/>
<path d="M20.8073 10.3881V10.3135C20.8073 9.40307 20.8073 8.49262 20.8073 7.58218C20.8073 7.44785 20.8519 7.34337 20.9263 7.25382C21.1793 6.94039 21.5217 6.76128 21.8937 6.68665C22.0723 6.6568 22.251 6.64188 22.4147 6.62695C22.5486 6.62695 22.623 6.70158 22.623 6.83591C22.623 7.74636 22.623 8.6568 22.623 9.58218C22.623 9.70158 22.5486 9.77621 22.4296 9.79113C22.1021 9.79113 21.7747 9.83591 21.477 9.95531C21.2389 10.0449 21.0305 10.1792 20.8519 10.3583C20.8519 10.3583 20.8221 10.3732 20.8073 10.4031V10.3881Z" fill="url(#paint11_linear_283_18)"/>
<path d="M20.6732 16.9999C20.6732 16.9999 20.5839 16.9104 20.5244 16.8805C20.2862 16.6865 20.0034 16.5671 19.6909 16.5223C19.5272 16.4924 19.3783 16.4924 19.2146 16.4775C19.1253 16.4775 19.0509 16.4029 19.0509 16.2984C19.0509 15.4775 19.0509 14.6715 19.0509 13.8507C19.0509 13.7462 19.1253 13.6715 19.2146 13.6865C19.5718 13.6865 19.8993 13.7462 20.2118 13.9402C20.3904 14.0447 20.5393 14.179 20.6434 14.3581C20.6583 14.388 20.6732 14.4327 20.6732 14.4626C20.6732 15.3133 20.6732 16.1641 20.6732 17.0148C20.6732 17.0148 20.6732 17.0148 20.6732 17.0298V16.9999Z" fill="url(#paint12_linear_283_18)"/>
<path d="M20.9263 17.0149V16.9552C20.9263 16.1492 20.9263 15.3433 20.9263 14.5373C20.9263 14.4179 20.9709 14.3283 21.0305 14.2388C21.2537 13.9552 21.5514 13.806 21.8937 13.7313C22.0425 13.7015 22.2062 13.6866 22.37 13.6716C22.489 13.6716 22.5486 13.7313 22.5486 13.8507C22.5486 14.6567 22.5486 15.4776 22.5486 16.2836C22.5486 16.388 22.4742 16.4627 22.37 16.4627C22.0723 16.4627 21.7895 16.5075 21.5216 16.6119C21.3132 16.6866 21.1198 16.806 20.9709 16.9701C20.9709 16.9701 20.956 16.9851 20.9263 17V17.0149Z" fill="url(#paint13_linear_283_18)"/>
<path d="M14.7941 20C14.7941 20 14.7048 19.9254 14.6602 19.8806C14.4369 19.7015 14.1839 19.597 13.9011 19.5523C13.7523 19.5224 13.6183 19.5224 13.4695 19.5075C13.3802 19.5075 13.3207 19.4329 13.3207 19.3582C13.3207 18.612 13.3207 17.8806 13.3207 17.1344C13.3207 17.0448 13.3802 16.9851 13.4695 16.9851C13.7821 16.9851 14.0946 17.0448 14.3774 17.209C14.5411 17.2985 14.6751 17.4329 14.7644 17.5821C14.7793 17.612 14.7941 17.6418 14.7941 17.6717C14.7941 18.4329 14.7941 19.209 14.7941 19.9702V20Z" fill="url(#paint14_linear_283_18)"/>
<path d="M15.0322 20V19.9403C15.0322 19.209 15.0322 18.4776 15.0322 17.7463C15.0322 17.6418 15.062 17.5523 15.1364 17.4776C15.3448 17.2239 15.6127 17.0896 15.9252 17.0299C16.0592 17 16.208 17 16.3569 16.9851C16.461 16.9851 16.5206 17.0448 16.5206 17.1493C16.5206 17.8806 16.5206 18.612 16.5206 19.3582C16.5206 19.4627 16.461 19.5224 16.3569 19.5224C16.089 19.5224 15.8359 19.5672 15.5829 19.6567C15.3894 19.7314 15.2257 19.8359 15.0769 19.9702C15.0769 19.9702 15.062 19.9851 15.0471 20H15.0322Z" fill="url(#paint15_linear_283_18)"/>
<path d="M21.0007 23.1045C21.0007 23.1045 20.9114 23.0299 20.8667 22.9851C20.6435 22.806 20.3756 22.6866 20.0928 22.6418C19.9439 22.6119 19.7951 22.6119 19.6463 22.597C19.557 22.597 19.4974 22.5224 19.4974 22.4328C19.4974 21.6716 19.4974 20.9254 19.4974 20.1642C19.4974 20.0746 19.557 20 19.6463 20C19.9737 20 20.2863 20.0597 20.569 20.2239C20.7328 20.3284 20.8667 20.4478 20.9709 20.6119C20.9858 20.6418 21.0007 20.6716 21.0007 20.7015C21.0007 21.4925 21.0007 22.2687 21.0007 23.0597C21.0007 23.0597 21.0007 23.0597 21.0007 23.0746V23.1045Z" fill="url(#paint16_linear_283_18)"/>
<path d="M21.2239 23.1044V23.0447C21.2239 22.2984 21.2239 21.5522 21.2239 20.8059C21.2239 20.7014 21.2536 20.6119 21.3281 20.5372C21.5364 20.2835 21.8043 20.1343 22.1318 20.0746C22.2806 20.0447 22.4146 20.0298 22.5634 20.0298C22.6676 20.0298 22.742 20.0895 22.742 20.194C22.742 20.9402 22.742 21.7014 22.742 22.4477C22.742 22.5522 22.6825 22.6119 22.5783 22.6119C22.3104 22.6119 22.0425 22.6567 21.7895 22.7462C21.596 22.8208 21.4174 22.9253 21.2685 23.0746C21.2685 23.0746 21.2536 23.0895 21.2388 23.1044H21.2239Z" fill="url(#paint17_linear_283_18)"/>
<defs>
<linearGradient id="paint0_linear_283_18" x1="2.17294" y1="22.0597" x2="-0.316067" y2="20.6329" gradientUnits="userSpaceOnUse">
<stop offset="0.04" stop-color="#9FDBED"/>
<stop offset="0.7" stop-color="#006AAA"/>
<stop offset="0.95" stop-color="#0067A9"/>
</linearGradient>
<linearGradient id="paint1_linear_283_18" x1="3.67617" y1="21.9702" x2="1.69387" y2="20.8257" gradientUnits="userSpaceOnUse">
<stop offset="0.04" stop-color="#9FDBED"/>
<stop offset="0.7" stop-color="#006AAA"/>
<stop offset="0.95" stop-color="#0067A9"/>
</linearGradient>
<linearGradient id="paint2_linear_283_18" x1="8.26037" y1="19.2537" x2="4.86221" y2="17.3067" gradientUnits="userSpaceOnUse">
<stop offset="0.04" stop-color="#9FDBED"/>
<stop offset="0.7" stop-color="#006AAA"/>
<stop offset="0.95" stop-color="#0067A9"/>
</linearGradient>
<linearGradient id="paint3_linear_283_18" x1="10.2845" y1="19.1343" x2="7.60169" y2="17.5737" gradientUnits="userSpaceOnUse">
<stop offset="0.04" stop-color="#9FDBED"/>
<stop offset="0.7" stop-color="#006AAA"/>
<stop offset="0.95" stop-color="#0067A9"/>
</linearGradient>
<linearGradient id="paint4_linear_283_18" x1="2.21766" y1="11.7314" x2="5.26878" y2="11.7314" gradientUnits="userSpaceOnUse">
<stop offset="0.04" stop-color="#9FDBED"/>
<stop offset="0.7" stop-color="#006AAA"/>
<stop offset="0.95" stop-color="#0067A9"/>
</linearGradient>
<linearGradient id="paint5_linear_283_18" x1="5.25391" y1="11.7313" x2="8.27526" y2="11.7313" gradientUnits="userSpaceOnUse">
<stop offset="0.04" stop-color="#9FDBED"/>
<stop offset="0.7" stop-color="#006AAA"/>
<stop offset="0.95" stop-color="#0067A9"/>
</linearGradient>
<linearGradient id="paint6_linear_283_18" x1="13.9905" y1="12.4627" x2="10.5923" y2="10.5008" gradientUnits="userSpaceOnUse">
<stop offset="0.04" stop-color="#9FDBED"/>
<stop offset="0.7" stop-color="#006AAA"/>
<stop offset="0.95" stop-color="#0067A9"/>
</linearGradient>
<linearGradient id="paint7_linear_283_18" x1="16.0295" y1="12.3283" x2="13.3319" y2="10.7826" gradientUnits="userSpaceOnUse">
<stop offset="0.04" stop-color="#9FDBED"/>
<stop offset="0.7" stop-color="#006AAA"/>
<stop offset="0.95" stop-color="#0067A9"/>
</linearGradient>
<linearGradient id="paint8_linear_283_18" x1="17.0565" y1="3.13433" x2="13.6583" y2="1.17246" gradientUnits="userSpaceOnUse">
<stop offset="0.04" stop-color="#9FDBED"/>
<stop offset="0.7" stop-color="#006AAA"/>
<stop offset="0.95" stop-color="#0067A9"/>
</linearGradient>
<linearGradient id="paint9_linear_283_18" x1="19.0956" y1="3" x2="16.3979" y2="1.43941" gradientUnits="userSpaceOnUse">
<stop offset="0.04" stop-color="#9FDBED"/>
<stop offset="0.7" stop-color="#006AAA"/>
<stop offset="0.95" stop-color="#0067A9"/>
</linearGradient>
<linearGradient id="paint10_linear_283_18" x1="21.1346" y1="9.34331" x2="18.1985" y2="7.64896" gradientUnits="userSpaceOnUse">
<stop offset="0.04" stop-color="#9FDBED"/>
<stop offset="0.7" stop-color="#006AAA"/>
<stop offset="0.95" stop-color="#0067A9"/>
</linearGradient>
<linearGradient id="paint11_linear_283_18" x1="22.8761" y1="9.22397" x2="20.5659" y2="7.88632" gradientUnits="userSpaceOnUse">
<stop offset="0.04" stop-color="#9FDBED"/>
<stop offset="0.7" stop-color="#006AAA"/>
<stop offset="0.95" stop-color="#0067A9"/>
</linearGradient>
<linearGradient id="paint12_linear_283_18" x1="21.209" y1="16.0745" x2="18.6007" y2="14.5734" gradientUnits="userSpaceOnUse">
<stop offset="0.04" stop-color="#9FDBED"/>
<stop offset="0.7" stop-color="#006AAA"/>
<stop offset="0.95" stop-color="#0067A9"/>
</linearGradient>
<linearGradient id="paint13_linear_283_18" x1="22.7718" y1="15.9701" x2="20.715" y2="14.7811" gradientUnits="userSpaceOnUse">
<stop offset="0.04" stop-color="#9FDBED"/>
<stop offset="0.7" stop-color="#006AAA"/>
<stop offset="0.95" stop-color="#0067A9"/>
</linearGradient>
<linearGradient id="paint14_linear_283_18" x1="15.2853" y1="19.1493" x2="12.9155" y2="17.7968" gradientUnits="userSpaceOnUse">
<stop offset="0.04" stop-color="#9FDBED"/>
<stop offset="0.7" stop-color="#006AAA"/>
<stop offset="0.95" stop-color="#0067A9"/>
</linearGradient>
<linearGradient id="paint15_linear_283_18" x1="16.6992" y1="19.0597" x2="14.8213" y2="17.9897" gradientUnits="userSpaceOnUse">
<stop offset="0.04" stop-color="#9FDBED"/>
<stop offset="0.7" stop-color="#006AAA"/>
<stop offset="0.95" stop-color="#0067A9"/>
</linearGradient>
<linearGradient id="paint16_linear_283_18" x1="21.4918" y1="22.2388" x2="19.0773" y2="20.8417" gradientUnits="userSpaceOnUse">
<stop offset="0.04" stop-color="#9FDBED"/>
<stop offset="0.7" stop-color="#006AAA"/>
<stop offset="0.95" stop-color="#0067A9"/>
</linearGradient>
<linearGradient id="paint17_linear_283_18" x1="22.9355" y1="22.1492" x2="21.0277" y2="21.0494" gradientUnits="userSpaceOnUse">
<stop offset="0.04" stop-color="#9FDBED"/>
<stop offset="0.7" stop-color="#006AAA"/>
<stop offset="0.95" stop-color="#0067A9"/>
</linearGradient>
</defs>
</svg>
