<svg width="50" height="50" viewBox="0 0 50 50" fill="none" xmlns="http://www.w3.org/2000/svg">
<circle cx="25" cy="25" r="25" fill="white"/>
<rect width="32" height="32" transform="translate(9 9)" fill="white" fill-opacity="0.01"/>
<path fill-rule="evenodd" clip-rule="evenodd" d="M24.9773 30.3119C23.5629 30.3109 22.2067 29.7487 21.2063 28.7488C20.2059 27.7489 19.6431 26.393 19.6413 24.9786C19.6413 22.0373 22.0346 19.6453 24.9773 19.6453C26.3917 19.6463 27.7479 20.2085 28.7483 21.2084C29.7487 22.2082 30.3115 23.5642 30.3133 24.9786C30.3133 27.9199 27.92 30.3119 24.9773 30.3119ZM25 14.3333C17.64 14.3333 11.6666 20.7866 11.6666 24.9999C11.6666 29.1146 17.7693 35.6666 25 35.6666C32.2306 35.6666 38.3333 29.1146 38.3333 24.9999C38.3333 20.7866 32.3586 14.3333 25 14.3333Z" fill="#263238"/>
<path d="M25 27.6666C26.4727 27.6666 27.6666 26.4727 27.6666 24.9999C27.6666 23.5272 26.4727 22.3333 25 22.3333C23.5272 22.3333 22.3333 23.5272 22.3333 24.9999C22.3333 26.4727 23.5272 27.6666 25 27.6666Z" fill="#263238"/>
</svg>
