<svg width="41" height="68" viewBox="0 0 41 68" fill="none" xmlns="http://www.w3.org/2000/svg">
<path d="M9.53992 54.7599C11.5169 54.2755 14.1604 53.8142 17.2867 53.8142C20.4131 53.8142 23.0336 54.2755 24.9876 54.7599C22.436 58.6351 19.8843 62.5103 17.3097 66.4085L9.53992 54.7599Z" fill="black"/>
<path d="M2.57467 35.4762C2.57467 35.4762 2.43675 35.3378 2.36778 35.2916C1.99998 34.9918 1.5862 34.8303 1.12645 34.7611C0.896576 34.715 0.643712 34.715 0.413836 34.6919C0.27591 34.6919 0.18396 34.5766 0.18396 34.4382C0.18396 33.2387 0.18396 32.0162 0.18396 30.8167C0.18396 30.6783 0.27591 30.563 0.436824 30.563C0.965539 30.563 1.44828 30.6553 1.90803 30.9321C2.16089 31.0935 2.39077 31.3011 2.55168 31.5548C2.57467 31.601 2.59766 31.6471 2.59766 31.7163C2.59766 32.9619 2.59766 34.2306 2.59766 35.4762C2.59766 35.4762 2.59766 35.4762 2.59766 35.4992L2.57467 35.4762Z" fill="url(#paint0_linear_254_7551)"/>
<path d="M2.9425 35.4762V35.3839C2.9425 34.1844 2.9425 33.008 2.9425 31.8086C2.9425 31.624 2.98848 31.5087 3.10342 31.3703C3.42524 30.9551 3.885 30.7245 4.39072 30.6322C4.6206 30.5861 4.85048 30.563 5.08035 30.563C5.24127 30.563 5.3562 30.6553 5.3562 30.8398C5.3562 32.0392 5.3562 33.2387 5.3562 34.4382C5.3562 34.5996 5.26425 34.6919 5.10334 34.715C4.66658 34.715 4.2528 34.7842 3.83902 34.9456C3.54018 35.061 3.24134 35.2455 3.01147 35.4762C3.01147 35.4762 2.98848 35.4992 2.9425 35.5223V35.4762Z" fill="url(#paint1_linear_254_7551)"/>
<path d="M11.6777 31.6472C11.6777 31.6472 11.4938 31.4626 11.3789 31.3934C10.8961 31.0013 10.3214 30.7706 9.70076 30.6553C9.37893 30.6092 9.0571 30.5861 8.73528 30.563C8.55138 30.563 8.41345 30.4016 8.41345 30.217C8.41345 28.5793 8.41345 26.9185 8.41345 25.2808C8.41345 25.0732 8.55138 24.9348 8.75827 24.9348C9.47088 24.9348 10.1375 25.0732 10.7582 25.4423C11.126 25.6499 11.4018 25.9267 11.6317 26.2957C11.6777 26.3649 11.6777 26.4341 11.6777 26.5033C11.6777 28.2103 11.6777 29.9172 11.6777 31.6241C11.6777 31.6241 11.6777 31.6241 11.6777 31.6472Z" fill="url(#paint2_linear_254_7551)"/>
<path d="M12.1834 31.6472V31.5318C12.1834 29.9172 12.1834 28.2795 12.1834 26.6648C12.1834 26.4341 12.2524 26.2496 12.3903 26.0651C12.85 25.5115 13.4477 25.1885 14.1373 25.0501C14.4362 24.9809 14.758 24.9579 15.0798 24.9348C15.3097 24.9348 15.4476 25.0732 15.4476 25.3039C15.4476 26.9416 15.4476 28.5793 15.4476 30.217C15.4476 30.4477 15.3097 30.5861 15.0798 30.5861C14.4821 30.5861 13.9075 30.6784 13.3558 30.886C12.942 31.0474 12.5512 31.2781 12.2294 31.601C12.2294 31.601 12.1834 31.6472 12.1604 31.6702L12.1834 31.6472Z" fill="url(#paint3_linear_254_7551)"/>
<path d="M4.20676 9.87243C4.20676 9.87243 4.29871 9.8955 4.34468 9.8955C4.78145 10.0108 5.08029 10.403 5.03431 10.8412C4.98834 11.3026 4.62053 11.6486 4.16078 11.6486C3.70103 11.6486 3.33323 11.3487 3.24128 10.9104C3.14933 10.426 3.47115 9.9647 3.95389 9.87243C3.97688 9.87243 3.99987 9.87243 4.02286 9.84937H4.18377L4.20676 9.87243Z" fill="#41B9E5"/>
<path d="M3.21826 19.3067C3.21826 19.3067 3.3332 19.1452 3.42515 19.1221C3.47113 19.0991 3.5171 19.076 3.56308 19.076C4.59752 18.8223 5.60897 18.5455 6.64342 18.2917C6.71238 18.2917 6.78134 18.2456 6.82732 18.2456C7.0342 18.1995 7.17213 18.2456 7.24109 18.4532C7.31006 18.6608 7.44798 18.7992 7.60889 18.9376C7.72383 19.0299 7.86176 19.0529 7.99968 19.076C8.04566 19.076 8.11462 19.076 8.13761 19.1452C8.13761 19.3067 8.13761 19.4681 8.13761 19.6065C8.13761 19.6296 8.13761 19.6527 8.11462 19.6757C7.56292 19.6757 7.12616 19.422 6.82732 18.9607C6.78134 18.8915 6.75835 18.8915 6.68939 18.9145C5.70092 19.1683 4.68947 19.422 3.67801 19.6757C3.42515 19.7449 3.35619 19.7219 3.21826 19.5143V19.3528V19.3067Z" fill="#1F90CF"/>
<path d="M8.1146 19.0759C8.1146 19.0759 7.9307 19.0759 7.86174 19.0298C7.5629 18.9375 7.35601 18.753 7.24108 18.4762C7.14913 18.2455 7.03419 18.1763 6.80431 18.2455C5.70091 18.5223 4.57451 18.8222 3.47111 19.099C3.47111 19.099 3.47111 19.099 3.44812 19.099C3.51708 18.9144 3.54007 18.7299 3.60903 18.5454C3.65501 18.3608 3.678 18.1763 3.76995 17.9918C3.79293 17.9226 3.83891 17.8995 3.90787 17.8534C4.20671 17.6919 4.52854 17.5766 4.85036 17.4612C5.1492 17.3459 5.44804 17.2767 5.76987 17.2075C6.11468 17.1383 6.4595 17.1152 6.80431 17.1152C6.87327 17.1152 6.96522 17.1614 7.03419 17.1152C7.17211 17.1152 7.28705 17.1383 7.42498 17.1614C7.67784 17.2075 7.9307 17.2998 8.13759 17.4382C8.13759 17.4382 8.13759 17.4382 8.13759 17.4612C8.13759 17.5304 8.13759 17.5996 8.13759 17.6919C8.13759 18.084 8.13759 18.4762 8.13759 18.8683C8.13759 18.9144 8.13759 18.9606 8.13759 19.0067C8.13759 19.0067 8.13759 19.0067 8.13759 19.0298L8.1146 19.0759Z" fill="url(#paint4_linear_254_7551)"/>
<path d="M8.11462 19.0761C8.11462 18.5456 8.11462 18.015 8.11462 17.4845C8.18359 17.3922 8.27554 17.3922 8.36749 17.3461C8.62035 17.2308 8.87322 17.1846 9.14907 17.1385C9.17205 17.1385 9.19504 17.1385 9.24102 17.1385C9.264 17.1616 9.30998 17.1385 9.33297 17.1385C9.63181 17.0924 9.93064 17.1385 10.2295 17.1846C10.6662 17.2308 11.057 17.3461 11.4708 17.4845C11.7697 17.5768 12.0685 17.7152 12.3443 17.8536C12.4363 17.8997 12.5053 17.9689 12.5282 18.0842C12.5972 18.3841 12.6892 18.6839 12.7581 18.9838C12.7581 19.0299 12.7581 19.053 12.8041 19.0991C12.7581 19.1453 12.7121 19.0991 12.6662 19.0991C11.6087 18.8223 10.5283 18.5455 9.47089 18.2918C9.44791 18.2918 9.40193 18.2918 9.37894 18.2688C9.21803 18.2457 9.10309 18.2918 9.05712 18.4533C8.96517 18.7301 8.78126 18.9377 8.50541 19.0299C8.39048 19.0761 8.27554 19.1222 8.13761 19.0761H8.11462Z" fill="url(#paint5_linear_254_7551)"/>
<path d="M8.11462 19.076C8.50541 19.076 8.85023 18.8453 8.98815 18.4762C9.0801 18.2456 9.17205 18.1994 9.40193 18.2456C10.5283 18.5224 11.6547 18.8222 12.7811 19.099C12.942 19.1682 13.011 19.2836 12.988 19.422C12.988 19.5373 12.8731 19.6526 12.7351 19.6757C12.6892 19.6757 12.6202 19.6757 12.5742 19.6757C11.5398 19.422 10.5283 19.1452 9.51687 18.8914C9.44791 18.8914 9.42492 18.8914 9.40193 18.9376C9.12608 19.3989 8.68931 19.6296 8.1606 19.6757H8.11462C8.11462 19.4912 8.11462 19.3066 8.11462 19.1221V19.076Z" fill="#1F90CF"/>
<path d="M9.21808 17.1385C9.05716 17.1615 8.87326 17.2077 8.71235 17.2538C8.50546 17.2999 8.29857 17.3922 8.11467 17.4845C8.11467 17.4845 8.0687 17.3461 8.11467 17.2999C8.29857 17.0923 8.48247 16.9078 8.71235 16.7694C9.08015 16.5388 9.49393 16.4004 9.93069 16.3081C10.2985 16.2389 10.6663 16.2158 11.0571 16.2158C11.4019 16.2158 11.7697 16.262 12.1145 16.3081C12.2524 16.3081 12.3444 16.4004 12.3674 16.5388C12.3904 16.6541 12.3674 16.7694 12.2524 16.8386C12.1605 16.9078 12.0456 16.9078 11.9306 16.8847C11.4479 16.7925 10.9881 16.7925 10.5054 16.8155C10.0686 16.8386 9.63185 16.9539 9.21808 17.1385Z" fill="#1F90CF"/>
<path d="M8.11459 17.2999C8.11459 17.2999 8.11459 17.4383 8.11459 17.4845C7.97666 17.4383 7.86172 17.3691 7.74678 17.323C7.5399 17.2538 7.35599 17.2077 7.14911 17.1846C7.10313 17.1846 7.05716 17.1615 7.01118 17.1385C6.66637 16.977 6.29857 16.8847 5.90778 16.8386C5.6779 16.8155 5.44802 16.7925 5.24114 16.7925C4.91931 16.7925 4.57449 16.8155 4.25267 16.8847C4.06877 16.9309 3.93084 16.8617 3.88487 16.7233C3.8159 16.5388 3.93084 16.3542 4.16072 16.3081C4.45956 16.262 4.73541 16.2389 5.03425 16.2158C5.26412 16.2158 5.494 16.2158 5.72388 16.2158C6.2296 16.2389 6.71234 16.3542 7.19508 16.5618C7.49392 16.7002 7.76977 16.8847 7.99965 17.1154C8.04562 17.1615 8.06861 17.2307 8.13757 17.2538L8.11459 17.2999Z" fill="#1F90CF"/>
<path d="M8.71225 15.2007C8.52835 15.2007 8.39043 15.0392 8.4364 14.8547C8.55134 14.3242 8.68926 13.7936 8.8042 13.2631C8.91914 12.7326 9.05707 12.2021 9.172 11.6715C9.21798 11.487 9.3559 11.3947 9.51682 11.4178C9.67773 11.4409 9.76968 11.6023 9.72371 11.7869C9.47084 12.8479 9.21798 13.909 8.96512 14.97C8.91914 15.1315 8.82719 15.2238 8.66628 15.2007H8.71225Z" fill="#41B9E5"/>
<path d="M6.27566 15.5006C6.27566 15.5006 6.11474 15.4775 6.06877 15.4083C5.4481 14.7855 4.85042 14.1858 4.22976 13.563C4.11482 13.4476 4.11482 13.2631 4.22976 13.1478C4.3447 13.0324 4.5286 13.0324 4.64354 13.1478C5.24121 13.7475 5.86188 14.3703 6.45956 14.97C6.55151 15.0623 6.57449 15.1776 6.52852 15.293C6.48254 15.4083 6.39059 15.4544 6.27566 15.4544V15.5006Z" fill="#41B9E5"/>
<path d="M7.494 15.2008C7.33308 15.2008 7.21814 15.1085 7.19516 14.9471C7.10321 14.3243 7.01126 13.6784 6.91931 13.0556C6.91931 12.9864 6.91931 12.9172 6.89632 12.848C6.87333 12.6635 6.96528 12.5251 7.12619 12.502C7.31009 12.479 7.44802 12.5712 7.47101 12.7558C7.56296 13.4477 7.6779 14.1628 7.76985 14.8548C7.79283 15.0393 7.6779 15.2008 7.494 15.2008Z" fill="#41B9E5"/>
<path d="M11.9306 11.6717C11.7697 11.6717 11.6547 11.5563 11.6318 11.3949C11.6318 11.3257 11.6318 11.2565 11.6318 11.2103C11.6318 11.1642 11.6318 11.1411 11.5628 11.1411C11.4938 11.1411 11.4019 11.1411 11.3329 11.1411C11.195 11.1181 11.0801 10.9797 11.103 10.8413C11.103 10.7029 11.218 10.5875 11.3789 10.5875C11.4708 10.5875 11.5628 10.6106 11.6088 10.5875C11.6547 10.5414 11.6088 10.4261 11.6088 10.3569C11.6088 10.1954 11.7467 10.0801 11.9076 10.0801C12.0685 10.0801 12.1835 10.1954 12.1835 10.3569C12.1835 10.4491 12.1375 10.5645 12.1835 10.6106C12.2294 10.6567 12.3444 10.6106 12.4133 10.6106C12.5513 10.6106 12.6662 10.7259 12.6892 10.8874C12.6892 11.0258 12.5972 11.1642 12.4593 11.1873C12.3903 11.1873 12.2984 11.1873 12.2294 11.1873C12.1835 11.1873 12.1605 11.1873 12.1605 11.2565C12.1605 11.3257 12.1605 11.3949 12.1605 11.441C12.1605 11.6025 12.0225 11.7178 11.8846 11.7178L11.9306 11.6717Z" fill="#41B9E5"/>
<path d="M9.65481 15.5006C9.49389 15.5006 9.37895 15.4083 9.35597 15.2699C9.33298 15.1315 9.40194 14.9931 9.51688 14.947C9.79273 14.8317 10.0686 14.7163 10.3444 14.601C10.6892 14.4626 11.0111 14.3242 11.3559 14.1858C11.4708 14.1397 11.5858 14.1397 11.6777 14.232C11.7697 14.3242 11.7927 14.4165 11.7467 14.5318C11.7237 14.601 11.6547 14.6702 11.5858 14.6933C10.9651 14.947 10.3674 15.2007 9.74676 15.4545C9.70078 15.4545 9.67779 15.4545 9.65481 15.4545V15.5006Z" fill="#41B9E5"/>
<path d="M10.7123 12.479C10.8732 12.479 10.9881 12.5943 10.9881 12.7558C10.9881 12.9173 10.8732 13.0326 10.7123 13.0326C10.5513 13.0326 10.4364 12.9173 10.4364 12.7558C10.4364 12.5943 10.5513 12.479 10.7123 12.479Z" fill="#41B9E5"/>
<path d="M3.67799 14.7856C3.8389 14.7856 3.95384 14.924 3.95384 15.0624C3.95384 15.2239 3.81592 15.3392 3.655 15.3392C3.49409 15.3392 3.37915 15.2008 3.37915 15.0624C3.37915 14.901 3.51708 14.7856 3.67799 14.7856Z" fill="#41B9E5"/>
<path d="M8.11466 10.795C8.27558 10.772 8.4135 10.9334 8.4135 11.0718C8.4135 11.2102 8.27558 11.3717 8.11466 11.3486C8.11466 11.3256 8.09167 11.3025 8.09167 11.2564C8.09167 11.118 8.09167 11.0026 8.09167 10.8642C8.09167 10.8412 8.09167 10.795 8.11466 10.772V10.795Z" fill="#41B9E5"/>
<path d="M8.11315 10.7952C8.11315 10.9797 8.11315 11.1642 8.11315 11.3718C7.95308 11.3718 7.83875 11.2565 7.83875 11.095C7.83875 10.9336 7.95308 10.8182 8.11315 10.8182V10.7952Z" fill="#41B9E5"/>
<path d="M16.8959 67.9769C18.7119 66.6621 20.5969 65.8317 22.6198 65.4857C24.4358 65.1628 26.2518 65.2782 28.0679 65.3474C28.9644 65.3935 29.8379 65.4166 30.7344 65.3704C31.3321 65.3704 31.562 64.9322 31.3781 64.2632C31.2401 63.7558 31.0333 63.2714 30.8723 62.7639C30.5735 61.772 30.8034 61.2646 31.6999 61.1262C32.4125 61.0339 33.1711 61.0109 33.8607 61.1262C36.0216 61.4952 38.1824 61.9566 40.3432 62.3948C40.3432 62.441 40.3432 62.5102 40.3432 62.5563C39.6996 62.441 39.0559 62.3026 38.3893 62.1872C36.5503 61.9104 34.7343 61.6567 32.8953 61.426C32.5504 61.3799 32.1826 61.426 31.8608 61.5644C31.3781 61.7259 31.2401 62.1411 31.447 62.6716C31.516 62.8792 31.6309 63.0407 31.7229 63.2252C31.8378 63.4559 31.9528 63.6635 32.0217 63.8942C32.3895 65.0706 31.9528 65.9009 30.8723 65.9471C30.0908 65.9701 29.3092 65.9471 28.5276 65.8548C24.5507 65.4627 20.7348 66.0855 17.0798 67.9769C17.0798 67.9769 17.0338 67.9769 16.9189 67.9769H16.8959Z" fill="black"/>
<path d="M0 40.5048C2.2298 38.9824 8.5284 35.1765 17.4016 35.2226C20.0912 35.2226 27.4242 35.6378 34.7573 40.7124C32.0907 44.8644 29.4241 49.0163 26.7346 53.1683C24.5278 52.4532 21.2865 51.6921 17.3097 51.669C13.2868 51.6459 9.97662 52.3841 7.74682 53.076C5.17221 48.901 2.57461 44.7029 0 40.5279L0 40.5048Z" fill="#1F90CF"/>
<path d="M23.1715 35.7761C23.5393 36.9756 24.3669 39.213 26.3898 41.3582C28.4816 43.5957 30.7804 44.5875 31.9528 45.0027L34.7573 40.597C33.378 39.6513 31.608 38.6133 29.4701 37.6906C27.1024 36.6757 24.9186 36.0991 23.1715 35.7761Z" fill="#1375BC"/>
<path d="M9.79278 43.1113C10.6203 43.8033 11.9536 45.1181 12.9421 47.148C13.8616 49.0163 14.1145 50.7233 14.1834 51.7613C13.1949 51.8535 12.0915 51.9919 10.9192 52.2457C9.76979 52.4763 8.71236 52.7531 7.76987 53.0299C6.87336 51.5767 5.97684 50.1235 5.08032 48.6934C5.83891 48.209 6.87336 47.4248 7.86182 46.2484C8.85029 45.072 9.42498 43.9417 9.79278 43.1113Z" fill="#41B9E5"/>
<path d="M16.4132 51.646C17.2637 50.7233 19.0568 48.9933 21.9302 48.0245C25.7002 46.7328 28.9415 47.5632 30.1138 47.9092L26.8266 53.0992C25.4703 52.684 23.8842 52.2688 22.0682 51.992C19.9303 51.669 18.0223 51.5998 16.4132 51.646Z" fill="#2599D6"/>
<path d="M19.4705 49.1778C19.2636 48.4627 19.0338 47.3786 19.1257 46.0407C19.2636 44.1031 20.0222 42.673 20.482 41.981C21.1486 41.7042 21.9302 41.3352 22.7807 40.8277C23.5853 40.3202 24.2519 39.8128 24.8036 39.3284C25.3783 40.228 26.2978 41.4274 27.6771 42.5807C29.3092 43.9417 30.8954 44.6567 31.9758 45.0258C31.3551 45.9946 30.7345 46.9634 30.1138 47.9322C29.0104 47.5862 26.9875 47.1248 24.4818 47.4478C22.1601 47.7476 20.436 48.6011 19.4705 49.1778Z" fill="#41B9E5"/>
<path d="M0 40.5969C1.31029 39.6973 2.98839 38.7055 4.98831 37.829C7.0572 36.9294 8.94218 36.3527 10.5283 35.9836C10.7352 37.0678 11.195 40.2279 9.56285 43.6648C8.18359 46.5481 6.06873 48.1166 5.10325 48.7625L0 40.5969Z" fill="#1375BC"/>
<path d="M10.6433 40.0434C10.7352 39.4206 10.7812 38.6825 10.7352 37.8521C10.7122 37.1601 10.6203 36.5373 10.5283 35.9837C12.2524 35.5916 14.4822 35.2225 17.0568 35.1995C19.4475 35.1764 21.5164 35.4301 23.1715 35.7531C23.3324 36.3066 23.5623 36.9525 23.8841 37.6214C24.183 38.2673 24.4818 38.8209 24.7806 39.2822C22.9876 40.8046 21.3095 41.6811 20.2981 42.0041C19.4475 42.2578 18.482 42.4423 17.4016 42.4423C16.3442 42.4423 13.7236 41.7503 10.6433 40.0204" fill="#2599D6"/>
<path d="M20.5279 21.1289C20.5279 21.1289 20.344 20.9443 20.2291 20.8751C19.7463 20.483 19.1716 20.2523 18.551 20.137C18.2292 20.0909 17.9073 20.0678 17.5855 20.0447C17.4016 20.0447 17.2637 19.8833 17.2637 19.6987C17.2637 18.061 17.2637 16.4002 17.2637 14.7625C17.2637 14.5549 17.4016 14.4165 17.6085 14.4165C18.3211 14.4165 18.9877 14.5549 19.6084 14.924C19.9762 15.1316 20.2521 15.4084 20.4819 15.7774C20.5279 15.8466 20.5279 15.9158 20.5279 15.985C20.5279 17.6919 20.5279 19.3989 20.5279 21.1058C20.5279 21.1058 20.5279 21.1058 20.5279 21.1289Z" fill="url(#paint6_linear_254_7551)"/>
<path d="M21.0336 21.1518V21.0365C21.0336 19.4218 21.0336 17.7841 21.0336 16.1694C21.0336 15.9388 21.1026 15.7542 21.2405 15.5697C21.7002 15.0161 22.2979 14.6932 22.9876 14.5548C23.2864 14.4856 23.6082 14.4625 23.93 14.4395C24.1599 14.4395 24.2978 14.5779 24.2978 14.8085C24.2978 16.4462 24.2978 18.084 24.2978 19.7217C24.2978 19.9523 24.1599 20.0907 23.93 20.0907C23.3324 20.0907 22.7577 20.183 22.206 20.3906C21.7922 20.5521 21.4014 20.7827 21.0796 21.1057C21.0796 21.1057 21.0336 21.1518 21.0106 21.1749L21.0336 21.1518Z" fill="url(#paint7_linear_254_7551)"/>
<path d="M25.2634 6.71235C25.2634 6.71235 25.0795 6.52782 24.9645 6.45862C24.4818 6.06649 23.9071 5.83582 23.2865 5.72049C22.9646 5.67436 22.6428 5.65129 22.321 5.62822C22.1371 5.62822 21.9991 5.46676 21.9991 5.28223C21.9991 3.6445 21.9991 1.98372 21.9991 0.345997C21.9991 0.138399 22.1371 0 22.344 0C23.0566 0 23.7232 0.138399 24.3439 0.507463C24.7117 0.715061 24.9875 0.991859 25.2174 1.36092C25.2634 1.43012 25.2634 1.49932 25.2634 1.56852C25.2634 3.27544 25.2634 4.98236 25.2634 6.68928C25.2634 6.68928 25.2634 6.68928 25.2634 6.71235Z" fill="url(#paint8_linear_254_7551)"/>
<path d="M25.7922 6.71235V6.59701C25.7922 4.98236 25.7922 3.34464 25.7922 1.72999C25.7922 1.49932 25.8611 1.31479 25.999 1.13026C26.4588 0.576662 27.0565 0.253731 27.7461 0.115332C28.0449 0.046133 28.3668 0.0230665 28.6886 0C28.9185 0 29.0564 0.138399 29.0564 0.369064C29.0564 2.00678 29.0564 3.6445 29.0564 5.28223C29.0564 5.51289 28.9185 5.65129 28.6886 5.65129C28.0909 5.65129 27.5162 5.74355 26.9645 5.95115C26.5507 6.11262 26.16 6.34328 25.8381 6.66621C25.8381 6.66621 25.7922 6.71235 25.7692 6.73541L25.7922 6.71235Z" fill="url(#paint9_linear_254_7551)"/>
<path d="M31.6999 16.0542C31.6999 16.0542 31.539 15.8928 31.447 15.8466C31.0102 15.5006 30.5275 15.293 29.9988 15.2238C29.7229 15.1777 29.4471 15.1546 29.1712 15.1546C29.0103 15.1546 28.8954 15.0162 28.8954 14.8548C28.8954 13.4246 28.8954 12.0176 28.8954 10.5875C28.8954 10.426 29.0103 10.2876 29.1942 10.2876C29.8149 10.2876 30.3896 10.4029 30.9183 10.7259C31.2171 10.9104 31.47 11.1411 31.6769 11.464C31.6999 11.5101 31.7229 11.5793 31.7229 11.6485C31.7229 13.1248 31.7229 14.601 31.7229 16.0773C31.7229 16.0773 31.7229 16.0773 31.7229 16.1004L31.6999 16.0542Z" fill="url(#paint10_linear_254_7551)"/>
<path d="M32.1366 16.0542V15.9389C32.1366 14.5318 32.1366 13.1248 32.1366 11.7177C32.1366 11.5101 32.2056 11.3486 32.3205 11.2102C32.7113 10.7259 33.24 10.4491 33.8147 10.3337C34.0905 10.2876 34.3664 10.2645 34.6193 10.2415C34.8261 10.2415 34.9411 10.3568 34.9411 10.5644C34.9411 11.9714 34.9411 13.3785 34.9411 14.8086C34.9411 14.9932 34.8261 15.1085 34.6422 15.1316C34.1365 15.1316 33.6308 15.2007 33.171 15.3853C32.8032 15.5237 32.4814 15.7313 32.2056 16.0081C32.2056 16.0081 32.1596 16.0311 32.1366 16.0773V16.0542Z" fill="url(#paint11_linear_254_7551)"/>
<path d="M31.9298 26.2726C31.9298 26.2726 31.7919 26.1342 31.7 26.0881C31.3322 25.7882 30.8954 25.6037 30.4127 25.5345C30.1598 25.4884 29.9299 25.4884 29.6771 25.4653C29.5391 25.4653 29.4242 25.35 29.4242 25.1885C29.4242 23.9198 29.4242 22.6743 29.4242 21.4056C29.4242 21.2441 29.5391 21.1288 29.6771 21.1519C30.2288 21.1519 30.7345 21.2441 31.2172 21.544C31.4931 21.7055 31.723 21.9131 31.8839 22.1899C31.9069 22.236 31.9298 22.3052 31.9298 22.3513C31.9298 23.6661 31.9298 24.9809 31.9298 26.2957C31.9298 26.2957 31.9298 26.2957 31.9298 26.3188V26.2726Z" fill="url(#paint12_linear_254_7551)"/>
<path d="M32.3207 26.2958V26.2035C32.3207 24.9579 32.3207 23.7124 32.3207 22.4668C32.3207 22.2822 32.3896 22.1438 32.4816 22.0054C32.8264 21.5672 33.2862 21.3365 33.8149 21.2212C34.0447 21.175 34.2976 21.152 34.5505 21.1289C34.7344 21.1289 34.8263 21.2212 34.8263 21.4057C34.8263 22.6513 34.8263 23.92 34.8263 25.1655C34.8263 25.327 34.7114 25.4423 34.5505 25.4423C34.0907 25.4423 33.654 25.5115 33.2402 25.673C32.9184 25.7883 32.6195 25.9729 32.3896 26.2266C32.3896 26.2266 32.3667 26.2497 32.3207 26.2727V26.2958Z" fill="url(#paint13_linear_254_7551)"/>
<path d="M22.8496 30.9092C22.8496 30.9092 22.7117 30.7939 22.6427 30.7247C22.2979 30.4479 21.9071 30.2864 21.4704 30.2172C21.2405 30.1711 21.0336 30.1711 20.8037 30.148C20.6658 30.148 20.5739 30.0327 20.5739 29.9173C20.5739 28.764 20.5739 27.6337 20.5739 26.4804C20.5739 26.342 20.6658 26.2498 20.8037 26.2498C21.2865 26.2498 21.7692 26.342 22.206 26.5958C22.4588 26.7342 22.6657 26.9417 22.8037 27.1724C22.8266 27.2185 22.8496 27.2647 22.8496 27.3108C22.8496 28.4872 22.8496 29.6867 22.8496 30.8631V30.9092Z" fill="url(#paint14_linear_254_7551)"/>
<path d="M23.2174 30.9092V30.8169C23.2174 29.6867 23.2174 28.5564 23.2174 27.4261C23.2174 27.2647 23.2634 27.1263 23.3783 27.0109C23.7001 26.6188 24.1139 26.4112 24.5967 26.319C24.8036 26.2728 25.0334 26.2728 25.2633 26.2498C25.4242 26.2498 25.5162 26.342 25.5162 26.5035C25.5162 27.6337 25.5162 28.764 25.5162 29.9173C25.5162 30.0788 25.4242 30.1711 25.2633 30.1711C24.8495 30.1711 24.4587 30.2403 24.0679 30.3787C23.7691 30.494 23.5162 30.6555 23.2864 30.8631C23.2864 30.8631 23.2634 30.8861 23.2404 30.9092H23.2174Z" fill="url(#paint15_linear_254_7551)"/>
<path d="M32.4355 35.707C32.4355 35.707 32.2976 35.5917 32.2286 35.5225C31.8838 35.2457 31.47 35.0611 31.0333 34.9919C30.8034 34.9458 30.5735 34.9458 30.3436 34.9227C30.2057 34.9227 30.1138 34.8074 30.1138 34.669C30.1138 33.4926 30.1138 32.3393 30.1138 31.1629C30.1138 31.0245 30.2057 30.9092 30.3436 30.9092C30.8494 30.9092 31.3321 31.0014 31.7689 31.2552C32.0217 31.4166 32.2286 31.6012 32.3895 31.8549C32.4125 31.901 32.4355 31.9472 32.4355 31.9933C32.4355 33.2158 32.4355 34.4153 32.4355 35.6378C32.4355 35.6378 32.4355 35.6378 32.4355 35.6609V35.707Z" fill="url(#paint16_linear_254_7551)"/>
<path d="M32.7803 35.707V35.6148C32.7803 34.4614 32.7803 33.3081 32.7803 32.1548C32.7803 31.9933 32.8262 31.8549 32.9412 31.7396C33.263 31.3475 33.6768 31.1168 34.1825 31.0245C34.4124 30.9784 34.6193 30.9553 34.8492 30.9553C35.0101 30.9553 35.125 31.0476 35.125 31.2091C35.125 32.3624 35.125 33.5388 35.125 34.6921C35.125 34.8536 35.0331 34.9458 34.8721 34.9458C34.4584 34.9458 34.0446 35.015 33.6538 35.1534C33.355 35.2688 33.0791 35.4302 32.8492 35.6609C32.8492 35.6609 32.8262 35.684 32.8033 35.707H32.7803Z" fill="url(#paint17_linear_254_7551)"/>
<defs>
<linearGradient id="paint0_linear_254_7551" x1="3.35625" y1="34.0922" x2="-0.489202" y2="31.8892" gradientUnits="userSpaceOnUse">
<stop offset="0.04" stop-color="#9FDBED"/>
<stop offset="0.7" stop-color="#006AAA"/>
<stop offset="0.95" stop-color="#0067A9"/>
</linearGradient>
<linearGradient id="paint1_linear_254_7551" x1="5.67803" y1="33.9538" x2="2.61543" y2="32.1867" gradientUnits="userSpaceOnUse">
<stop offset="0.04" stop-color="#9FDBED"/>
<stop offset="0.7" stop-color="#006AAA"/>
<stop offset="0.95" stop-color="#0067A9"/>
</linearGradient>
<linearGradient id="paint2_linear_254_7551" x1="12.7581" y1="29.7557" x2="7.50804" y2="26.7495" gradientUnits="userSpaceOnUse">
<stop offset="0.04" stop-color="#9FDBED"/>
<stop offset="0.7" stop-color="#006AAA"/>
<stop offset="0.95" stop-color="#0067A9"/>
</linearGradient>
<linearGradient id="paint3_linear_254_7551" x1="15.8844" y1="29.5712" x2="11.7394" y2="27.1616" gradientUnits="userSpaceOnUse">
<stop offset="0.04" stop-color="#9FDBED"/>
<stop offset="0.7" stop-color="#006AAA"/>
<stop offset="0.95" stop-color="#0067A9"/>
</linearGradient>
<linearGradient id="paint4_linear_254_7551" x1="3.42513" y1="18.1302" x2="8.13759" y2="18.1302" gradientUnits="userSpaceOnUse">
<stop offset="0.04" stop-color="#9FDBED"/>
<stop offset="0.7" stop-color="#006AAA"/>
<stop offset="0.95" stop-color="#0067A9"/>
</linearGradient>
<linearGradient id="paint5_linear_254_7551" x1="8.11462" y1="18.1304" x2="12.7811" y2="18.1304" gradientUnits="userSpaceOnUse">
<stop offset="0.04" stop-color="#9FDBED"/>
<stop offset="0.7" stop-color="#006AAA"/>
<stop offset="0.95" stop-color="#0067A9"/>
</linearGradient>
<linearGradient id="paint6_linear_254_7551" x1="21.6083" y1="19.2605" x2="16.3582" y2="16.2313" gradientUnits="userSpaceOnUse">
<stop offset="0.04" stop-color="#9FDBED"/>
<stop offset="0.7" stop-color="#006AAA"/>
<stop offset="0.95" stop-color="#0067A9"/>
</linearGradient>
<linearGradient id="paint7_linear_254_7551" x1="24.7576" y1="19.0528" x2="20.5898" y2="16.6662" gradientUnits="userSpaceOnUse">
<stop offset="0.04" stop-color="#9FDBED"/>
<stop offset="0.7" stop-color="#006AAA"/>
<stop offset="0.95" stop-color="#0067A9"/>
</linearGradient>
<linearGradient id="paint8_linear_254_7551" x1="26.3438" y1="4.84396" x2="21.0936" y2="1.81478" gradientUnits="userSpaceOnUse">
<stop offset="0.04" stop-color="#9FDBED"/>
<stop offset="0.7" stop-color="#006AAA"/>
<stop offset="0.95" stop-color="#0067A9"/>
</linearGradient>
<linearGradient id="paint9_linear_254_7551" x1="29.4932" y1="4.63636" x2="25.3252" y2="2.22678" gradientUnits="userSpaceOnUse">
<stop offset="0.04" stop-color="#9FDBED"/>
<stop offset="0.7" stop-color="#006AAA"/>
<stop offset="0.95" stop-color="#0067A9"/>
</linearGradient>
<linearGradient id="paint10_linear_254_7551" x1="32.6424" y1="14.4396" x2="28.106" y2="11.8235" gradientUnits="userSpaceOnUse">
<stop offset="0.04" stop-color="#9FDBED"/>
<stop offset="0.7" stop-color="#006AAA"/>
<stop offset="0.95" stop-color="#0067A9"/>
</linearGradient>
<linearGradient id="paint11_linear_254_7551" x1="35.3319" y1="14.255" x2="31.7627" y2="12.1897" gradientUnits="userSpaceOnUse">
<stop offset="0.04" stop-color="#9FDBED"/>
<stop offset="0.7" stop-color="#006AAA"/>
<stop offset="0.95" stop-color="#0067A9"/>
</linearGradient>
<linearGradient id="paint12_linear_254_7551" x1="32.7574" y1="24.8425" x2="28.7277" y2="22.5247" gradientUnits="userSpaceOnUse">
<stop offset="0.04" stop-color="#9FDBED"/>
<stop offset="0.7" stop-color="#006AAA"/>
<stop offset="0.95" stop-color="#0067A9"/>
</linearGradient>
<linearGradient id="paint13_linear_254_7551" x1="35.1711" y1="24.6811" x2="31.9934" y2="22.8453" gradientUnits="userSpaceOnUse">
<stop offset="0.04" stop-color="#9FDBED"/>
<stop offset="0.7" stop-color="#006AAA"/>
<stop offset="0.95" stop-color="#0067A9"/>
</linearGradient>
<linearGradient id="paint14_linear_254_7551" x1="23.6082" y1="29.5944" x2="19.947" y2="27.5062" gradientUnits="userSpaceOnUse">
<stop offset="0.04" stop-color="#9FDBED"/>
<stop offset="0.7" stop-color="#006AAA"/>
<stop offset="0.95" stop-color="#0067A9"/>
</linearGradient>
<linearGradient id="paint15_linear_254_7551" x1="25.792" y1="29.456" x2="22.8907" y2="27.8038" gradientUnits="userSpaceOnUse">
<stop offset="0.04" stop-color="#9FDBED"/>
<stop offset="0.7" stop-color="#006AAA"/>
<stop offset="0.95" stop-color="#0067A9"/>
</linearGradient>
<linearGradient id="paint16_linear_254_7551" x1="33.1941" y1="34.3692" x2="29.4637" y2="32.212" gradientUnits="userSpaceOnUse">
<stop offset="0.04" stop-color="#9FDBED"/>
<stop offset="0.7" stop-color="#006AAA"/>
<stop offset="0.95" stop-color="#0067A9"/>
</linearGradient>
<linearGradient id="paint17_linear_254_7551" x1="35.4238" y1="34.2308" x2="32.4764" y2="32.5326" gradientUnits="userSpaceOnUse">
<stop offset="0.04" stop-color="#9FDBED"/>
<stop offset="0.7" stop-color="#006AAA"/>
<stop offset="0.95" stop-color="#0067A9"/>
</linearGradient>
</defs>
</svg>
