<svg width="101" height="100" viewBox="0 0 101 100" fill="none" xmlns="http://www.w3.org/2000/svg">
<ellipse cx="50.4762" cy="50" rx="50.4762" ry="50" fill="white"/>
<path d="M63.451 44.4167H60.8851C60.1756 44.4167 59.6022 43.8473 59.6022 43.1458V35.5208C59.6022 34.8193 60.1756 34.25 60.8851 34.25H63.451C65.573 34.25 67.2998 35.9605 67.2998 38.0625V40.6042C67.2998 42.7061 65.573 44.4167 63.451 44.4167Z" fill="url(#paint0_linear_254_7280)"/>
<path d="M36.2359 35.0659C33.2865 28.6393 37.3405 23.791 41.4126 22.1847V22.1949C41.4626 21.5722 41.5447 21.0117 41.6307 20.5402C41.7962 19.6443 42.5903 19 43.5115 19H55.58C63.0891 19 68.0168 27.6747 65.2277 35.2692L63.3213 40.4631H38.7133L36.2372 35.0671L36.2359 35.0659Z" fill="url(#paint1_linear_254_7280)"/>
<path d="M68.5828 80.0001H32.6606C30.7516 80.0001 28.9542 79.1639 27.7315 77.705C26.5063 76.2448 26.006 74.3373 26.3575 72.4717L28.1805 62.8502C28.8105 59.485 31.2878 56.8252 34.6427 55.9115L43.5373 53.5108C48.17 52.2591 53.0721 52.2591 57.7073 53.5108L66.5993 55.9115H66.6019C69.9568 56.8252 72.4342 59.485 73.0654 62.8527L74.8858 72.4704C75.2374 74.336 74.7383 76.2435 73.5131 77.705C72.2905 79.1639 70.4918 80.0001 68.5828 80.0001Z" fill="url(#paint2_linear_254_7280)"/>
<path opacity="0.5" d="M49.3387 59.6667H51.9046V80.0001H49.3387V59.6667Z" fill="url(#paint3_linear_254_7280)"/>
<path d="M41.6414 69.8334H37.7926C37.0831 69.8334 36.5096 69.2641 36.5096 68.5626C36.5096 67.8611 37.0831 67.2917 37.7926 67.2917H41.6414C42.3509 67.2917 42.9243 67.8611 42.9243 68.5626C42.9243 69.2641 42.3509 69.8334 41.6414 69.8334Z" fill="url(#paint4_linear_254_7280)"/>
<path d="M48.0559 52.0417H53.1876C58.1474 52.0417 62.1682 56.0245 62.1682 60.9376C62.1682 62.3418 61.0199 63.4792 59.6023 63.4792H41.6412C40.2235 63.4792 39.0753 62.3418 39.0753 60.9376C39.0753 56.0245 43.096 52.0417 48.0559 52.0417Z" fill="url(#paint5_linear_254_7280)"/>
<path d="M44.2072 49.5508V57.1249C44.2072 60.6337 47.0796 63.4791 50.6218 63.4791C54.164 63.4791 57.0365 60.6337 57.0365 57.1249V49.5508H44.2072Z" fill="url(#paint6_linear_254_7280)"/>
<path d="M62.1692 49.5001H55.7533C55.0438 49.5001 54.4703 48.9307 54.4703 48.2292C54.4703 47.5277 55.0438 46.9584 55.7533 46.9584H62.1692C62.8774 46.9584 63.4522 46.3878 63.4522 45.6876V41.8751C63.4522 41.1736 64.0256 40.6042 64.7351 40.6042C65.4446 40.6042 66.018 41.1736 66.018 41.8751V45.6876C66.018 47.7895 64.2912 49.5001 62.1692 49.5001Z" fill="url(#paint7_linear_254_7280)"/>
<path d="M33.9434 40.6042V38.0625C33.9434 35.9605 35.6702 34.25 37.7922 34.25H40.358C41.0675 34.25 41.641 34.8193 41.641 35.5208V43.1458C41.641 43.8473 41.0675 44.4167 40.358 44.4167H37.7922C35.6702 44.4167 33.9434 42.7061 33.9434 40.6042Z" fill="url(#paint8_linear_254_7280)"/>
<path d="M39.0753 44.4167V35.5208C39.0753 32.7136 41.3731 30.4375 44.2071 30.4375H57.0364C59.8704 30.4375 62.1682 32.7136 62.1682 35.5208V44.4167C62.1682 46.8579 61.1893 49.1988 59.4471 50.9246L57.1929 53.1575C55.4507 54.8832 53.0875 55.8529 50.623 55.8529C48.1585 55.8529 45.7953 54.8832 44.0531 53.1575L41.799 50.9246C40.0568 49.1988 39.0779 46.8579 39.0779 44.4167H39.0753Z" fill="url(#paint9_linear_254_7280)"/>
<path d="M62.1692 49.4999H55.7533C55.0438 49.4999 54.4703 48.9306 54.4703 48.2291C54.4703 47.5276 55.0438 46.9583 55.7533 46.9583H62.1692V49.4999Z" fill="url(#paint10_linear_254_7280)"/>
<path d="M54.4705 45.6875H51.9046C50.4875 45.6875 49.3387 46.8254 49.3387 48.2292C49.3387 49.6329 50.4875 50.7708 51.9046 50.7708H54.4705C55.8876 50.7708 57.0364 49.6329 57.0364 48.2292C57.0364 46.8254 55.8876 45.6875 54.4705 45.6875Z" fill="url(#paint11_linear_254_7280)"/>
<circle cx="50" cy="50" r="50" fill="white"/>
<path d="M38.6961 29.5964H61.2726C70.4936 29.5964 77.9687 37.0716 77.9687 46.2925V58.1355C77.9687 67.3564 70.4936 74.8316 61.2726 74.8316H48.3146C48.0846 74.8316 47.8769 74.9585 47.7615 75.1573C45.8961 78.3706 42.0129 80.6601 36.9129 81.9781C36.2823 82.1411 35.8589 81.3559 36.3301 80.9063C38.2352 79.0875 39.171 77.2906 39.3283 75.5309C39.3618 75.1564 39.0723 74.8317 38.6962 74.8317C29.4752 74.8317 22.0001 67.3566 22.0001 58.1356V46.2927C22 37.0716 29.4751 29.5964 38.6961 29.5964Z" fill="url(#paint12_linear_254_7280)"/>
<path d="M22 46.5668V58.1356C22 67.3566 29.4751 74.8317 38.6961 74.8317C39.0721 74.8317 39.3616 75.1566 39.3282 75.5311C39.1709 77.2908 38.2351 79.0877 36.3299 80.9064C35.8588 81.3562 36.2822 82.1413 36.9128 81.9783C42.0127 80.6603 45.896 78.3708 47.7614 75.1575C47.8768 74.9585 48.0845 74.8317 48.3144 74.8317H61.2726C70.4936 74.8317 77.9687 67.3566 77.9687 58.1356V46.5668H22Z" fill="url(#paint13_linear_254_7280)"/>
<path d="M61.2728 29.5966H47.4855V75.5952C47.5803 75.4506 47.6754 75.306 47.7616 75.1574C47.877 74.9585 48.0847 74.8317 48.3146 74.8317H61.2728C70.4938 74.8317 77.9689 67.3566 77.9689 58.1356V46.2927C77.9689 37.0717 70.4938 29.5966 61.2728 29.5966Z" fill="url(#paint14_linear_254_7280)"/>
<path d="M77.9688 46.2925C77.9688 38.5288 72.6696 32.0033 65.4911 30.1345L34.7236 60.9019L48.6533 74.8316H61.2728C70.4938 74.8316 77.9689 67.3564 77.9689 58.1355V46.2925H77.9688Z" fill="url(#paint15_linear_254_7280)"/>
<path d="M46.7866 20.8047H53.182V25.8728H46.7866V20.8047Z" fill="url(#paint16_linear_254_7280)"/>
<path d="M46.7866 20.8047H53.182V25.8728H46.7866V20.8047Z" fill="url(#paint17_linear_254_7280)"/>
<path d="M53.3405 22.4905H46.6284C45.4163 22.4905 44.4337 21.5078 44.4337 20.2958V19.1948C44.4336 17.9826 45.4162 17 46.6282 17H53.3404C54.5524 17 55.535 17.9826 55.535 19.1946V20.2957C55.5351 21.5078 54.5525 22.4905 53.3405 22.4905Z" fill="url(#paint18_linear_254_7280)"/>
<path d="M51.3034 22.4905H48.6653C47.7881 22.4905 47.077 21.7794 47.077 20.9022V18.5883C47.077 17.7111 47.7881 17 48.6653 17H51.3034C52.1807 17 52.8917 17.7111 52.8917 18.5883V20.902C52.8917 21.7793 52.1807 22.4905 51.3034 22.4905Z" fill="url(#paint19_linear_254_7280)"/>
<path d="M44.4335 19.1947V20.2958C44.4335 21.5078 45.4161 22.4904 46.6281 22.4904H53.3402C54.5523 22.4904 55.5349 21.5078 55.5349 20.2958V19.1947C55.5349 18.888 55.4715 18.5963 55.3579 18.3312H44.6103C44.4968 18.5963 44.4335 18.888 44.4335 19.1947Z" fill="url(#paint20_linear_254_7280)"/>
<path d="M66.1979 33.9499L61.6757 29.4277L65.2593 25.8441L69.7815 30.3663L66.1979 33.9499Z" fill="url(#paint21_linear_254_7280)"/>
<path d="M66.1979 33.9499L61.6757 29.4277L65.2593 25.8441L69.7815 30.3663L66.1979 33.9499Z" fill="url(#paint22_linear_254_7280)"/>
<path d="M68.7017 31.6701L63.9554 26.9238C63.0984 26.0668 63.0984 24.6771 63.9554 23.8201L64.734 23.0415C65.5911 22.1844 66.9807 22.1844 67.8378 23.0415L72.584 27.7877C73.4411 28.6448 73.4411 30.0344 72.584 30.8915L71.8054 31.6701C70.9484 32.5271 69.5587 32.5271 68.7017 31.6701Z" fill="url(#paint23_linear_254_7280)"/>
<path d="M67.2611 30.2299L65.3958 28.3645C64.7755 27.7442 64.7755 26.7386 65.3958 26.1184L67.0318 24.4823C67.6521 23.862 68.6577 23.862 69.278 24.4823L71.1434 26.3478C71.7637 26.968 71.7637 27.9736 71.1434 28.5939L69.5074 30.23C68.887 30.8501 67.8814 30.8501 67.2611 30.2299Z" fill="url(#paint24_linear_254_7280)"/>
<path d="M64.7339 23.0416L63.9553 23.8202C63.0982 24.6772 63.0982 26.0668 63.9553 26.9239L68.7016 31.6702C69.5586 32.5272 70.9482 32.5272 71.8053 31.6702L72.5839 30.8916C72.8007 30.6747 72.9622 30.4236 73.0694 30.1559L65.4697 22.5562C65.2018 22.6632 64.9507 22.8247 64.7339 23.0416Z" fill="url(#paint25_linear_254_7280)"/>
<path d="M49.9843 67.223C61.9038 67.223 71.5663 57.5604 71.5663 45.641C71.5663 33.7216 61.9038 24.059 49.9843 24.059C38.0649 24.059 28.4023 33.7216 28.4023 45.641C28.4023 57.5604 38.0649 67.223 49.9843 67.223Z" fill="url(#paint26_linear_254_7280)"/>
<path d="M49.9844 64.8513C60.5939 64.8513 69.1946 56.2506 69.1946 45.6411C69.1946 35.0316 60.5939 26.431 49.9844 26.431C39.375 26.431 30.7743 35.0316 30.7743 45.6411C30.7743 56.2506 39.375 64.8513 49.9844 64.8513Z" fill="url(#paint27_linear_254_7280)"/>
<path d="M28.4023 45.6411C28.4023 57.5605 38.0649 67.2231 49.9843 67.2231C61.9037 67.2231 71.5663 57.5605 71.5663 45.6411C71.5663 43.0596 71.1116 40.5848 70.2804 38.2904H29.6883C28.8571 40.5848 28.4023 43.0596 28.4023 45.6411Z" fill="url(#paint28_linear_254_7280)"/>
<path d="M34.7237 60.9018C43.1519 69.3301 56.8169 69.3301 65.2452 60.9018C73.6735 52.4735 73.6735 38.8085 65.2452 30.3803C63.4198 28.5549 61.3484 27.1265 59.1381 26.0918L30.4352 54.7947C31.4698 57.005 32.8983 59.0765 34.7237 60.9018Z" fill="url(#paint29_linear_254_7280)"/>
<path d="M49.9843 63.0864C59.6191 63.0864 67.4297 55.2758 67.4297 45.641C67.4297 36.0062 59.6191 28.1956 49.9843 28.1956C40.3495 28.1956 32.5389 36.0062 32.5389 45.641C32.5389 55.2758 40.3495 63.0864 49.9843 63.0864Z" fill="url(#paint30_linear_254_7280)"/>
<path d="M67.4297 45.641C67.4297 36.0063 59.6192 28.1956 49.9843 28.1956C40.3495 28.1956 32.5389 36.0063 32.5389 45.641C32.5389 47.7277 32.9066 49.7281 33.5784 51.5828H66.3902C67.062 49.7281 67.4297 47.7277 67.4297 45.641Z" fill="url(#paint31_linear_254_7280)"/>
<path d="M62.3202 33.305C55.5074 26.4922 44.4616 26.4922 37.6488 33.305C30.836 40.1178 30.836 51.1636 37.6488 57.9764C39.1242 59.4519 40.7987 60.6065 42.5854 61.4429L65.7868 38.2415C64.9503 36.455 63.7956 34.7806 62.3202 33.305Z" fill="url(#paint32_linear_254_7280)"/>
<path d="M66.4489 39.8626L61.1058 34.5195L47.4867 48.1387L59.5693 60.2213C60.5418 59.5806 61.4643 58.8326 62.32 57.9769C67.2186 53.0782 68.5949 45.991 66.4489 39.8626Z" fill="url(#paint33_linear_254_7280)"/>
<path d="M49.9844 29.5402C49.4596 29.5402 49.0342 29.9656 49.0342 30.4905V31.8305C49.0342 32.3554 49.4596 32.7807 49.9844 32.7807C50.5092 32.7807 50.9347 32.3553 50.9347 31.8305V30.4905C50.9347 29.9656 50.5092 29.5402 49.9844 29.5402Z" fill="url(#paint34_linear_254_7280)"/>
<path d="M49.9844 58.5007C49.4596 58.5007 49.0342 58.9262 49.0342 59.451V60.791C49.0342 61.3159 49.4596 61.7412 49.9844 61.7412C50.5092 61.7412 50.9347 61.3158 50.9347 60.791V59.451C50.9347 58.9262 50.5092 58.5007 49.9844 58.5007Z" fill="url(#paint35_linear_254_7280)"/>
<path d="M65.1345 44.6905H63.7945C63.2697 44.6905 62.8442 45.1159 62.8442 45.6407C62.8442 46.1656 63.2697 46.591 63.7945 46.591H65.1345C65.6593 46.591 66.0847 46.1656 66.0847 45.6407C66.0847 45.1158 65.6594 44.6905 65.1345 44.6905Z" fill="url(#paint36_linear_254_7280)"/>
<path d="M36.1741 44.6905H34.8342C34.3093 44.6905 33.8839 45.1159 33.8839 45.6407C33.8839 46.1656 34.3093 46.591 34.8342 46.591H36.1741C36.699 46.591 37.1244 46.1656 37.1244 45.6407C37.1245 45.1158 36.6991 44.6905 36.1741 44.6905Z" fill="url(#paint37_linear_254_7280)"/>
<path d="M60.0252 34.2561L59.0776 35.2036C58.7064 35.5749 58.7064 36.1765 59.0776 36.5476C59.4488 36.9188 60.0503 36.9188 60.4215 36.5476L61.3691 35.6C61.7403 35.2289 61.7403 34.6273 61.3691 34.2561C60.998 33.8849 60.3964 33.8849 60.0252 34.2561Z" fill="url(#paint38_linear_254_7280)"/>
<path d="M39.5472 54.734L38.5996 55.6816C38.2284 56.0528 38.2284 56.6543 38.5996 57.0256C38.9707 57.3968 39.5723 57.3968 39.9435 57.0256L40.8911 56.078C41.2623 55.7068 41.2623 55.1053 40.8911 54.734C40.5199 54.3628 39.9182 54.363 39.5472 54.734Z" fill="url(#paint39_linear_254_7280)"/>
<path d="M60.4215 54.7341C60.0503 54.3629 59.4488 54.3629 59.0776 54.7341C58.7064 55.1053 58.7064 55.7068 59.0776 56.078L60.0252 57.0256C60.3964 57.3968 60.9979 57.3968 61.3691 57.0256C61.7403 56.6544 61.7403 56.0529 61.3691 55.6817L60.4215 54.7341Z" fill="url(#paint40_linear_254_7280)"/>
<path d="M39.9435 34.256C39.5723 33.8849 38.9708 33.8849 38.5996 34.256C38.2284 34.6272 38.2284 35.2288 38.5996 35.5999L39.5472 36.5475C39.9184 36.9187 40.5199 36.9187 40.8911 36.5475C41.2623 36.1764 41.2623 35.5748 40.8911 35.2036L39.9435 34.256Z" fill="url(#paint41_linear_254_7280)"/>
<path d="M55.4745 44.6155C54.2417 45.8484 52.2429 45.8484 51.0101 44.6155C49.7772 43.3827 49.7772 41.3839 51.0101 40.1511C52.2429 38.9182 59.8732 33.2867 61.106 34.5196C62.3389 35.7524 56.7073 43.3827 55.4745 44.6155Z" fill="url(#paint42_linear_254_7280)"/>
<path d="M49.9844 49.1732C51.9351 49.1732 53.5164 47.5919 53.5164 45.6412C53.5164 43.6904 51.9351 42.1091 49.9844 42.1091C48.0336 42.1091 46.4523 43.6904 46.4523 45.6412C46.4523 47.5919 48.0336 49.1732 49.9844 49.1732Z" fill="url(#paint43_linear_254_7280)"/>
<path d="M46.4523 45.6411C46.4523 47.5919 48.0336 49.1732 49.9844 49.1732C51.9351 49.1732 53.5164 47.5919 53.5164 45.6411C53.5164 45.2186 53.442 44.8136 53.306 44.4381H46.6626C46.5267 44.8136 46.4523 45.2186 46.4523 45.6411Z" fill="url(#paint44_linear_254_7280)"/>
<path d="M47.4867 48.1387C48.8661 49.518 51.1025 49.518 52.4818 48.1387C53.8611 46.7593 53.8611 44.5229 52.4818 43.1436C52.1831 42.8448 51.844 42.611 51.4823 42.4418L46.7848 47.1393C46.9541 47.501 47.188 47.8399 47.4867 48.1387Z" fill="url(#paint45_linear_254_7280)"/>
<defs>
<linearGradient id="paint0_linear_254_7280" x1="63.451" y1="34.5817" x2="63.451" y2="44.5031" gradientUnits="userSpaceOnUse">
<stop stop-color="#4793EB"/>
<stop offset="1" stop-color="#2367EC"/>
</linearGradient>
<linearGradient id="paint1_linear_254_7280" x1="34.8337" y1="22.815" x2="61.9347" y2="37.0132" gradientUnits="userSpaceOnUse">
<stop stop-color="#3E4154"/>
<stop offset="1" stop-color="#1B2129"/>
</linearGradient>
<linearGradient id="paint2_linear_254_7280" x1="50.6217" y1="54.009" x2="50.6217" y2="80.3496" gradientUnits="userSpaceOnUse">
<stop stop-color="#4793EB"/>
<stop offset="1" stop-color="#2367EC"/>
</linearGradient>
<linearGradient id="paint3_linear_254_7280" x1="50.6217" y1="62.9938" x2="50.6217" y2="79.6303" gradientUnits="userSpaceOnUse">
<stop stop-color="#2B50D2"/>
<stop offset="1" stop-color="#182EA5"/>
</linearGradient>
<linearGradient id="paint4_linear_254_7280" x1="36.5648" y1="67.2829" x2="42.6523" y2="69.8015" gradientUnits="userSpaceOnUse">
<stop stop-color="white"/>
<stop offset="1" stop-color="#DADFE0"/>
</linearGradient>
<linearGradient id="paint5_linear_254_7280" x1="50.6217" y1="53.5235" x2="50.6217" y2="63.0472" gradientUnits="userSpaceOnUse">
<stop stop-color="#6FC6FC"/>
<stop offset="1" stop-color="#50A7F6"/>
</linearGradient>
<linearGradient id="paint6_linear_254_7280" x1="45.0475" y1="52.6326" x2="56.7715" y2="58.402" gradientUnits="userSpaceOnUse">
<stop stop-color="#F1D2BD"/>
<stop offset="1" stop-color="#FEB592"/>
</linearGradient>
<linearGradient id="paint7_linear_254_7280" x1="60.2435" y1="43.47" x2="60.2435" y2="49.2078" gradientUnits="userSpaceOnUse">
<stop stop-color="#C6CBCC"/>
<stop offset="1" stop-color="#9FA5A6"/>
</linearGradient>
<linearGradient id="paint8_linear_254_7280" x1="37.7922" y1="34.5817" x2="37.7922" y2="44.5031" gradientUnits="userSpaceOnUse">
<stop stop-color="#4793EB"/>
<stop offset="1" stop-color="#2367EC"/>
</linearGradient>
<linearGradient id="paint9_linear_254_7280" x1="50.6217" y1="31.2305" x2="50.6217" y2="55.9787" gradientUnits="userSpaceOnUse">
<stop stop-color="#F1D2BD"/>
<stop offset="0.314" stop-color="#F2CFB9"/>
<stop offset="0.608" stop-color="#F5C7AD"/>
<stop offset="0.894" stop-color="#FBBB9B"/>
<stop offset="1" stop-color="#FEB592"/>
</linearGradient>
<linearGradient id="paint10_linear_254_7280" x1="58.3191" y1="18.9999" x2="58.3191" y2="49.2076" gradientUnits="userSpaceOnUse">
<stop stop-color="#C6CBCC"/>
<stop offset="1" stop-color="#9FA5A6"/>
</linearGradient>
<linearGradient id="paint11_linear_254_7280" x1="53.1876" y1="45.5579" x2="53.1876" y2="50.2231" gradientUnits="userSpaceOnUse">
<stop stop-color="#4793EB"/>
<stop offset="1" stop-color="#2367EC"/>
</linearGradient>
<linearGradient id="paint12_linear_254_7280" x1="40.0554" y1="32.356" x2="57.8952" y2="68.0355" gradientUnits="userSpaceOnUse">
<stop stop-color="#FFDFCF"/>
<stop offset="1" stop-color="#FFA78F"/>
</linearGradient>
<linearGradient id="paint13_linear_254_7280" x1="49.9844" y1="62.348" x2="49.9844" y2="76.5639" gradientUnits="userSpaceOnUse">
<stop stop-color="#F89580" stop-opacity="0"/>
<stop offset="0.2859" stop-color="#EE8E79" stop-opacity="0.287"/>
<stop offset="0.7624" stop-color="#D57B65" stop-opacity="0.765"/>
<stop offset="0.9972" stop-color="#C5715A"/>
</linearGradient>
<linearGradient id="paint14_linear_254_7280" x1="67.2122" y1="52.5959" x2="78.0787" y2="52.5959" gradientUnits="userSpaceOnUse">
<stop stop-color="#F89580" stop-opacity="0"/>
<stop offset="0.2859" stop-color="#EE8E79" stop-opacity="0.287"/>
<stop offset="0.7624" stop-color="#D57B65" stop-opacity="0.765"/>
<stop offset="0.9972" stop-color="#C5715A"/>
</linearGradient>
<linearGradient id="paint15_linear_254_7280" x1="70.345" y1="64.1383" x2="54.3239" y2="48.1172" gradientUnits="userSpaceOnUse">
<stop stop-color="#F89580" stop-opacity="0"/>
<stop offset="0.2859" stop-color="#EE8E79" stop-opacity="0.287"/>
<stop offset="0.7624" stop-color="#D57B65" stop-opacity="0.765"/>
<stop offset="0.9972" stop-color="#C5715A"/>
</linearGradient>
<linearGradient id="paint16_linear_254_7280" x1="48.6834" y1="23.3389" x2="51.2662" y2="23.3389" gradientUnits="userSpaceOnUse">
<stop stop-color="#5A5A5A"/>
<stop offset="1" stop-color="#444444"/>
</linearGradient>
<linearGradient id="paint17_linear_254_7280" x1="49.8661" y1="24.4865" x2="50.0774" y2="22.4351" gradientUnits="userSpaceOnUse">
<stop stop-color="#433F43" stop-opacity="0"/>
<stop offset="1" stop-color="#1A1A1A"/>
</linearGradient>
<linearGradient id="paint18_linear_254_7280" x1="49.532" y1="17.9534" x2="50.7086" y2="22.6142" gradientUnits="userSpaceOnUse">
<stop stop-color="#B3DAFE"/>
<stop offset="1" stop-color="#0182FC"/>
</linearGradient>
<linearGradient id="paint19_linear_254_7280" x1="49.6672" y1="17.4415" x2="50.527" y2="23.6861" gradientUnits="userSpaceOnUse">
<stop stop-color="#314DC9" stop-opacity="0"/>
<stop offset="0.2761" stop-color="#304BC4" stop-opacity="0.276"/>
<stop offset="0.5628" stop-color="#2B45B8" stop-opacity="0.563"/>
<stop offset="0.8535" stop-color="#243BA3" stop-opacity="0.854"/>
<stop offset="1" stop-color="#1F3596"/>
</linearGradient>
<linearGradient id="paint20_linear_254_7280" x1="49.9842" y1="19.734" x2="49.9842" y2="22.3197" gradientUnits="userSpaceOnUse">
<stop stop-color="#314DC9" stop-opacity="0"/>
<stop offset="0.2761" stop-color="#304BC4" stop-opacity="0.276"/>
<stop offset="0.5628" stop-color="#2B45B8" stop-opacity="0.563"/>
<stop offset="0.8535" stop-color="#243BA3" stop-opacity="0.854"/>
<stop offset="1" stop-color="#1F3596"/>
</linearGradient>
<linearGradient id="paint21_linear_254_7280" x1="64.8042" y1="28.9706" x2="66.6302" y2="30.7967" gradientUnits="userSpaceOnUse">
<stop stop-color="#5A5A5A"/>
<stop offset="1" stop-color="#444444"/>
</linearGradient>
<linearGradient id="paint22_linear_254_7280" x1="64.829" y1="30.6182" x2="66.4287" y2="29.3173" gradientUnits="userSpaceOnUse">
<stop stop-color="#433F43" stop-opacity="0"/>
<stop offset="1" stop-color="#1A1A1A"/>
</linearGradient>
<linearGradient id="paint23_linear_254_7280" x1="69.2117" y1="25.763" x2="66.7483" y2="29.8901" gradientUnits="userSpaceOnUse">
<stop stop-color="#C9F6B0"/>
<stop offset="1" stop-color="#0BB494"/>
</linearGradient>
<linearGradient id="paint24_linear_254_7280" x1="69.6691" y1="25.4968" x2="65.862" y2="30.5195" gradientUnits="userSpaceOnUse">
<stop stop-color="#00A887" stop-opacity="0"/>
<stop offset="0.3602" stop-color="#01A58C" stop-opacity="0.36"/>
<stop offset="0.7945" stop-color="#069C9A" stop-opacity="0.795"/>
<stop offset="1" stop-color="#0996A4"/>
</linearGradient>
<linearGradient id="paint25_linear_254_7280" x1="68.2726" y1="27.3416" x2="66.4446" y2="29.1697" gradientUnits="userSpaceOnUse">
<stop stop-color="#00A887" stop-opacity="0"/>
<stop offset="0.3602" stop-color="#01A58C" stop-opacity="0.36"/>
<stop offset="0.7945" stop-color="#069C9A" stop-opacity="0.795"/>
<stop offset="1" stop-color="#0996A4"/>
</linearGradient>
<linearGradient id="paint26_linear_254_7280" x1="40.0003" y1="35.6569" x2="58.5584" y2="54.215" gradientUnits="userSpaceOnUse">
<stop stop-color="#B3DAFE"/>
<stop offset="1" stop-color="#0182FC"/>
</linearGradient>
<linearGradient id="paint27_linear_254_7280" x1="66.1326" y1="61.7893" x2="27.5986" y2="23.2552" gradientUnits="userSpaceOnUse">
<stop stop-color="#B3DAFE"/>
<stop offset="1" stop-color="#0182FC"/>
</linearGradient>
<linearGradient id="paint28_linear_254_7280" x1="49.7037" y1="48.7741" x2="48.0647" y2="67.0615" gradientUnits="userSpaceOnUse">
<stop stop-color="#314DC9" stop-opacity="0"/>
<stop offset="0.2761" stop-color="#304BC4" stop-opacity="0.276"/>
<stop offset="0.5628" stop-color="#2B45B8" stop-opacity="0.563"/>
<stop offset="0.8535" stop-color="#243BA3" stop-opacity="0.854"/>
<stop offset="1" stop-color="#1F3596"/>
</linearGradient>
<linearGradient id="paint29_linear_254_7280" x1="54.0842" y1="48.1289" x2="67.0234" y2="55.9787" gradientUnits="userSpaceOnUse">
<stop stop-color="#314DC9" stop-opacity="0"/>
<stop offset="0.2761" stop-color="#304BC4" stop-opacity="0.276"/>
<stop offset="0.5628" stop-color="#2B45B8" stop-opacity="0.563"/>
<stop offset="0.8535" stop-color="#243BA3" stop-opacity="0.854"/>
<stop offset="1" stop-color="#1F3596"/>
</linearGradient>
<linearGradient id="paint30_linear_254_7280" x1="45.0231" y1="40.6798" x2="61.8284" y2="57.4851" gradientUnits="userSpaceOnUse">
<stop stop-color="#F5FBFF"/>
<stop offset="1" stop-color="#D8ECFE"/>
</linearGradient>
<linearGradient id="paint31_linear_254_7280" x1="49.2284" y1="42.9801" x2="45.2916" y2="29.1333" gradientUnits="userSpaceOnUse">
<stop stop-color="#B3DAFE" stop-opacity="0"/>
<stop offset="0.4315" stop-color="#B1D9FE" stop-opacity="0.432"/>
<stop offset="0.6657" stop-color="#A9D6FE" stop-opacity="0.666"/>
<stop offset="0.852" stop-color="#9BD0FE" stop-opacity="0.852"/>
<stop offset="1" stop-color="#8AC9FE"/>
</linearGradient>
<linearGradient id="paint32_linear_254_7280" x1="45.8506" y1="43.9555" x2="33.0899" y2="38.7969" gradientUnits="userSpaceOnUse">
<stop stop-color="#B3DAFE" stop-opacity="0"/>
<stop offset="0.4315" stop-color="#B1D9FE" stop-opacity="0.432"/>
<stop offset="0.6657" stop-color="#A9D6FE" stop-opacity="0.666"/>
<stop offset="0.852" stop-color="#9BD0FE" stop-opacity="0.852"/>
<stop offset="1" stop-color="#8AC9FE"/>
</linearGradient>
<linearGradient id="paint33_linear_254_7280" x1="62.2415" y1="48.9912" x2="54.9411" y2="42.7768" gradientUnits="userSpaceOnUse">
<stop stop-color="#B3DAFE" stop-opacity="0"/>
<stop offset="0.4315" stop-color="#B1D9FE" stop-opacity="0.432"/>
<stop offset="0.6657" stop-color="#A9D6FE" stop-opacity="0.666"/>
<stop offset="0.852" stop-color="#9BD0FE" stop-opacity="0.852"/>
<stop offset="1" stop-color="#8AC9FE"/>
</linearGradient>
<linearGradient id="paint34_linear_254_7280" x1="29.7861" y1="2.98649" x2="56.2577" y2="39.911" gradientUnits="userSpaceOnUse">
<stop stop-color="#B3DAFE" stop-opacity="0"/>
<stop offset="0.4315" stop-color="#B1D9FE" stop-opacity="0.432"/>
<stop offset="0.6657" stop-color="#A9D6FE" stop-opacity="0.666"/>
<stop offset="0.852" stop-color="#9BD0FE" stop-opacity="0.852"/>
<stop offset="1" stop-color="#8AC9FE"/>
</linearGradient>
<linearGradient id="paint35_linear_254_7280" x1="16.0724" y1="12.8182" x2="42.544" y2="49.7426" gradientUnits="userSpaceOnUse">
<stop stop-color="#B3DAFE" stop-opacity="0"/>
<stop offset="0.4315" stop-color="#B1D9FE" stop-opacity="0.432"/>
<stop offset="0.6657" stop-color="#A9D6FE" stop-opacity="0.666"/>
<stop offset="0.852" stop-color="#9BD0FE" stop-opacity="0.852"/>
<stop offset="1" stop-color="#8AC9FE"/>
</linearGradient>
<linearGradient id="paint36_linear_254_7280" x1="32.4936" y1="1.04545" x2="58.9652" y2="37.9698" gradientUnits="userSpaceOnUse">
<stop stop-color="#B3DAFE" stop-opacity="0"/>
<stop offset="0.4315" stop-color="#B1D9FE" stop-opacity="0.432"/>
<stop offset="0.6657" stop-color="#A9D6FE" stop-opacity="0.666"/>
<stop offset="0.852" stop-color="#9BD0FE" stop-opacity="0.852"/>
<stop offset="1" stop-color="#8AC9FE"/>
</linearGradient>
<linearGradient id="paint37_linear_254_7280" x1="13.3647" y1="14.759" x2="39.8363" y2="51.6836" gradientUnits="userSpaceOnUse">
<stop stop-color="#B3DAFE" stop-opacity="0"/>
<stop offset="0.4315" stop-color="#B1D9FE" stop-opacity="0.432"/>
<stop offset="0.6657" stop-color="#A9D6FE" stop-opacity="0.666"/>
<stop offset="0.852" stop-color="#9BD0FE" stop-opacity="0.852"/>
<stop offset="1" stop-color="#8AC9FE"/>
</linearGradient>
<linearGradient id="paint38_linear_254_7280" x1="34.5408" y1="-0.422153" x2="61.0124" y2="36.5024" gradientUnits="userSpaceOnUse">
<stop stop-color="#B3DAFE" stop-opacity="0"/>
<stop offset="0.4315" stop-color="#B1D9FE" stop-opacity="0.432"/>
<stop offset="0.6657" stop-color="#A9D6FE" stop-opacity="0.666"/>
<stop offset="0.852" stop-color="#9BD0FE" stop-opacity="0.852"/>
<stop offset="1" stop-color="#8AC9FE"/>
</linearGradient>
<linearGradient id="paint39_linear_254_7280" x1="11.3176" y1="16.2268" x2="37.7893" y2="53.1513" gradientUnits="userSpaceOnUse">
<stop stop-color="#B3DAFE" stop-opacity="0"/>
<stop offset="0.4315" stop-color="#B1D9FE" stop-opacity="0.432"/>
<stop offset="0.6657" stop-color="#A9D6FE" stop-opacity="0.666"/>
<stop offset="0.852" stop-color="#9BD0FE" stop-opacity="0.852"/>
<stop offset="1" stop-color="#8AC9FE"/>
</linearGradient>
<linearGradient id="paint40_linear_254_7280" x1="24.8437" y1="6.52976" x2="51.3154" y2="43.4543" gradientUnits="userSpaceOnUse">
<stop stop-color="#B3DAFE" stop-opacity="0"/>
<stop offset="0.4315" stop-color="#B1D9FE" stop-opacity="0.432"/>
<stop offset="0.6657" stop-color="#A9D6FE" stop-opacity="0.666"/>
<stop offset="0.852" stop-color="#9BD0FE" stop-opacity="0.852"/>
<stop offset="1" stop-color="#8AC9FE"/>
</linearGradient>
<linearGradient id="paint41_linear_254_7280" x1="21.0147" y1="9.2748" x2="47.4863" y2="46.1993" gradientUnits="userSpaceOnUse">
<stop stop-color="#B3DAFE" stop-opacity="0"/>
<stop offset="0.4315" stop-color="#B1D9FE" stop-opacity="0.432"/>
<stop offset="0.6657" stop-color="#A9D6FE" stop-opacity="0.666"/>
<stop offset="0.852" stop-color="#9BD0FE" stop-opacity="0.852"/>
<stop offset="1" stop-color="#8AC9FE"/>
</linearGradient>
<linearGradient id="paint42_linear_254_7280" x1="55.4245" y1="38.9296" x2="57.8652" y2="41.3704" gradientUnits="userSpaceOnUse">
<stop stop-color="#FFA1AE"/>
<stop offset="1" stop-color="#FF4565"/>
</linearGradient>
<linearGradient id="paint43_linear_254_7280" x1="48.9147" y1="44.5714" x2="51.7744" y2="47.4312" gradientUnits="userSpaceOnUse">
<stop stop-color="#FEF0AE"/>
<stop offset="1" stop-color="#FAC600"/>
</linearGradient>
<linearGradient id="paint44_linear_254_7280" x1="49.9384" y1="46.1539" x2="49.6701" y2="49.1468" gradientUnits="userSpaceOnUse">
<stop stop-color="#FE9738" stop-opacity="0"/>
<stop offset="1" stop-color="#FE9738"/>
</linearGradient>
<linearGradient id="paint45_linear_254_7280" x1="50.6552" y1="46.0483" x2="52.7729" y2="47.333" gradientUnits="userSpaceOnUse">
<stop stop-color="#FE9738" stop-opacity="0"/>
<stop offset="1" stop-color="#FE9738"/>
</linearGradient>
</defs>
</svg>
