<svg width="108" height="234" viewBox="0 0 108 234" fill="none" xmlns="http://www.w3.org/2000/svg">
<path d="M44.7373 57.3905C41.9956 53.499 39.4449 49.5802 37.0443 45.471C35.8303 43.43 34.671 41.3346 33.5389 39.1847C32.966 38.1098 32.434 36.9804 31.902 35.8102C31.3701 34.6264 30.8381 33.2794 30.4426 32.0412C28.9285 27.1836 28.0283 22.6389 27.169 17.9582C26.3233 13.3183 25.6822 8.66484 25.2184 3.95691C25.0684 2.43296 26.1869 1.07227 27.7146 0.922601C29.0104 0.80014 30.1834 1.57574 30.6062 2.74592V2.77312C32.1748 7.14087 33.6889 11.5495 35.1484 15.9172C35.8986 18.0943 36.6078 20.285 37.3853 22.4076C38.1219 24.5439 38.913 26.6937 39.7314 28.5987C40.1269 29.5512 40.5225 30.3267 41.0409 31.2248C41.5592 32.1364 42.1457 33.0481 42.7186 33.9869C43.8916 35.8647 45.1601 37.756 46.4014 39.6609C48.9248 43.4436 51.4891 47.2943 53.9852 51.1042L54.0125 51.145C55.6902 53.7167 54.9537 57.1728 52.3757 58.8464C49.8523 60.4792 46.4968 59.8125 44.7782 57.3769L44.7373 57.3905Z" fill="#E9B376"/>
<path d="M0.87102 162.502C-1.72058 167.836 56.9314 170.081 56.9314 170.081C56.9314 170.081 52.9485 153.522 35.2711 150.964C17.5937 148.392 5.24946 153.522 0.87102 162.502Z" fill="#407BFF"/>
<path opacity="0.2" d="M0.87102 162.502C-1.72058 167.836 56.9314 170.081 56.9314 170.081C56.9314 170.081 52.9485 153.522 35.2711 150.964C17.5937 148.392 5.24946 153.522 0.87102 162.502Z" fill="black"/>
<path d="M19.1486 225.815L28.342 224.835C28.342 224.835 20.8127 171.32 24.5228 165.999C27.66 161.523 42.5139 160.597 63.4513 159.536C67.3524 159.346 71.4717 159.142 75.7683 158.924C103.062 157.495 45.9921 129.874 45.9921 129.874C45.9921 129.874 14.5246 138.922 4.99028 151.454C-3.7666 162.979 19.1486 225.801 19.1486 225.801V225.815Z" fill="#EBB376"/>
<path opacity="0.1" d="M19.1486 225.815L28.342 224.835C28.342 224.835 20.8127 171.32 24.5228 165.999C27.66 161.523 42.5139 160.597 63.4513 159.536C67.3524 159.346 71.4717 159.142 75.7683 158.924C103.062 157.495 45.9921 129.874 45.9921 129.874C45.9921 129.874 14.5246 138.922 4.99028 151.454C-3.7666 162.979 19.1486 225.801 19.1486 225.801V225.815Z" fill="black"/>
<path d="M17.2117 221.311L28.9148 220.59C29.324 220.549 29.6923 220.834 29.7332 221.243L30.879 230.454C30.9472 231.461 30.1834 232.332 29.174 232.4C25.082 232.591 23.1315 232.468 17.9756 232.754C14.8111 232.944 8.59123 233.611 4.22643 233.189C-0.13837 232.768 0.3936 228.481 2.27592 228.277C6.7362 227.774 12.656 224.495 15.4522 222.018C15.9432 221.596 16.557 221.338 17.2117 221.311Z" fill="#263238"/>
<path d="M11.633 222.93C11.2511 222.59 11.1146 222.073 11.251 221.596C11.292 221.283 11.4829 221.011 11.7694 220.875C13.0242 220.304 16.0933 222.127 16.4479 222.345C16.5298 222.399 16.5707 222.494 16.557 222.59C16.557 222.685 16.4752 222.767 16.3797 222.78C15.4795 223.066 14.5519 223.243 13.6244 223.324C12.9424 223.447 12.2195 223.311 11.633 222.93ZM11.974 221.351C11.8376 221.42 11.7421 221.556 11.7284 221.705C11.6466 222.005 11.7285 222.331 11.9603 222.562C12.4787 223.011 13.8563 222.984 15.6977 222.494C14.4428 221.801 12.656 221.039 11.9876 221.351H11.974Z" fill="#407BFF"/>
<path d="M16.1887 222.794C15.1112 222.249 13.4198 220.168 13.5835 219.025C13.6517 218.603 13.9927 218.276 14.4155 218.235C14.7974 218.167 15.1794 218.263 15.4794 218.508C16.5843 219.46 16.5297 222.508 16.5434 222.59C16.5434 222.671 16.4888 222.739 16.4206 222.794C16.3797 222.794 16.3524 222.794 16.3115 222.794C16.2706 222.821 16.2297 222.821 16.1751 222.807L16.1887 222.794ZM14.511 218.739C14.17 218.807 14.0882 218.97 14.0745 219.12C14.0063 219.882 15.0975 221.46 16.0523 222.168C16.0114 221.188 15.8341 219.487 15.1657 218.916C15.0293 218.78 14.8247 218.712 14.6338 218.725H14.511V218.739Z" fill="#407BFF"/>
<path d="M36.0759 152.501C38.0809 144.991 51.5709 133.37 62.7011 131.588L78.769 159.019C61.9236 159.713 56.7405 164.611 56.3585 166.176C54.5444 173.619 60.2596 225.828 60.2596 225.828H50.507C50.507 225.828 31.1382 171.034 36.0759 152.515V152.501Z" fill="#EBB376"/>
<path d="M54.5853 119.41C54.5853 119.41 25.0138 131.466 11.6875 142.759C0.734582 152.039 0.870991 162.516 0.870991 162.516C0.870991 162.516 9.35508 154.937 22.8723 157.645C40.1406 161.101 56.9314 170.095 56.9314 170.095C56.9314 170.095 64.2015 161.591 86.3665 159.169C108.531 156.747 108.627 135.616 97.565 118.417L54.5853 119.424V119.41Z" fill="#4CC1FF"/>
<path d="M49.7022 221.311L61.4053 220.59C61.8145 220.549 62.1828 220.834 62.2237 221.243L63.3695 230.454C63.4377 231.461 62.6739 232.332 61.6645 232.4C57.5725 232.591 55.622 232.468 50.466 232.754C47.3016 232.944 41.0817 233.611 36.7169 233.189C32.3521 232.768 32.8841 228.481 34.78 228.277C39.2403 227.774 45.1601 224.495 47.9563 222.018C48.4473 221.596 49.0611 221.338 49.7158 221.311H49.7022Z" fill="#263238"/>
<path d="M44.1371 222.93C43.7552 222.59 43.6188 222.073 43.7552 221.596C43.7961 221.283 43.9871 221.011 44.2735 220.875C45.5284 220.304 48.5974 222.127 48.952 222.345C49.0339 222.399 49.0748 222.494 49.0611 222.59C49.0611 222.685 48.9793 222.767 48.8839 222.78C47.9836 223.066 47.0561 223.243 46.1285 223.324C45.4465 223.447 44.7236 223.311 44.1371 222.93ZM44.4781 221.351C44.3417 221.42 44.2462 221.556 44.2326 221.705C44.1508 222.005 44.2326 222.331 44.4645 222.562C44.9828 223.011 46.3605 222.984 48.2019 222.494C46.947 221.801 45.1601 221.039 44.4918 221.351H44.4781Z" fill="#407BFF"/>
<path d="M48.6928 222.794C47.6153 222.249 45.9239 220.168 46.0876 219.025C46.1558 218.603 46.4968 218.276 46.9197 218.235C47.3016 218.167 47.6835 218.263 47.9836 218.508C49.0884 219.46 49.0338 222.508 49.0475 222.59C49.0475 222.671 48.9929 222.739 48.9247 222.794C48.8838 222.794 48.8565 222.794 48.8156 222.794C48.7747 222.821 48.7337 222.821 48.6792 222.807L48.6928 222.794ZM47.0151 218.739C46.6741 218.807 46.5923 218.97 46.5787 219.12C46.5105 219.882 47.6016 221.46 48.5564 222.168C48.5155 221.188 48.3382 219.487 47.6698 218.916C47.5334 218.78 47.3289 218.712 47.1379 218.725H47.0151V218.739Z" fill="#407BFF"/>
<path d="M36.2123 49.5123L47.8335 40.5999C47.8335 40.5999 47.9017 40.6543 48.0381 40.7495C48.1063 40.804 48.2018 40.872 48.2973 40.94C48.2973 40.94 48.3246 40.9536 48.3382 40.9672C48.3382 40.9672 48.3382 40.9672 48.3382 40.9808C48.6792 41.2394 49.1839 41.634 49.7704 42.1238C49.9477 42.2735 50.1523 42.4368 50.3569 42.6C50.3979 42.6409 50.4524 42.6817 50.507 42.7361C50.7116 42.913 50.9162 43.0899 51.1208 43.2668C51.3936 43.4981 51.6527 43.743 51.9392 43.9879C53.4532 45.3486 61.5008 52.0703 62.783 53.7167C63.0012 54.0161 63.2195 54.3018 63.4104 54.6012C63.8469 55.2135 64.2015 55.8258 64.447 56.3973C64.488 56.4925 64.5289 56.5878 64.5425 56.683C64.5698 56.7374 64.5971 56.8055 64.6108 56.8735C64.6517 56.996 64.6926 57.1456 64.7199 57.2953C64.7471 57.3906 64.7608 57.4994 64.7744 57.6083C64.7744 57.6899 64.8017 57.7715 64.8017 57.8668C64.8153 58.0437 64.8426 58.207 64.8563 58.3974C64.8563 58.5879 64.8563 58.792 64.8699 58.9961C64.8699 59.1866 64.8699 59.3907 64.8699 59.6084C64.8699 59.6629 64.8699 59.7173 64.8699 59.7717C64.8699 59.935 64.8562 60.0983 64.8426 60.248C64.829 60.4657 64.8153 60.697 64.788 60.9283C64.7608 61.1596 64.7471 61.3909 64.7062 61.6086C64.6789 61.8536 64.638 62.0849 64.5971 62.3298C63.5332 68.9699 53.2759 72.5348 50.2751 70.902C44.3008 67.6092 38.4765 54.9141 36.7306 50.8049C36.3759 49.9885 36.1986 49.5123 36.1986 49.5123H36.2123Z" fill="#4CC1FF"/>
<path opacity="0.6" d="M64.8972 59.0097C64.8972 59.2002 64.8972 59.4043 64.8972 59.6084C64.8972 59.6628 64.8972 59.7172 64.8972 59.7716C64.8972 59.9485 64.8699 60.0982 64.8699 60.2615C64.8699 60.4792 64.8426 60.7105 64.8017 60.9418C64.7744 61.1731 64.7608 61.4045 64.7199 61.6358C64.6926 61.8671 64.6517 62.112 64.6244 62.3433C63.7378 67.8404 56.5495 71.2285 52.403 71.2965C51.5436 71.2965 50.8207 71.1877 50.3024 70.902C48.5019 69.9087 46.7151 68.0854 45.0646 65.8811C44.8327 65.5817 44.6145 65.2824 44.3963 64.9694C40.8362 59.9485 37.9036 53.5126 36.7442 50.8048C36.4032 49.9748 36.2123 49.4986 36.2123 49.4986L47.8335 40.5862C47.8335 40.5862 47.9017 40.6406 48.0381 40.7359C48.1063 40.7903 48.1882 40.8447 48.2973 40.9263C48.2973 40.9263 48.3246 40.9263 48.3519 40.9672C48.6792 41.2257 49.1839 41.6203 49.7841 42.1101C49.9614 42.2462 50.166 42.4095 50.3706 42.5864C50.4115 42.6408 50.4661 42.668 50.507 42.7088C50.7116 42.8721 50.9162 43.0354 51.1344 43.2395C51.4072 43.4708 51.6528 43.7157 51.9392 43.947C53.4532 45.3077 61.5145 52.043 62.783 53.6758C63.0013 53.9752 63.2195 54.2609 63.4104 54.5739C63.8469 55.1862 64.2015 55.7985 64.4607 56.37C64.5016 56.4788 64.5426 56.5605 64.5562 56.6693C64.5835 56.7237 64.6107 56.7918 64.6244 56.8598C64.6653 56.9823 64.7062 57.1319 64.7335 57.2816C64.7608 57.3769 64.7744 57.4857 64.8017 57.581C64.8017 57.6762 64.8017 57.7442 64.829 57.8395C64.8563 58.0164 64.8699 58.1797 64.8972 58.3702C64.8972 58.5606 64.8972 58.7511 64.8972 58.9689V59.0097Z" fill="white"/>
<path d="M35.2166 48.8591L46.9197 38.7085L48.5974 39.8923L49.1839 40.3005L48.3519 40.9944L48.2564 41.0761L36.7442 50.8049L36.4305 51.077L35.2166 48.8591Z" fill="#4CC1FF"/>
<path opacity="0.2" d="M52.3893 71.2966C51.53 71.2966 50.8071 71.1878 50.2888 70.902C48.4883 69.9088 46.7015 68.0855 45.051 65.8812C47.3698 62.4931 51.6255 60.4385 51.6255 60.4385C54.5854 64.017 53.5078 67.7589 52.3757 71.2966H52.3893Z" fill="black"/>
<path d="M100.211 122.621C100.211 122.621 99.4609 79.6784 95.3689 70.8749C91.2769 62.0713 84.6888 50.0294 56.113 56.996C56.113 56.996 45.2828 60.0439 47.1379 73.3649C48.9929 86.6859 49.5931 121.247 49.5931 121.247L100.211 122.635V122.621Z" fill="#4CC1FF"/>
<path opacity="0.6" d="M47.1384 73.3375C47.684 77.2563 48.1205 83.0119 48.4615 89.1757C48.5433 90.6044 48.6115 92.074 48.6933 93.5299C48.857 96.918 48.9934 100.333 49.1161 103.544C49.1434 104.102 49.1571 104.66 49.1844 105.218C49.4845 114.185 49.6072 121.206 49.6072 121.206L100.225 122.607C100.225 122.607 99.475 79.651 95.383 70.8475C91.291 62.0439 84.7029 49.9884 56.1407 56.9686C56.1407 56.9686 45.3106 60.0029 47.152 73.3239L47.1384 73.3375Z" fill="#EEF9FF"/>
<path d="M60.4642 64.9695L57.1633 59.622L52.6075 64.9695C52.6075 64.9695 53.8897 50.7777 70.4214 50.4511C77.2005 50.315 78.7964 56.0435 78.7964 56.0435C75.9047 60.7106 68.2117 65.7859 68.2117 65.7859L65.1564 61.1596L60.4505 64.9559L60.4642 64.9695Z" fill="#407BFF"/>
<path d="M29.9515 73.1606L21.9039 93.9381" stroke="#263238" stroke-width="2.01" stroke-miterlimit="10"/>
<path d="M73.3403 38.4363C73.3403 38.4363 72.5765 43.3891 72.9447 48.1651C73.0948 50.4782 73.5176 52.7233 74.4042 54.5058C74.4042 54.5058 69.9849 58.7783 66.002 59.6764L61.5962 62.942L61.8827 58.4926C61.8827 58.4926 61.91 58.2613 61.9372 57.8667C62.0464 56.1386 61.8963 50.7368 56.9996 48.7094C50.2478 45.9064 73.3403 38.4363 73.3403 38.4363Z" fill="#EBB376"/>
<path opacity="0.2" d="M73.3403 38.4363C73.3403 38.4363 72.5765 43.3891 72.9447 48.1651C70.1485 52.3287 66.5476 56.3019 61.9372 57.8667C62.0464 56.1386 61.8963 50.7368 56.9996 48.7094C50.2478 45.9064 73.3403 38.4363 73.3403 38.4363Z" fill="black"/>
<path d="M21.1537 86.8764L23.6771 85.8151C24.6319 85.4205 25.7094 85.5021 26.596 86.0328L30.7017 88.55C32.3385 89.5569 33.4024 91.2986 33.5252 93.2171L33.607 94.4009C29.5287 96.4555 23.6089 95.6799 23.6089 95.6799L21.8903 95.6391C20.3626 95.6119 19.2032 94.4553 19.2032 92.9858L19.2305 89.5977C19.2305 88.4275 19.9943 87.339 21.14 86.8628L21.1537 86.8764Z" fill="#EBB376"/>
<path opacity="0.2" d="M48.461 89.1895C48.5428 90.6182 48.611 92.0877 48.6929 93.5436C48.8565 96.9317 48.9929 100.347 49.1157 103.558C49.143 104.116 49.1566 104.674 49.1839 105.232C85.5209 103.572 91.2088 76.7938 91.2088 76.7938C91.2088 76.7938 81.7835 66.9833 76.4912 68.0447C71.1989 69.1196 59.2093 83.5563 59.2093 83.5563L59.714 85.5565C58.3364 87.0669 51.5982 88.5636 48.4883 89.1895H48.461Z" fill="black"/>
<path d="M86.5302 79.7055C84.6888 81.8281 82.902 83.5562 81.006 85.3659C79.0964 87.1348 77.1186 88.822 75.0453 90.4276C72.9857 92.0332 70.8033 93.5299 68.5254 94.945C66.2475 96.3465 63.8332 97.5847 61.2962 98.6868L60.887 98.8637C60.696 98.9454 60.4914 98.9998 60.2868 99.027C59.4684 99.1359 58.5682 99.2856 57.8317 99.3128C57.1087 99.34 56.3449 99.3808 55.6629 99.3536C54.2716 99.3264 52.9485 99.2311 51.6391 99.1087C49.0475 98.8638 46.5377 98.4691 44.0552 98.0337C41.5728 97.5711 39.1312 97.0676 36.6897 96.4825C34.2617 95.8702 31.8611 95.258 29.4468 94.5096C27.9737 94.047 27.1689 92.4958 27.6327 91.0263C28.0146 89.8017 29.1876 89.0261 30.4152 89.0805H30.4289L37.7127 89.4207L44.9555 89.72C47.3425 89.8153 49.7295 89.8289 52.0347 89.8016L53.7397 89.7472L55.3764 89.6384C55.922 89.5975 56.3722 89.5159 56.8768 89.4615C57.3679 89.407 57.6543 89.2846 58.0635 89.2166L57.0542 89.5567C58.9638 88.509 60.8461 87.3388 62.7011 86.0326C64.5425 84.6991 66.3566 83.3113 68.1162 81.8145C69.8757 80.3178 71.6081 78.7666 73.2994 77.161C74.9771 75.5962 76.6958 73.841 78.1552 72.317L78.278 72.181C80.4058 69.9631 83.9386 69.895 86.1619 72.0177C88.3034 74.0723 88.4398 77.4332 86.5302 79.6647V79.7055Z" fill="#E9B376"/>
<path d="M88.4262 61.7176C80.2831 54.2203 63.765 82.1549 63.765 82.1549L73.7632 94.4417C73.7632 94.4417 106.063 77.9504 88.4262 61.7176Z" fill="#4CC1FF"/>
<path opacity="0.6" d="M88.4262 61.7176C80.2831 54.2203 63.765 82.1549 63.765 82.1549L73.7632 94.4417C73.7632 94.4417 106.063 77.9504 88.4262 61.7176Z" fill="white"/>
<path d="M75.8501 94.9859L63.765 80.3179L61.5281 83.5835L71.9763 97.4215L75.8501 94.9859Z" fill="#4CC1FF"/>
<path d="M82.4518 16.6522C82.4518 16.6522 87.2531 10.5972 97.4558 12.5838C107.659 14.5704 112.092 26.6532 103.062 38.5182C94.0322 50.3833 99.5018 53.5536 97.374 56.9417C95.2462 60.3298 91.7816 59.5814 91.7816 59.5814C91.7816 59.5814 95.7781 58.7378 91.0587 54.5742C86.3392 50.4241 86.5029 40.4368 88.8763 35.4839C91.2496 30.5311 87.2258 27.3743 83.6522 28.9663L82.4791 16.6522H82.4518Z" fill="#263238"/>
<path d="M54.5853 11.3728C54.5853 11.3728 47.6971 15.7133 49.293 23.7277C50.8889 31.7421 63.4513 17.3734 63.4513 17.3734L54.5853 11.3728Z" fill="#263238"/>
<path d="M82.7383 31.2657C78.2371 41.1578 76.1774 47.1856 68.4708 50.2199C56.8496 54.8053 44.4781 44.9132 45.542 33.7693C46.4559 23.7276 53.6851 9.27724 66.3839 9.3997C79.0964 9.53577 87.2395 21.3872 82.7383 31.2657Z" fill="#EBB376"/>
<path d="M62.4011 22.6934C62.3465 22.5845 62.3329 22.4621 62.3465 22.3532C62.442 22.0539 62.7421 21.877 63.0421 21.9586C64.8017 22.394 66.2476 23.6731 66.8886 25.3603C66.9841 25.6597 66.8205 25.9726 66.5204 26.0679C66.2203 26.1495 65.9202 25.9862 65.8111 25.7005C65.2655 24.3534 64.1061 23.3737 62.6875 23.0472C62.5375 22.9791 62.4284 22.8431 62.3875 22.6934H62.4011Z" fill="#263238"/>
<path d="M49.8659 19.9178C49.7568 19.8634 49.675 19.7681 49.6204 19.6729C49.5113 19.3735 49.6613 19.0606 49.9614 18.9517C51.6391 18.2714 53.5624 18.4483 55.0764 19.4416C55.3219 19.6185 55.3765 19.9722 55.1991 20.2308C55.0082 20.4621 54.6672 20.5165 54.408 20.3532C53.1804 19.5913 51.6528 19.4688 50.3297 20.0403C50.166 20.0675 50.0023 20.0267 49.8796 19.9314L49.8659 19.9178Z" fill="#263238"/>
<path d="M53.7396 29.7554L50.4524 31.048C50.4524 31.048 50.8343 32.3407 53.3031 33.3612L53.7396 29.7554Z" fill="#D58745"/>
<path d="M51.2299 36.4636C51.6664 38.1508 51.8437 41.2123 51.8437 41.2123C52.1301 41.2531 52.4029 41.2803 52.6894 41.294C56.4949 41.6613 58.3909 40.5728 59.332 39.2529C59.8367 38.5318 60.055 37.729 60.1504 37.0759C60.2596 36.3139 60.1641 35.7424 60.1641 35.7424C58.0226 36.7493 54.4489 36.6813 52.5393 36.5724C51.7346 36.5316 51.2435 36.4636 51.2435 36.4636H51.2299Z" fill="#263238"/>
<path d="M52.5257 36.5724L52.7439 37.9603C56.3313 38.3005 58.9092 38.0556 60.1368 37.0759C60.246 36.3139 60.1504 35.7424 60.1504 35.7424C58.009 36.7493 54.4353 36.6813 52.5257 36.5724Z" fill="white"/>
<path d="M52.6758 41.294C56.4813 41.6614 58.3773 40.5728 59.3185 39.253C58.009 39.185 56.4404 39.2394 55.0082 39.6884C53.917 40.0286 53.1941 40.6409 52.6894 41.294H52.6758Z" fill="#DE5753"/>
<path d="M71.8536 38.4092C71.8536 38.4092 69.6985 34.6266 70.626 29.4424C70.626 29.4424 61.4599 23.6051 59.4958 16.8426C59.4958 16.8426 60.0414 23.2513 64.6517 28.0817C64.6517 28.0817 51.4891 20.4892 53.3168 12.366C55.1446 4.25636 66.6022 4.16111 77.9098 10.0256C89.2173 15.8901 89.5037 26.8435 86.0255 33.6333C86.0255 33.6333 83.1884 48.1925 72.7948 47.757C72.7948 47.757 76.2593 40.9265 71.8399 38.3956L71.8536 38.4092Z" fill="#263238"/>
<path d="M71.7445 35.1301C71.7445 35.1301 75.8092 29.9595 78.3326 32.5992C80.856 35.2389 77.6642 44.8045 73.1903 43.6071C68.7164 42.4233 68.8801 37.7154 71.7445 35.1301Z" fill="#EBB376"/>
<path d="M59.5503 29.2927C59.3184 30.3812 59.7276 31.3745 60.4505 31.5242C61.1734 31.6739 61.9509 30.9255 62.1692 29.837C62.4011 28.7484 61.9919 27.7551 61.2689 27.6055C60.546 27.4558 59.7685 28.2042 59.5503 29.2927Z" fill="#263238"/>
<path d="M61.5554 27.7144L59.3866 26.2993C59.3866 26.2993 60.1368 28.5308 61.5554 27.7144Z" fill="#263238"/>
<path d="M49.6203 26.0544C49.3885 27.1429 49.7977 28.1362 50.5206 28.2859C51.2435 28.4356 52.021 27.6872 52.2392 26.5987C52.4711 25.5102 52.0619 24.5169 51.339 24.3672C50.6161 24.2175 49.8386 24.9659 49.6203 26.0544Z" fill="#263238"/>
<path d="M51.6391 24.4896L49.4703 23.0745C49.4703 23.0745 50.2205 25.306 51.6391 24.4896Z" fill="#263238"/>
</svg>
