<svg width="1440" height="485" viewBox="0 0 1440 485" fill="none" xmlns="http://www.w3.org/2000/svg">
<mask id="mask0_254_7531" style="mask-type:alpha" maskUnits="userSpaceOnUse" x="0" y="0" width="1440" height="485">
<rect width="1440" height="485" fill="#DFF5FF"/>
</mask>
<g mask="url(#mask0_254_7531)">
<path d="M234.465 -584.563C234.123 -584.562 200.245 -584.535 163.108 -571.791C141.287 -564.303 122.623 -553.951 107.633 -541.026C88.8909 -524.856 75.8828 -504.6 68.973 -480.811C56.8152 -438.954 64.4496 -402.413 71.1862 -370.182C81.3352 -321.618 89.3538 -283.26 28.1051 -248.691C22.9729 -245.79 17.9787 -242.996 13.1506 -240.292C-78.608 -188.874 -116.586 -167.591 -92.9142 -40.4354C-83.7571 8.74506 -88.8212 46.0825 -107.968 70.5325C-127.678 95.7001 -155.751 97.6181 -156.039 97.6347L-155.987 98.533C-155.699 98.5164 -127.239 96.5941 -107.277 71.1056C-87.9619 46.4475 -82.831 8.86285 -92.0406 -40.6029C-103.499 -102.17 -100.663 -140.325 -82.5422 -168.186C-64.6946 -195.635 -31.8588 -214.034 13.5835 -239.506C18.4201 -242.219 23.4053 -245.012 28.547 -247.905C56.9064 -263.91 72.3858 -281.793 77.2587 -304.176C81.6695 -324.413 77.0013 -346.731 72.0587 -370.367C65.3458 -402.5 57.7277 -438.916 69.8256 -480.563C85.3587 -534.053 129.277 -559.23 163.391 -570.942C200.386 -583.642 234.12 -583.669 234.463 -583.671L234.465 -584.572L234.465 -584.563Z" fill="white"/>
<path d="M247.726 -542.379C247.4 -542.406 214.374 -544.82 177.654 -535.15C156.076 -529.466 137.456 -520.778 122.313 -509.332C103.37 -495.015 89.8533 -476.32 82.1407 -453.756C68.3642 -413.488 76.2548 -376.59 83.2278 -344.032C93.1901 -297.484 101.794 -257.28 45.9901 -222.154C31.0534 -212.758 17.5043 -204.471 4.39936 -196.453C0.14157 -193.844 -4.02102 -191.303 -8.07836 -188.814C-39.7978 -169.366 -60.5838 -153.697 -72.9329 -131.182C-86.2443 -106.906 -89.153 -75.149 -82.3691 -28.2194C-68.1601 70.0318 -119.664 93.1296 -139.049 101.835C-144.366 104.216 -147.292 105.531 -146.946 107.306L-146.064 107.138C-146.262 106.04 -142.921 104.566 -138.677 102.661C-128.923 98.2825 -110.768 90.1443 -97.1777 70.8499C-80.629 47.3706 -75.344 13.9876 -81.4658 -28.3437C-95.2346 -123.499 -69.5252 -150.078 -7.59241 -188.048C-3.53507 -190.538 0.618532 -193.078 4.88531 -195.687C17.9902 -203.705 31.5484 -211.993 46.4845 -221.397C102.82 -256.852 94.1539 -297.341 84.1276 -344.219C77.1883 -376.662 69.3144 -413.425 83.014 -453.464C100.363 -504.159 144.186 -525.388 177.903 -534.271C214.472 -543.905 247.344 -541.5 247.679 -541.474L247.745 -542.371L247.726 -542.379Z" fill="white"/>
<path d="M261.781 -500.334C261.462 -500.388 229.346 -505.257 193.087 -498.676C171.774 -494.805 153.219 -487.804 137.925 -477.855C118.802 -465.405 104.768 -448.292 96.2218 -426.981C80.806 -388.547 88.66 -352.863 96.2474 -318.361C106.461 -271.935 115.272 -231.836 64.7988 -196.298C45.5066 -182.712 28.4621 -171.401 12.7035 -161.695C-44.5948 -126.53 -79.1705 -105.312 -70.8016 -16.9994C-63.0822 64.2758 -102.686 89.2362 -123.953 102.648C-131.943 107.687 -137.21 111.038 -136.392 115.217L-135.51 115.049C-136.204 111.448 -131.144 108.254 -123.467 103.413C-102.792 90.3688 -64.9198 66.4727 -69.258 -8.68031C-69.4157 -11.4108 -69.6313 -14.2101 -69.9055 -17.0872C-78.2243 -104.843 -43.822 -125.944 13.1802 -160.93C28.9567 -170.636 46.0182 -181.967 65.3189 -195.562C88.603 -211.957 100.924 -230.331 104.106 -253.406C106.939 -273.945 102.174 -295.614 97.1282 -318.556C89.566 -352.933 81.7562 -388.476 97.0608 -426.651C116.249 -474.504 159.948 -491.752 193.228 -497.792C229.344 -504.347 261.334 -499.497 261.652 -499.444L261.79 -500.335L261.781 -500.334Z" fill="white"/>
<path d="M275.064 -458.24C274.753 -458.312 243.527 -465.669 207.677 -462.184C186.603 -460.138 168.073 -454.804 152.611 -446.33C133.258 -435.729 118.666 -420.156 109.253 -400.058C92.1766 -363.597 100.374 -327.397 108.304 -292.397C118.378 -247.912 127.904 -205.891 82.4854 -169.985C62.874 -154.474 47.382 -143.401 32.2669 -134.081C26.0284 -130.25 19.9303 -126.644 14.0412 -123.167C-33.0878 -95.3206 -67.1388 -75.1982 -60.6003 -5.06736C-54.2943 62.4445 -88.1298 87.0801 -110.51 103.391C-121.098 111.107 -128.761 116.688 -127.32 123.988L-126.436 123.82C-127.746 117.071 -120.301 111.638 -109.981 104.118C-98.8127 95.9728 -84.9085 85.8394 -74.2689 69.0067C-61.6795 49.0685 -56.9187 24.795 -59.7032 -5.15519C-66.182 -74.7215 -32.3401 -94.7146 14.501 -122.391C20.3985 -125.878 26.4972 -129.475 32.7442 -133.316C47.8852 -142.655 63.4031 -153.747 83.0495 -169.279C128.908 -205.544 119.33 -247.831 109.185 -292.601C101.291 -327.458 93.1206 -363.499 110.068 -399.681C131.209 -444.815 174.866 -458.099 207.764 -461.297C243.462 -464.764 274.542 -457.444 274.852 -457.371L275.063 -458.249L275.064 -458.24Z" fill="white"/>
<path d="M288.333 -416.224C288.03 -416.324 257.789 -426.178 222.439 -425.806C201.661 -425.581 183.199 -421.926 167.572 -414.927C148.016 -406.176 132.886 -392.143 122.581 -373.229C103.888 -338.911 112.478 -302.092 120.791 -266.484C131.178 -221.966 140.998 -179.923 100.558 -143.729C82.1596 -127.261 67.278 -115.785 52.3227 -106.525C42.4758 -100.454 33.0124 -95.2355 23.8643 -90.1794C3.46146 -78.9175 -14.1536 -69.1874 -27.1902 -54.9593C-41.4482 -39.3978 -48.6113 -19.7902 -49.7306 6.7386C-52.0564 61.5691 -78.8296 85.2403 -98.3889 102.524C-110.742 113.447 -119.663 121.341 -117.438 132.712L-116.555 132.544C-118.679 121.672 -109.921 113.923 -97.7908 103.202C-78.1203 85.8127 -51.1757 61.9873 -48.8358 6.77718C-46.4167 -50.3407 -16.7521 -66.7194 24.2974 -89.3926C33.4545 -94.4492 42.9263 -99.6772 52.7907 -105.758C67.7989 -115.04 82.7148 -126.544 101.156 -143.051C119.494 -159.47 129.117 -178.787 130.574 -202.124C131.869 -222.953 126.682 -245.185 121.663 -266.678C113.387 -302.118 104.834 -338.768 123.364 -372.787C146.476 -415.215 189.991 -424.537 222.42 -424.885C257.625 -425.266 287.747 -415.451 288.05 -415.351L288.334 -416.206L288.333 -416.224Z" fill="white"/>
<path d="M302.405 -373.721C302.109 -373.848 272.848 -386.196 237.959 -388.925C217.45 -390.527 199.026 -388.543 183.215 -383.033C163.423 -376.129 147.68 -363.653 136.418 -345.945C116.097 -313.966 125.149 -276.451 133.905 -240.163C144.169 -197.597 154.788 -153.591 119.069 -117.234C102.13 -99.9915 87.8321 -88.1219 72.7216 -78.7658C59.0555 -70.3406 45.6671 -63.987 32.718 -57.8391C-3.59968 -40.6052 -32.2831 -26.9946 -38.6999 18.6708C-44.7858 61.937 -67.2606 83.5017 -85.3139 100.826C-99.5104 114.448 -110.713 125.21 -107.538 141.436L-106.654 141.268C-109.738 125.524 -98.6897 114.906 -84.6983 101.485C-66.5422 84.0643 -43.9386 62.384 -37.8169 18.8002C-31.4626 -26.3838 -2.97242 -39.9021 33.099 -57.0226C46.0656 -63.1806 59.4716 -69.5442 73.1905 -77.9905C88.3615 -87.3951 102.711 -99.2948 119.701 -116.594C155.769 -153.315 145.092 -197.569 134.769 -240.366C126.06 -276.467 117.054 -313.804 137.168 -345.457C162.405 -385.167 205.852 -390.524 237.857 -388.026C272.601 -385.308 301.751 -373.016 302.038 -372.888L302.396 -373.72L302.405 -373.721Z" fill="white"/>
<path d="M315.682 -331.583C315.403 -331.729 287.229 -346.553 252.891 -352.386C232.708 -355.813 214.363 -355.511 198.38 -351.482C178.37 -346.437 162.017 -335.525 149.784 -319.036C127.919 -289.564 137.048 -252.959 146.708 -214.206C157.307 -171.68 168.269 -127.708 137.145 -91.3003C121.819 -73.3803 108.141 -61.1378 92.7826 -51.5985C76.1496 -41.3283 59.096 -34.9056 42.5979 -28.7039C10.0263 -16.4423 -18.0967 -5.85994 -27.8001 29.9323C-36.588 62.3674 -55.2443 80.8668 -71.709 97.1778C-88.6252 113.947 -101.984 127.198 -97.6366 149.384L-96.7535 149.216C-101.011 127.484 -87.8057 114.395 -71.0769 97.8166C-55.3548 82.2328 -35.7855 62.8343 -26.9301 30.1612C-17.3547 -5.19145 10.5742 -15.6996 42.9162 -27.876C59.4493 -34.0976 76.5473 -40.532 93.2587 -50.8516C108.696 -60.4315 122.443 -72.732 137.828 -90.7275C169.256 -127.486 158.235 -171.689 147.579 -214.436C137.967 -252.976 128.894 -289.386 150.508 -318.51C177.929 -355.469 221.23 -356.852 252.716 -351.512C286.917 -345.716 314.979 -330.949 315.258 -330.803L315.681 -331.592L315.682 -331.583Z" fill="white"/>
<path d="M328.93 -289.936C328.658 -290.11 301.633 -307.43 267.874 -316.365C248.025 -321.621 229.77 -322.992 213.606 -320.445C193.37 -317.258 176.393 -307.892 163.127 -292.6C139.774 -265.672 149.441 -228.089 159.677 -188.304C170.633 -145.719 181.961 -101.687 155.22 -65.2303C141.578 -46.6259 128.503 -33.9692 112.846 -24.202C94.0279 -12.5391 73.4488 -7.02315 53.5345 -1.69885C23.7969 6.26633 -4.29935 13.7851 -16.8494 41.6227C-26.9868 64.1094 -42.8027 79.395 -56.7491 92.8775C-76.4656 111.932 -93.493 128.396 -87.6689 158.104L-86.7865 157.935C-92.5113 128.7 -75.6452 112.407 -56.1164 93.5352C-42.1102 79.9952 -26.2261 64.6425 -16.0167 41.9984C-3.64244 14.5497 22.9625 7.42351 53.7744 -0.820075C73.7416 -6.16546 94.4011 -11.695 113.323 -23.436C129.094 -33.2639 142.237 -45.9877 155.954 -64.6957C182.945 -101.5 171.56 -145.737 160.556 -188.526C150.379 -228.081 140.769 -265.45 163.81 -292.009C193.526 -326.265 236.669 -323.688 267.627 -315.494C301.249 -306.597 328.171 -289.342 328.442 -289.168L328.93 -289.927L328.93 -289.936Z" fill="white"/>
<path d="M342.995 -247.541C342.74 -247.743 316.872 -267.487 283.676 -279.497C264.158 -286.555 245.964 -289.597 229.584 -288.543C209.08 -287.224 191.402 -279.443 177.033 -265.418C152.189 -241.169 162.482 -202.534 173.375 -161.627C184.703 -119.113 196.404 -75.1512 173.801 -38.7911C162.009 -19.8121 149.149 -6.37801 133.332 3.4949C112.994 16.1257 88.9774 19.8737 65.7473 23.4952C36.8777 28.0012 9.59864 32.253 -5.66988 53.4969C-15.4879 67.1429 -27.6404 77.6878 -39.3986 87.8762C-64.0396 109.238 -85.3227 127.683 -77.6433 166.82L-76.7602 166.652C-84.3201 128.022 -63.2349 109.741 -38.8088 88.5633C-27.0167 78.3368 -14.8119 67.7619 -4.93611 54.0224C10.1158 33.0885 37.2066 28.8565 65.8891 24.3884C89.2085 20.7528 113.314 16.9905 133.809 4.26054C149.747 -5.69153 162.693 -19.2206 174.568 -38.3126C197.377 -75.0091 185.62 -119.157 174.245 -161.857C163.422 -202.499 153.197 -240.894 177.657 -264.769C209.843 -296.192 252.905 -289.655 283.365 -278.641C316.431 -266.686 342.187 -247.017 342.442 -246.824L342.987 -247.541L342.995 -247.541Z" fill="white"/>
<path d="M356.276 -205.183C356.029 -205.403 331.425 -227.514 298.876 -242.561C279.742 -251.406 261.63 -256.119 245.061 -256.569C224.314 -257.128 205.937 -250.976 190.443 -238.275C164.178 -216.751 175.163 -176.911 186.797 -134.738C197.932 -94.3383 210.558 -48.5634 191.924 -12.3665C181.846 7.21331 169.616 21.0503 153.433 31.1861C132.141 44.4466 104.847 45.8059 78.451 47.1224C50.1143 48.5328 23.3497 49.8616 5.39526 65.3628C-2.22609 71.9402 -10.7056 77.8551 -18.9076 83.5828C-49.0921 104.648 -77.6045 124.553 -67.6155 175.536L-66.7332 175.368C-76.6092 124.937 -48.3294 105.217 -18.3876 84.3188C-10.1681 78.5811 -1.66272 72.6467 5.99299 66.0403C23.7069 50.7422 50.3278 49.4217 78.5029 48.0206C105.016 46.7064 132.427 45.3404 153.918 31.9511C170.241 21.7352 182.572 7.78413 192.732 -11.9536C211.528 -48.4572 198.856 -94.4187 187.675 -134.978C176.13 -176.868 165.214 -216.433 191.023 -237.587C225.737 -266.043 268.618 -255.558 298.49 -241.763C330.918 -226.773 355.436 -204.747 355.683 -204.527L356.284 -205.193L356.276 -205.183Z" fill="white"/>
<path d="M369.566 -162.957C369.335 -163.205 345.997 -187.603 314.053 -205.644C295.271 -216.252 277.238 -222.629 260.442 -224.599C239.406 -227.062 220.287 -222.578 203.59 -211.275C175.855 -192.492 187.107 -153.163 200.141 -107.636C211.639 -67.4651 224.674 -21.929 209.76 14.0157C201.385 34.1955 189.763 48.4419 173.177 58.8464C151.183 72.5829 120.396 71.142 90.6216 69.7508C63.9032 68.4987 36.2628 67.2097 15.8579 77.2306C12.2978 78.9776 8.58426 80.7244 5.00299 82.4185C-13.3968 91.0887 -32.4197 100.056 -45.2744 115.122C-59.844 132.189 -64.1284 154.819 -58.351 184.296L-57.468 184.128C-70.2508 118.899 -31.8015 100.769 5.38428 83.2438C8.97454 81.5492 12.697 79.8019 16.2567 78.0459C36.4595 68.1178 63.9735 69.4051 90.5746 70.6549C120.485 72.0563 151.408 73.5074 173.646 59.6217C190.397 49.1175 202.129 34.7385 210.584 14.3738C225.615 -21.8661 212.536 -67.5619 201.002 -107.875C188.068 -153.075 176.897 -192.102 204.094 -210.52C241.496 -235.855 284.296 -221.423 313.612 -204.853C345.435 -186.867 368.686 -162.573 368.917 -162.324L369.567 -162.948L369.566 -162.957Z" fill="white"/>
<path d="M382.829 -121.061C382.606 -121.328 360.6 -147.869 329.34 -168.843C310.964 -181.171 293.026 -189.193 276.034 -192.687C254.749 -197.058 234.902 -194.31 217.02 -184.517C187.805 -168.506 199.93 -127.763 213.985 -80.5856C225.828 -40.8164 239.248 4.24582 227.872 39.8272C221.324 60.283 210.006 75.342 193.265 85.8701C170.636 100.042 135.688 95.3792 101.892 90.8566C75.8571 87.3805 48.9325 83.7758 26.9909 88.4727C6.16164 92.9344 -17.3524 98.9466 -32.8954 113.997C-50.2723 130.829 -55.2986 156.419 -48.2859 192.235L-47.4038 192.067C-54.362 156.572 -49.4104 131.247 -32.2725 114.646C-16.9002 99.7578 6.47172 93.7808 27.1768 89.3533C48.9763 84.6916 75.8186 88.2741 101.772 91.7459C135.722 96.2866 170.834 100.976 193.741 86.6259C210.674 75.9877 222.117 60.7684 228.725 40.102C240.186 4.2637 226.722 -40.949 214.844 -80.8332C200.901 -127.639 188.866 -168.063 217.453 -183.723C257.512 -205.681 300.132 -187.343 328.824 -168.102C359.981 -147.203 381.919 -120.748 382.132 -120.49L382.829 -121.061Z" fill="white"/>
<path d="M396.863 -79.2132C396.657 -79.4989 375.944 -108.147 345.313 -132.04C327.308 -146.085 309.447 -155.765 292.222 -160.821C270.661 -167.15 250.053 -166.195 230.963 -157.979C200.099 -144.701 213.282 -102.247 228.556 -53.0877C240.766 -13.7688 254.612 30.8023 246.524 66.0093C241.693 87.0619 230.998 102.556 213.843 113.374C190.46 128.087 151.809 119.805 110.895 111.04C86.1212 105.726 60.5092 100.244 38.3395 100.225C15.5755 100.214 -12.6226 102.698 -28.69 122.218C-42.1802 138.613 -45.2628 164.361 -38.1046 200.942L-37.2221 200.774C-44.3283 164.469 -41.3126 138.968 -27.9986 122.8C-15.6447 107.796 4.80457 101.115 38.338 101.136C60.4173 101.151 85.984 106.627 110.711 111.925C151.808 120.733 190.624 129.051 214.32 114.14C231.693 103.192 242.512 87.5105 247.401 66.2111C255.538 30.7669 241.658 -13.9195 229.415 -53.3536C214.273 -102.097 201.2 -144.197 231.317 -157.152C274.114 -175.563 316.629 -153.268 344.75 -131.331C375.277 -107.514 395.912 -78.978 396.118 -78.6924L396.844 -79.2212L396.863 -79.2132Z" fill="white"/>
<path d="M410.15 -36.8805C409.961 -37.1851 390.516 -67.787 360.514 -94.507C342.875 -110.212 325.093 -121.536 307.654 -128.156C285.819 -136.443 264.474 -137.347 244.205 -130.84C236.708 -128.433 231.506 -124.22 228.306 -117.968C218.512 -98.8228 229.69 -64.4892 242.622 -24.7396C262.886 37.5394 285.856 108.127 233.686 141.069C209.444 156.37 163.975 143.137 115.837 129.13C63.2255 113.821 8.82526 97.9843 -17.2495 121.82C-33.5711 136.736 -37.2935 165.484 -28.6295 209.69L-27.7468 209.522C-36.3377 165.645 -32.7075 137.173 -16.643 122.488C9.05509 98.9988 63.2165 114.759 115.59 130C163.929 144.068 209.591 157.362 234.172 141.835C257.717 126.971 268.132 103.128 266.143 68.9766C264.369 39.1847 253.75 6.54978 243.481 -25.0055C230.605 -64.5691 219.491 -98.7441 229.106 -117.546C232.193 -123.575 237.214 -127.633 244.472 -129.963C289.939 -144.56 332.334 -118.375 359.894 -93.8311C389.812 -67.1874 409.197 -36.6813 409.386 -36.3767L410.152 -36.8536L410.15 -36.8805Z" fill="white"/>
</g>
</svg>
