<svg width="1161" height="620" viewBox="0 0 1161 620" fill="none" xmlns="http://www.w3.org/2000/svg">
<mask id="mask0_254_7386" style="mask-type:alpha" maskUnits="userSpaceOnUse" x="0" y="0" width="1161" height="620">
<rect width="1161" height="620" rx="16" fill="#EEF9FF"/>
</mask>
<g mask="url(#mask0_254_7386)">
<g clip-path="url(#clip0_254_7386)">
<path d="M-557.835 105.822C-557.759 105.449 -550.423 68.5201 -528.521 30.7808C-515.651 8.60607 -500.34 -9.50837 -483.016 -23.0639C-461.345 -40.0094 -436.457 -49.8226 -409.033 -52.2253C-360.779 -56.4528 -322.589 -40.2488 -288.905 -25.9532C-238.15 -4.41471 -198.063 12.6 -147.166 -46.7195C-142.896 -51.689 -138.773 -56.5312 -134.785 -61.2119C-58.9387 -150.16 -27.5456 -186.974 105.971 -133.743C157.611 -113.153 199.408 -110.622 230.193 -126.224C261.881 -142.284 270.027 -172.476 270.107 -172.786L271.075 -172.535C270.995 -172.226 262.761 -141.612 230.668 -125.347C199.621 -109.606 157.54 -112.118 105.6 -132.827C40.9523 -158.597 -1.2553 -163.735 -35.5371 -149.987C-69.3104 -136.449 -96.4507 -104.619 -134.021 -60.5703C-138.022 -55.8824 -142.142 -51.05 -146.405 -46.0682C-169.969 -18.6018 -192.804 -5.5827 -218.256 -5.09733C-241.27 -4.6531 -264.594 -14.5558 -289.295 -25.042C-322.878 -39.2906 -360.935 -55.4499 -408.946 -51.2423C-470.61 -45.8438 -507.529 -3.39311 -527.656 31.2728C-549.48 68.8672 -556.786 105.639 -556.862 106.012L-557.845 105.82L-557.835 105.822Z" fill="white"/>
<path d="M-514.867 129.634C-514.826 129.273 -510.333 92.7554 -491.88 54.8163C-481.035 32.5211 -467.555 14.0985 -451.821 0.0597294C-432.138 -17.5032 -408.858 -28.2073 -382.616 -31.7521C-335.779 -38.0913 -297.286 -21.5404 -263.323 -6.92496C-214.766 13.963 -172.826 32.0039 -122.526 -21.2519C-109.07 -35.5078 -97.1202 -48.4902 -85.5597 -61.0464C-81.7992 -65.1251 -78.134 -69.1147 -74.5473 -73.0007C-46.5211 -103.383 -24.9698 -122.663 2.22024 -131.272C31.5354 -140.55 66.7573 -136.878 116.416 -119.372C220.381 -82.7145 256.65 -133.875 270.313 -153.128C274.054 -158.41 276.117 -161.316 277.976 -160.557L277.603 -159.631C276.449 -160.084 274.124 -156.76 271.133 -152.545C264.26 -142.857 251.479 -124.821 227.53 -114.166C198.384 -101.188 160.879 -102.62 116.086 -118.414C15.3992 -153.924 -19.0989 -131.629 -73.8179 -72.306C-77.4046 -68.42 -81.0674 -64.4401 -84.8303 -60.3518C-96.3909 -47.7955 -108.343 -34.8034 -121.809 -20.5501C-172.581 33.2137 -214.818 15.0443 -263.721 -5.98463C-297.566 -20.5385 -335.916 -37.0422 -382.486 -30.7372C-441.451 -22.7511 -474.028 20.4402 -490.977 55.277C-509.358 93.059 -513.827 129.407 -513.872 129.778L-514.863 129.656L-514.867 129.634Z" fill="white"/>
<path d="M-471.89 153.449C-471.88 153.09 -470.26 117.017 -455.262 78.8976C-446.443 56.4916 -434.807 37.7681 -420.659 23.2365C-402.959 5.06837 -381.273 -6.54348 -356.192 -11.2666C-310.96 -19.787 -273.746 -3.52532 -237.764 12.1905C-189.347 33.3416 -147.525 51.5999 -97.8885 4.22535C-78.9127 -13.8816 -62.9019 -30.0283 -48.9199 -45.1192C1.78365 -100.016 32.3785 -133.143 126.864 -104.968C213.817 -79.0197 249.577 -116.823 268.788 -137.121C276.007 -144.747 280.796 -149.768 285.176 -147.974L284.803 -147.048C281.026 -148.582 276.452 -143.753 269.518 -136.426C250.834 -116.694 216.609 -80.5497 135.602 -101.491C132.659 -102.252 129.653 -103.091 126.575 -104.01C32.6848 -132.01 2.25615 -99.0471 -48.188 -44.4342C-62.175 -29.324 -78.2102 -13.1629 -97.1982 4.95122C-120.097 26.8057 -142.79 36.2775 -168.635 34.7709C-191.642 33.43 -214.241 23.5598 -238.167 13.1089C-274.018 -2.55249 -311.087 -18.7354 -356.013 -10.2805C-412.329 0.322049 -440.563 44.2538 -454.328 79.2422C-469.267 117.212 -470.881 153.141 -470.891 153.5L-471.892 153.458L-471.89 153.449Z" fill="white"/>
<path d="M-428.912 177.263C-428.924 176.909 -430.216 141.313 -418.695 103.017C-411.925 80.5053 -402.12 61.4737 -389.552 46.4613C-373.828 27.6686 -353.711 15.1347 -329.778 9.21634C-286.359 -1.51841 -248.669 15.2176 -212.23 31.4028C-165.913 51.9696 -122.166 71.4074 -73.2458 29.6832C-52.1145 11.6687 -36.7088 -2.81655 -23.2946 -17.2692C-17.7751 -23.2377 -12.5306 -29.1017 -7.47195 -34.7659C33.0313 -80.0913 62.2988 -112.838 137.329 -90.5916C209.554 -69.1628 243.695 -100.702 266.294 -121.559C276.984 -131.428 284.718 -138.57 292.364 -135.426L291.991 -134.5C284.917 -137.382 277.391 -130.445 266.972 -120.826C255.688 -110.419 241.648 -97.4609 221.01 -89.5031C196.566 -80.0913 169.084 -80.1412 137.04 -89.6334C62.6123 -111.693 33.5307 -79.1462 -6.72539 -34.0978C-11.7962 -28.4265 -17.0311 -22.56 -22.5628 -16.5842C-36.0039 -2.10755 -51.4364 12.4017 -72.5971 30.45C-122.003 72.5754 -166.031 53.0237 -212.642 32.3187C-248.933 16.2027 -286.455 -0.468956 -329.543 10.186C-383.29 23.477 -407.174 68.1614 -417.746 103.304C-429.215 141.437 -427.932 176.866 -427.92 177.22L-428.922 177.261L-428.912 177.263Z" fill="white"/>
<path d="M-385.935 201.078C-385.978 200.726 -390.192 165.644 -382.165 127.2C-377.439 104.604 -369.477 85.2711 -358.482 69.7489C-344.732 50.3219 -326.181 36.8562 -303.354 29.7017C-261.938 16.7245 -223.679 34.0204 -186.68 50.7534C-140.421 71.6666 -96.7373 91.4289 -48.5863 55.1558C-26.6789 38.6537 -10.9686 24.9082 2.34496 10.6051C11.0815 1.18178 18.8072 -8.00707 26.2879 -16.8874C42.9561 -36.6961 57.3544 -53.7967 75.6658 -64.9383C95.693 -77.1237 118.598 -80.7049 147.74 -76.208C207.974 -66.9271 239.535 -91.0043 262.582 -108.596C277.145 -119.705 287.668 -127.726 299.577 -122.851L299.203 -121.925C287.816 -126.583 277.487 -118.707 263.191 -107.798C240.006 -90.108 208.24 -65.8771 147.589 -75.2245C84.8431 -84.8966 60.6035 -56.0968 27.0516 -16.2459C19.5685 -7.35583 11.8306 1.84019 3.07933 11.2804C-10.2686 25.6365 -26.0179 39.4132 -47.9766 55.9538C-69.8181 72.4007 -92.937 78.7258 -118.675 75.2845C-141.646 72.2073 -164.747 61.7631 -187.08 51.6621C-223.903 35.0058 -261.985 17.7864 -303.042 30.6502C-354.247 46.695 -373.786 92.1103 -381.157 127.378C-389.164 165.662 -384.966 200.605 -384.922 200.957L-385.915 201.083L-385.935 201.078Z" fill="white"/>
<path d="M-342.948 224.895C-343.022 224.545 -350.18 190.025 -345.642 151.453C-342.972 128.779 -336.844 109.148 -327.434 93.1235C-315.648 73.0648 -298.662 58.6164 -276.937 50.1749C-237.708 34.9488 -198.77 52.8954 -161.106 70.2545C-116.925 90.6102 -71.2501 111.662 -23.934 80.6161C-1.49502 65.8936 14.5198 52.8879 27.9702 38.455C40.095 25.3939 49.9023 12.1882 59.3909 -0.583437C85.9932 -36.4055 107.003 -64.6976 158.154 -61.8342C206.619 -59.128 234.961 -78.9453 257.73 -94.8633C275.633 -107.381 289.774 -117.256 306.774 -110.3L306.401 -109.374C289.906 -116.127 275.955 -106.389 258.315 -94.0509C235.42 -78.0418 206.924 -58.1093 158.105 -60.845C107.492 -63.6726 86.6244 -35.5709 60.1986 0.00754354C50.6954 12.7961 40.8734 26.0186 28.7142 39.1328C15.1979 53.621 -0.860972 66.6773 -23.373 81.4428C-71.1597 112.79 -117.093 91.6203 -161.514 71.1511C-198.985 53.8832 -237.738 36.0254 -276.566 51.0971C-325.28 70.0069 -340.473 116.153 -344.641 151.536C-349.159 189.948 -342.038 224.334 -341.961 224.674L-342.945 224.885L-342.948 224.895Z" fill="white"/>
<path d="M-299.96 248.712C-300.06 248.376 -310.167 214.477 -309.135 175.805C-308.526 153.074 -304.244 133.151 -296.404 116.607C-286.587 95.8949 -271.157 80.4348 -250.526 70.6676C-213.653 53.2106 -175.673 71.0646 -135.462 89.96C-91.337 110.694 -45.7113 132.135 0.72566 106.089C23.5836 93.2614 39.8908 81.0027 53.6099 66.3293C68.4012 50.4251 79.0844 33.2317 89.4066 16.5957C109.805 -16.2441 127.412 -44.5998 168.563 -47.4409C205.853 -50.0096 230.061 -66.3406 251.408 -80.7565C273.353 -95.5655 290.691 -107.258 313.967 -97.7293L313.594 -96.8034C290.794 -106.137 273.665 -94.5758 251.969 -79.9298C231.575 -66.166 206.19 -49.0344 168.626 -46.4435C127.982 -43.6469 110.498 -15.4867 90.2416 17.1215C79.89 33.7912 69.1846 51.0305 54.3224 67.0093C40.542 81.7598 24.1567 94.081 1.20381 106.956C-45.6815 133.259 -91.5464 111.703 -135.901 90.8587C-175.889 72.0621 -213.669 54.3116 -250.108 71.5707C-296.35 93.4641 -307.188 140.344 -308.143 175.803C-309.186 214.318 -299.116 248.083 -299.017 248.418L-299.97 248.709L-299.96 248.712Z" fill="white"/>
<path d="M-256.963 272.531C-257.094 272.198 -270.14 238.996 -272.592 200.259C-274.038 177.482 -271.594 157.281 -265.331 140.205C-257.491 118.827 -243.621 102.333 -224.095 91.1652C-189.71 71.5054 -150.838 90.1476 -109.689 109.885C-65.6443 131.011 -20.1018 152.854 25.3974 131.554C48.6156 120.689 65.2298 109.161 79.252 94.1939C96.0223 76.1882 106.474 54.9376 116.572 34.3706C131.669 3.66159 145.925 -25.3539 178.97 -33.0379C205.663 -39.2447 225.733 -53.1954 243.435 -65.4964C268.454 -82.8881 290.071 -97.9058 321.189 -85.1515L320.815 -84.2255C290.19 -96.7697 268.796 -81.8909 244.015 -64.6647C226.238 -52.3109 206.079 -38.3003 179.199 -32.0489C146.616 -24.4728 133.11 3.00126 117.478 34.8217C107.345 55.4418 96.8616 76.777 79.9838 94.8789C65.871 109.957 49.169 121.545 25.8217 132.469C-20.1108 153.968 -65.8633 132.018 -110.12 110.796C-151.031 91.1719 -189.682 72.6383 -223.597 92.0374C-267.341 117.055 -273.841 164.654 -271.59 200.177C-269.148 238.757 -256.153 271.832 -256.022 272.165L-256.954 272.534L-256.963 272.531Z" fill="white"/>
<path d="M-213.974 296.338C-214.139 296.017 -230.086 263.573 -236.024 224.813C-239.512 202.025 -238.906 181.545 -234.228 163.925C-228.371 141.869 -216.079 124.285 -197.693 111.655C-165.905 89.816 -126.008 109.364 -83.7619 130.056C-39.8589 151.569 5.54215 173.799 50.0496 157.014C73.2801 148.26 90.6962 137.145 104.867 122.041C123.02 102.606 132.281 77.2468 141.236 52.7172C152.369 22.2336 162.884 -6.57167 189.332 -18.6257C206.324 -26.3798 220.438 -37.3463 234.078 -47.9601C262.675 -70.2008 287.369 -89.4117 328.377 -72.6031L328.004 -71.6771C287.522 -88.2463 263.05 -69.2155 234.7 -47.1693C221.011 -36.5268 206.853 -25.5097 189.747 -17.7128C163.683 -5.82795 153.231 22.7765 142.179 53.0643C133.19 77.6882 123.893 103.142 105.599 122.726C91.3155 137.946 73.7776 149.132 50.4059 157.954C5.4873 174.89 -40.1045 152.559 -84.2009 130.954C-126.171 110.396 -165.822 90.9736 -197.12 112.475C-238.311 140.766 -240.466 189.095 -235.024 224.659C-229.118 263.265 -213.228 295.571 -213.073 295.889L-213.971 296.329L-213.974 296.338Z" fill="white"/>
<path d="M-170.977 320.158C-171.164 319.841 -189.963 288.24 -199.345 249.499C-204.86 226.724 -206.091 205.954 -203.007 187.788C-199.141 165.042 -188.467 146.328 -171.276 132.17C-142.142 108.168 -101.074 128.741 -57.6023 150.525C-15.957 171.381 31.2276 195.023 74.7138 182.509C98.2364 175.741 115.962 165.388 130.505 149.925C149.557 129.566 156.928 100.093 164.058 71.5901C171.71 40.9914 178.934 12.0894 199.709 -4.14773C208.525 -11.0407 216.803 -19.0124 224.818 -26.7218C254.298 -55.0966 282.152 -81.8981 335.584 -60.0084L335.211 -59.0824C282.357 -80.7299 254.754 -54.1422 225.508 -25.996C217.479 -18.2697 209.173 -10.2739 200.319 -3.34975C179.817 12.6689 172.633 41.4159 165.027 71.8404C157.873 100.471 150.469 130.07 131.234 150.62C116.574 166.217 98.702 176.656 74.9898 183.479C31.134 196.104 -16.2439 172.371 -58.0534 151.43C-101.235 129.805 -142.018 109.367 -170.652 132.951C-209.167 164.671 -206.988 213.697 -198.392 249.249C-189.045 287.847 -170.32 319.336 -170.134 319.653L-170.989 320.165L-170.977 320.158Z" fill="white"/>
<path d="M-127.975 343.958C-128.196 343.653 -149.76 312.959 -162.541 274.258C-170.055 251.504 -173.12 230.477 -171.646 211.75C-169.797 188.296 -160.788 168.429 -144.867 152.672C-118.415 126.5 -77.9693 147.243 -31.1515 171.265C10.1588 192.459 56.9863 216.483 99.3829 207.984C123.185 203.209 141.22 193.618 156.137 177.787C175.851 156.783 180.917 122.923 185.819 90.1779C190.213 60.7925 194.766 30.3946 210.088 10.3205C212.76 6.81766 215.464 3.14776 218.083 -0.389424C231.5 -18.5699 245.376 -37.3653 264.57 -48.1239C286.314 -60.3198 311.906 -60.1079 342.792 -47.4549L342.418 -46.529C274.07 -74.5264 246.019 -36.5379 218.9 0.204076C216.279 3.75094 213.572 7.43051 210.891 10.9308C195.714 30.8048 191.186 61.0647 186.814 90.3217C181.895 123.217 176.811 157.227 156.881 178.465C141.82 194.455 123.617 204.137 99.5958 208.958C56.8518 217.523 9.86017 193.414 -31.5976 172.151C-78.0796 148.309 -118.214 127.719 -144.153 153.383C-179.832 188.677 -173.326 238.429 -161.583 273.948C-148.837 312.505 -127.367 343.082 -127.146 343.387L-127.965 343.96L-127.975 343.958Z" fill="white"/>
<path d="M-84.9758 367.768C-85.2183 367.467 -109.436 337.73 -125.582 299.099C-135.07 276.392 -139.955 255.091 -140.101 235.801C-140.279 211.637 -132.997 190.579 -118.451 173.186C-94.6728 144.773 -52.8234 166.799 -4.36835 192.318C36.4787 213.826 82.7624 238.196 124.05 233.469C147.787 230.743 166.664 221.648 181.767 205.659C202.117 184.034 204.569 144.902 206.926 107.058C208.75 77.9066 210.626 47.7565 220.486 24.8349C229.85 3.07601 241.486 -21.2769 261.265 -34.9826C283.384 -50.3043 312.397 -50.2616 349.972 -34.8775L349.599 -33.9515C312.362 -49.2068 283.655 -49.2738 261.839 -34.1631C242.273 -20.6085 230.707 3.59704 221.407 25.2279C211.616 48.0021 209.733 78.0576 207.922 107.119C205.552 145.136 203.093 184.452 182.489 206.342C167.225 222.516 148.146 231.714 124.165 234.459C82.5796 239.223 36.1413 214.772 -4.8241 193.202C-52.8976 167.885 -94.4185 146.027 -117.678 173.831C-150.286 212.789 -139.469 263.242 -124.662 298.697C-108.576 337.198 -84.4372 366.843 -84.2018 367.131L-84.9758 367.768Z" fill="white"/>
<path d="M-41.9738 391.568C-42.2408 391.282 -68.9938 362.521 -88.4238 323.971C-99.846 301.311 -106.542 279.748 -108.336 259.877C-110.582 235.003 -105.095 212.738 -92.0223 193.694C-70.8932 162.902 -27.4695 186.429 22.8102 213.68C63.0268 235.469 108.614 260.175 148.729 258.946C172.715 258.216 191.908 249.895 207.399 233.521C228.478 211.196 227.791 167.266 227.066 120.765C226.619 92.6069 226.171 63.4981 230.933 39.3207C235.832 14.4967 244.623 -15.7146 269.363 -29.0265C290.141 -40.2017 318.867 -38.0124 357.19 -22.3215L356.816 -21.3955C318.784 -36.9701 290.341 -39.179 269.848 -28.147C250.831 -17.9109 239.138 2.94652 231.926 39.5154C227.179 63.5935 227.63 92.6513 228.07 120.756C228.803 167.466 229.493 211.583 208.131 234.206C192.452 250.79 173.027 259.206 148.759 259.946C108.376 261.178 62.67 236.41 22.3351 214.559C-27.5196 187.542 -70.5811 164.212 -91.1973 194.258C-120.496 236.954 -105.37 288.118 -87.53 323.51C-68.1596 361.931 -41.5124 390.582 -41.2455 390.868L-41.9785 391.546L-41.9738 391.568Z" fill="white"/>
<path d="M1.01831 415.365C0.727008 415.094 -28.435 387.301 -51.0891 348.836C-64.4035 326.224 -72.9121 304.4 -76.3674 283.965C-80.6912 258.378 -77.0741 234.917 -65.6111 214.228C-61.3709 206.575 -55.6573 201.814 -48.1529 199.674C-25.1729 193.127 9.83933 212.713 50.3763 235.38C113.889 270.897 185.874 311.155 233.029 261.393C254.934 238.27 250.315 185.855 245.428 130.366C240.086 69.719 234.556 7.00889 266.158 -16.2725C285.935 -30.8465 318.072 -28.705 364.387 -9.7293L364.013 -8.80336C318.042 -27.6284 286.225 -29.8109 266.756 -15.4673C235.612 7.47815 241.111 69.9116 246.43 130.284C251.34 186.007 255.983 238.644 233.758 262.088C212.48 284.547 184.247 290.758 147.452 281.226C115.362 272.868 82.0811 254.256 49.9012 236.26C9.555 213.693 -25.298 194.21 -47.8646 200.637C-55.1017 202.701 -60.6078 207.299 -64.7126 214.708C-90.427 261.119 -71.0281 312.975 -50.219 348.307C-27.6295 386.662 1.44098 414.37 1.73228 414.641L1.04733 415.373L1.01831 415.365Z" fill="white"/>
</g>
</g>
<defs>
<clipPath id="clip0_254_7386">
<rect width="864.11" height="636.78" fill="white" transform="translate(-438.625 -356) rotate(14.4942)"/>
</clipPath>
</defs>
</svg>
