<svg width="229" height="229" viewBox="0 0 229 229" fill="none" xmlns="http://www.w3.org/2000/svg">
<mask id="mask0_254_7179" style="mask-type:alpha" maskUnits="userSpaceOnUse" x="0" y="0" width="229" height="229">
<g opacity="0.2">
<rect width="226" height="226" transform="translate(2.57056 0.736633) rotate(0.465027)" fill="white" fill-opacity="0.01"/>
<path fill-rule="evenodd" clip-rule="evenodd" d="M89.5817 42.708L71.1399 88.372L25.2017 106.051C23.8297 106.583 22.649 107.514 21.8126 108.725C20.9762 109.936 20.5226 111.369 20.5107 112.841C20.4987 114.312 20.9289 115.753 21.7456 116.977C22.5623 118.201 23.7277 119.151 25.0909 119.705L70.736 138.137L88.4343 184.076C88.9659 185.448 89.8974 186.628 91.1079 187.465C92.3184 188.301 93.7522 188.755 95.2236 188.767C96.6949 188.779 98.1359 188.349 99.3599 187.532C100.584 186.715 101.534 185.55 102.088 184.187L102.079 184.187L120.511 138.541L166.459 120.843C167.827 120.308 169.004 119.375 169.837 118.165C170.67 116.955 171.122 115.523 171.134 114.054C171.146 112.585 170.717 111.145 169.904 109.922C169.09 108.699 167.929 107.747 166.57 107.189L120.915 88.7759L103.226 42.8188C102.864 41.8802 102.312 41.0264 101.605 40.3109C100.898 39.5954 100.051 39.0336 99.1163 38.6608C98.224 38.2993 97.2691 38.1172 96.3064 38.125C95.3436 38.1328 94.3918 38.3303 93.5055 38.7062C92.6191 39.082 91.8155 39.6289 91.1406 40.3156C90.4657 41.0023 89.9328 41.8152 89.5723 42.708L89.5817 42.708ZM167.864 24.227L160.724 41.9294L142.927 48.7818C141.951 49.1682 141.112 49.8372 140.518 50.7031C139.925 51.569 139.603 52.5923 139.594 53.6422C139.586 54.692 139.891 55.7204 140.47 56.5958C141.05 57.4713 141.878 58.1538 142.847 58.556L160.531 65.6963L167.383 83.5123C167.762 84.4959 168.429 85.3426 169.295 85.9426C170.162 86.5425 171.189 86.8679 172.243 86.8765C173.297 86.885 174.33 86.5764 175.206 85.9906C176.082 85.4048 176.762 84.5689 177.157 83.5917L184.317 65.8894L202.104 59.0369C203.092 58.6614 203.943 57.9966 204.546 57.1295C205.149 56.2623 205.476 55.2332 205.485 54.1769C205.494 53.1207 205.183 52.0864 204.594 51.2096C204.005 50.3327 203.165 49.6542 202.184 49.2627L184.51 42.1225L177.638 24.3157C177.383 23.6429 176.99 23.0305 176.485 22.5174C175.98 22.0043 175.374 21.6017 174.706 21.335C173.413 20.8227 171.97 20.8399 170.69 21.3829C169.41 21.9258 168.395 22.9509 167.864 24.2364L167.864 24.227ZM160.241 146.614L153.092 164.288L135.304 171.15C134.628 171.404 134.012 171.796 133.496 172.301C132.979 172.806 132.574 173.413 132.304 174.083C131.788 175.377 131.805 176.824 132.353 178.106C132.9 179.388 133.932 180.401 135.225 180.924L152.899 188.064L159.761 205.862C160.286 207.222 161.342 208.304 162.693 208.852C163.987 209.369 165.432 209.353 166.714 208.807C167.996 208.262 169.01 207.232 169.535 205.941L176.685 188.258L194.472 181.405C195.46 181.03 196.311 180.365 196.914 179.498C197.517 178.63 197.844 177.601 197.853 176.545C197.861 175.489 197.551 174.455 196.962 173.578C196.373 172.701 195.533 172.022 194.552 171.631L176.878 164.481L170.016 146.693C169.762 146.016 169.369 145.399 168.862 144.882C168.355 144.366 167.746 143.961 167.074 143.694C165.78 143.18 164.336 143.199 163.056 143.746C161.776 144.293 160.764 145.324 160.241 146.614Z" fill="white"/>
</g>
</mask>
<g mask="url(#mask0_254_7179)">
<rect x="88.0001" y="-83" width="1160" height="257" rx="16" fill="white"/>
</g>
</svg>
