<svg width="1160" height="487" viewBox="0 0 1160 487" fill="none" xmlns="http://www.w3.org/2000/svg">
<mask id="mask0_254_6862" style="mask-type:alpha" maskUnits="userSpaceOnUse" x="0" y="0" width="1160" height="487">
<rect width="1160" height="487" rx="12" fill="#DFF5FF"/>
</mask>
<g mask="url(#mask0_254_6862)">
<path d="M-588.777 68.3763C-588.713 68.0012 -582.554 30.8574 -561.862 -7.55885C-549.704 -30.1314 -534.976 -48.7233 -518.091 -62.8225C-496.97 -80.4481 -472.406 -91.0473 -445.072 -94.3204C-396.977 -100.079 -358.292 -85.0971 -324.17 -71.8792C-272.757 -51.9646 -232.149 -36.2325 -183.163 -97.1395C-179.054 -102.242 -175.086 -107.213 -171.249 -112.018C-98.2677 -203.332 -68.0603 -241.125 67.0805 -192.164C119.349 -173.226 161.205 -172.024 191.478 -188.596C222.64 -205.655 229.822 -236.091 229.892 -236.403L230.868 -236.184C230.798 -235.871 223.541 -205.012 191.982 -187.735C161.45 -171.015 119.311 -172.189 66.7387 -191.237C1.30473 -214.939 -41.0448 -218.733 -74.8724 -203.903C-108.198 -189.298 -134.313 -156.622 -170.465 -111.401C-174.315 -106.588 -178.28 -101.627 -182.382 -96.5127C-205.061 -68.3113 -227.471 -54.5731 -252.894 -53.2791C-275.882 -52.1037 -299.509 -61.2602 -324.532 -70.956C-358.55 -84.1302 -397.101 -99.0719 -444.954 -93.3406C-506.415 -85.9852 -541.967 -42.3826 -560.982 -7.09456C-581.6 31.1744 -587.734 68.1598 -587.798 68.5349L-588.787 68.3741L-588.777 68.3763Z" fill="white"/>
<path d="M-545.074 90.8107C-545.044 90.4485 -541.714 53.8064 -524.476 15.3C-514.345 -7.32859 -501.457 -26.1703 -486.177 -40.702C-467.063 -58.8815 -444.135 -70.32 -418.018 -74.697C-371.406 -82.5215 -332.407 -67.2024 -297.997 -53.6736C-248.8 -34.3394 -206.308 -17.6404 -157.726 -72.4679C-144.73 -87.1442 -133.199 -100.5 -122.043 -113.417C-118.414 -117.613 -114.877 -121.717 -111.416 -125.715C-84.3695 -156.973 -63.4418 -176.928 -36.5391 -186.397C-7.5336 -196.602 27.7872 -194.051 77.9775 -178.132C183.054 -144.797 217.679 -197.085 230.724 -216.762C234.295 -222.16 236.265 -225.13 238.147 -224.43L237.803 -223.493C236.636 -223.909 234.417 -220.513 231.562 -216.205C225 -206.303 212.799 -187.871 189.2 -176.46C160.482 -162.562 122.95 -162.802 77.6779 -177.164C-24.0867 -209.456 -57.8588 -186.076 -110.665 -125.044C-114.126 -121.046 -117.661 -116.952 -121.292 -112.746C-132.448 -99.8286 -143.981 -86.4633 -156.987 -71.7892C-206.025 -16.439 -248.818 -33.2569 -298.364 -52.7211C-332.654 -66.1921 -371.51 -81.4686 -417.856 -73.6868C-476.538 -63.8308 -507.726 -19.626 -523.558 15.7319C-540.73 54.0789 -544.042 90.5508 -544.074 90.9228L-545.069 90.8324L-545.074 90.8107Z" fill="white"/>
<path d="M-501.361 113.247C-501.362 112.888 -500.89 76.7823 -487.111 38.2054C-479.009 15.5305 -467.973 -3.55335 -454.295 -18.5273C-437.181 -37.2487 -415.874 -49.5439 -390.957 -55.0617C-346.018 -65.0153 -308.306 -49.9445 -271.843 -35.3801C-222.778 -15.7784 -180.397 1.14161 -132.291 -47.7865C-113.9 -66.4874 -98.4107 -83.1347 -84.9154 -98.6623C-35.9821 -155.143 -6.45549 -189.226 88.8777 -164.068C176.611 -140.896 211.152 -179.816 229.708 -200.714C236.681 -208.566 241.308 -213.736 245.743 -212.083L245.399 -211.146C241.576 -212.559 237.158 -207.587 230.459 -200.043C212.413 -179.727 179.353 -142.513 97.7216 -160.87C94.7556 -161.536 91.7248 -162.28 88.6193 -163.101C-6.11338 -188.103 -35.479 -154.189 -84.1621 -98.0009C-97.6618 -82.4539 -113.175 -65.7914 -131.578 -47.0829C-153.771 -24.5118 -176.151 -14.3236 -202.031 -15.0081C-225.069 -15.6171 -247.97 -24.7642 -272.216 -34.4494C-308.547 -48.9635 -346.112 -63.9601 -390.746 -54.0817C-446.697 -41.6949 -473.521 3.112 -486.167 38.5202C-499.891 76.9454 -500.362 112.908 -500.361 113.267L-501.363 113.257L-501.361 113.247Z" fill="white"/>
<path d="M-457.649 135.684C-457.672 135.33 -460.095 99.7929 -449.796 61.1509C-443.745 38.435 -434.549 19.1014 -422.466 3.69716C-407.347 -15.5858 -387.638 -28.7527 -363.905 -35.4286C-320.85 -47.5378 -282.646 -32.008 -245.711 -16.9891C-198.764 2.0954 -154.421 20.1331 -106.852 -23.1247C-86.3041 -41.8017 -71.3665 -56.7692 -58.4184 -71.6408C-53.0914 -77.7818 -48.0359 -83.8095 -43.1598 -89.6316C-4.11744 -136.221 24.0946 -169.882 99.7937 -150.031C172.664 -130.908 205.784 -163.516 227.71 -185.082C238.081 -195.285 245.584 -202.669 253.326 -199.769L252.982 -198.832C245.82 -201.488 238.519 -194.315 228.411 -184.37C217.463 -173.61 203.842 -160.212 183.467 -151.602C159.335 -141.418 131.865 -140.595 99.5353 -149.064C24.4443 -168.748 -3.58827 -135.292 -42.3924 -88.9875C-47.2804 -83.1579 -52.3262 -77.128 -57.6652 -70.9795C-70.6394 -56.083 -85.6031 -41.0905 -106.179 -22.3789C-154.221 21.2953 -198.848 3.15271 -246.094 -16.0605C-282.88 -31.0151 -320.912 -46.4858 -363.64 -34.4669C-416.937 -19.4745 -439.389 25.9464 -448.839 61.4071C-459.09 99.8855 -456.681 135.256 -456.659 135.609L-457.659 135.682L-457.649 135.684Z" fill="white"/>
<path d="M-413.936 158.121C-413.991 157.77 -419.317 122.841 -412.516 84.1604C-408.51 61.4252 -401.167 41.8494 -390.671 25.9856C-377.545 6.13151 -359.432 -7.91689 -336.844 -15.7932C-295.861 -30.0802 -257.072 -14.0088 -219.559 1.53983C-172.66 20.9724 -128.369 39.3365 -81.3955 1.55145C-60.0235 -15.6386 -44.758 -29.8764 -31.9057 -44.5954C-23.4731 -54.2916 -16.0433 -63.7213 -8.84864 -72.8349C7.18168 -93.1633 21.0292 -110.713 38.9772 -122.431C58.6071 -135.246 81.387 -139.554 110.657 -135.985C171.156 -128.623 201.935 -153.691 224.411 -172.007C238.615 -183.572 248.877 -191.924 260.935 -187.43L260.591 -186.492C249.062 -190.786 238.987 -182.587 225.046 -171.228C202.434 -152.81 171.455 -127.582 110.538 -134.997C47.5156 -142.671 24.2036 -113.115 -8.06488 -72.2179C-15.2617 -63.0946 -22.7035 -53.6573 -31.1503 -43.9438C-44.0352 -29.1707 -59.3388 -14.9004 -80.7607 2.32965C-102.069 19.4624 -124.975 26.519 -150.809 23.8974C-173.866 21.5518 -197.288 11.847 -219.93 2.46087C-257.264 -13.0168 -295.874 -29.0172 -336.501 -14.8552C-387.171 2.80883 -405.256 48.8221 -411.503 84.3061C-418.289 122.826 -412.983 157.617 -412.928 157.968L-413.917 158.125L-413.936 158.121Z" fill="white"/>
<path d="M-370.214 180.559C-370.3 180.212 -378.551 145.937 -375.241 107.24C-373.293 84.4933 -367.792 64.6774 -358.896 48.3617C-347.753 27.9385 -331.234 12.9576 -309.789 3.83003C-271.064 -12.6352 -231.576 4.06491 -193.379 20.2183C-148.573 39.1597 -102.252 58.7491 -55.9464 26.2154C-33.9867 10.7872 -18.3933 -2.72089 -5.40836 -17.574C6.29529 -31.0138 15.678 -44.5245 24.7558 -57.5913C50.2063 -94.2406 70.3062 -123.186 121.523 -121.95C170.049 -120.785 197.747 -141.493 219.999 -158.127C237.494 -171.207 251.315 -181.526 268.528 -175.114L268.184 -174.177C251.483 -180.402 237.848 -170.226 220.609 -157.333C198.234 -140.605 170.386 -119.777 121.505 -120.959C70.8276 -122.177 50.8637 -93.4266 25.582 -57.0263C16.49 -43.9422 7.09317 -30.4141 -4.64314 -16.9202C-17.6922 -2.00974 -33.328 11.5503 -55.3595 27.0238C-102.126 59.8742 -148.709 40.1746 -193.758 21.1274C-231.758 5.0591 -271.06 -11.5581 -309.389 4.73997C-357.477 25.1883 -371.196 71.794 -374.238 107.291C-377.532 145.827 -369.323 179.97 -369.235 180.308L-370.212 180.549L-370.214 180.559Z" fill="white"/>
<path d="M-326.492 202.998C-326.601 202.666 -337.781 169.106 -337.979 130.42C-338.093 107.681 -334.446 87.6326 -327.135 70.8475C-317.982 49.8336 -303.05 33.891 -282.74 23.4731C-246.441 4.85305 -207.912 21.4911 -167.122 39.099C-122.36 58.4199 -76.0757 78.4008 -30.49 50.8915C-8.05121 37.3443 7.85813 24.5735 21.104 9.47154C35.3824 -6.89468 45.5138 -24.4189 55.3021 -41.3745C74.6466 -74.846 91.3439 -103.747 132.384 -107.894C169.573 -111.647 193.249 -128.739 214.128 -143.826C235.591 -159.325 252.549 -171.563 276.116 -162.778L275.772 -161.841C252.687 -170.445 235.935 -158.346 214.715 -143.018C194.769 -128.613 169.94 -110.683 132.478 -106.9C91.9435 -102.813 75.3628 -74.111 56.1534 -40.8756C46.3368 -23.8854 36.1847 -6.31452 21.8377 10.1285C8.53308 25.3095 -7.45235 38.1452 -29.9845 51.7432C-76.0102 79.5225 -122.537 59.4357 -167.532 40.0112C-208.097 22.495 -246.422 5.95403 -282.294 24.3625C-327.816 47.7144 -337.159 94.9146 -336.987 130.387C-336.805 168.915 -325.668 202.343 -325.558 202.675L-326.501 202.996L-326.492 202.998Z" fill="white"/>
<path d="M-282.759 225.439C-282.901 225.11 -296.995 192.34 -300.677 153.7C-302.846 130.981 -301.045 110.712 -295.328 93.4461C-288.171 71.8295 -274.833 54.9034 -255.671 43.1202C-221.928 22.3776 -182.484 39.7751 -140.728 58.1946C-96.0344 77.9101 -49.8208 98.2954 -5.02148 75.5599C17.8397 63.9629 34.0791 51.912 47.6186 36.5071C63.8082 17.9775 73.5788 -3.59451 83.0191 -24.4721C97.1319 -55.6453 110.458 -85.0992 143.242 -93.8295C169.725 -100.881 189.342 -115.463 206.644 -128.32C231.098 -146.498 252.226 -162.195 283.734 -150.437L283.39 -149.499C252.382 -161.064 231.47 -145.513 207.25 -127.507C189.874 -114.595 170.171 -99.9508 143.504 -92.8483C111.178 -84.2406 98.5514 -56.3511 83.9389 -24.05C74.466 -3.11829 64.6658 18.5393 48.3719 37.1685C34.7453 52.6871 18.42 64.8006 -4.56824 76.4613C-49.7943 99.4083 -96.2213 78.9238 -141.13 59.1188C-182.644 40.8051 -221.865 23.5091 -255.146 43.9763C-298.073 70.3718 -303.057 118.152 -299.678 153.587C-296.011 192.069 -281.971 224.714 -281.83 225.043L-282.75 225.441L-282.759 225.439Z" fill="white"/>
<path d="M-239.035 247.868C-239.21 247.552 -256.18 215.631 -263.347 177.08C-267.557 154.414 -267.603 133.925 -263.486 116.165C-258.334 93.9339 -246.607 75.969 -228.631 62.7609C-197.554 39.9225 -157.055 58.1924 -114.173 77.5313C-69.6086 97.6381 -23.524 118.415 20.4276 100.224C43.3681 90.7356 60.4222 79.0729 74.1063 63.5263C91.6316 43.5238 100.083 17.8833 108.253 -6.91853C118.412 -37.7406 128.006 -66.8654 154.058 -79.7539C170.794 -88.0441 184.553 -99.4537 197.849 -110.496C225.725 -133.634 249.796 -153.62 291.317 -138.123L290.973 -137.186C249.986 -152.46 226.131 -132.661 198.496 -109.725C185.152 -98.6528 171.351 -87.1912 154.501 -78.8547C128.828 -66.1475 119.291 -37.2253 109.207 -6.60158C101.005 18.2956 92.5218 44.0315 74.8595 64.1877C61.0666 79.8534 43.893 91.5916 20.8135 101.151C-23.5441 119.507 -69.8226 98.6354 -114.583 78.4436C-157.186 59.2291 -197.434 41.0769 -228.032 63.5618C-268.304 93.1474 -268.922 141.52 -262.352 176.893C-255.223 215.293 -238.314 247.077 -238.148 247.391L-239.033 247.858L-239.035 247.868Z" fill="white"/>
<path d="M-195.302 270.309C-195.499 269.998 -215.293 239.011 -225.902 200.588C-232.138 177.999 -234.029 157.279 -231.523 139.025C-228.381 116.167 -218.308 97.1229 -201.576 82.4256C-173.219 57.5098 -131.518 76.7676 -87.376 97.1586C-45.0888 116.681 2.82329 138.812 45.8898 124.922C69.1854 117.41 86.5728 106.498 100.617 90.5816C119.012 69.6268 125.443 39.9343 131.664 11.2196C138.34 -19.6069 144.641 -48.7238 164.89 -65.613C173.482 -72.7826 181.503 -81.0134 189.269 -88.9736C217.832 -118.271 244.821 -145.944 298.921 -125.764L298.577 -124.826C245.062 -144.783 218.318 -117.331 189.982 -88.2701C182.202 -80.2925 174.155 -72.0368 165.525 -64.8348C145.542 -48.1727 139.276 -19.2119 132.64 11.439C126.4 40.2827 119.941 70.1021 101.368 91.2527C87.2107 107.308 69.6799 118.31 46.1965 125.882C2.7641 139.895 -45.3441 117.68 -87.7981 98.0784C-131.645 77.8357 -173.057 58.7044 -200.927 83.1865C-238.414 116.114 -234.678 165.046 -224.957 200.308C-214.388 238.589 -194.672 269.467 -194.476 269.778L-195.314 270.317L-195.302 270.309Z" fill="white"/>
<path d="M-151.566 292.731C-151.797 292.433 -174.325 262.44 -188.329 224.165C-196.563 201.66 -200.294 180.742 -199.416 161.978C-198.314 138.477 -189.94 118.333 -174.529 102.078C-148.922 75.0784 -107.837 94.5256 -60.2797 117.048C-18.3167 136.918 29.2506 159.442 71.3557 149.6C94.9945 144.071 112.715 133.912 127.121 117.615C146.158 95.9948 150.145 61.9912 154.004 29.1065C157.462 -0.403666 161.047 -30.931 175.723 -51.4819C178.282 -55.0678 180.869 -58.8218 183.374 -62.4404C196.206 -81.0381 209.478 -100.265 228.32 -111.628C249.666 -124.509 275.251 -125.11 306.524 -113.445L306.18 -112.508C236.976 -138.319 210.147 -99.4585 184.21 -61.8732C181.703 -58.2448 179.114 -54.4811 176.545 -50.8973C162.007 -30.5511 158.443 -0.16258 155.004 29.2186C151.132 62.254 147.131 96.4084 127.887 118.269C113.341 134.729 95.4553 144.985 71.5995 150.567C29.1493 160.486 -18.5848 137.883 -60.6974 117.948C-107.914 95.5949 -148.682 76.2906 -173.792 102.767C-208.331 139.176 -200.248 188.696 -187.382 223.825C-173.417 261.957 -150.986 291.836 -150.756 292.134L-151.557 292.733L-151.566 292.731Z" fill="white"/>
<path d="M-107.831 315.162C-108.083 314.869 -133.234 285.916 -150.599 247.819C-160.805 225.424 -166.363 204.29 -167.123 185.013C-168.069 160.868 -161.46 139.589 -147.474 121.743C-124.61 92.5884 -82.0822 113.272 -32.8406 137.239C8.66934 157.438 55.7042 180.325 96.8203 174.288C120.459 170.809 139.038 161.119 153.625 144.658C173.277 122.397 174.484 83.2074 175.637 45.3071C176.534 16.1125 177.451 -14.082 186.578 -37.3053C195.246 -59.3508 206.101 -84.0612 225.435 -98.3886C247.056 -114.405 276.055 -115.285 314.101 -101.103L313.757 -100.165C276.054 -114.229 247.359 -113.384 226.034 -97.5877C206.91 -83.4182 196.119 -58.8573 187.511 -36.9418C178.448 -13.868 177.522 16.2322 176.635 45.3367C175.474 83.4095 174.266 122.784 154.368 145.317C139.626 161.969 120.848 171.768 96.9674 175.274C55.5541 181.357 8.36217 158.394 -33.268 138.137C-82.1218 114.36 -124.316 93.8332 -146.68 122.362C-178.034 162.337 -165.619 212.421 -149.692 247.387C-132.391 285.358 -107.323 314.221 -107.078 314.501L-107.831 315.162Z" fill="white"/>
<path d="M-64.0953 337.583C-64.3712 337.306 -92.0247 309.41 -112.67 271.497C-124.807 249.211 -132.185 227.873 -134.609 208.068C-137.645 183.278 -132.868 160.85 -120.407 141.4C-100.267 109.952 -56.1177 132.087 -4.9973 157.727C35.8914 178.227 82.241 201.472 122.296 198.968C146.247 197.476 165.166 188.55 180.129 171.692C200.487 148.708 198.405 104.822 196.203 58.3672C194.861 30.2376 193.488 1.15776 197.48 -23.1588C201.587 -48.126 209.414 -78.6014 233.717 -92.6928C254.13 -104.523 282.911 -103.247 321.713 -88.7823L321.369 -87.8449C282.861 -102.203 254.363 -103.507 234.23 -91.8292C215.548 -80.9938 204.524 -59.7754 198.478 -22.9958C194.498 1.22105 195.873 30.2499 197.206 58.3263C199.423 104.989 201.515 149.062 180.882 172.353C165.738 189.426 146.59 198.456 122.359 199.966C82.0345 202.481 35.5647 179.178 -5.44425 158.621C-56.1324 133.201 -99.9135 111.251 -119.564 141.938C-147.491 185.543 -130.747 236.201 -111.791 271.008C-91.2097 308.793 -63.6655 336.583 -63.3896 336.861L-64.1007 337.562L-64.0953 337.583Z" fill="white"/>
<path d="M-20.3683 360.003C-20.6681 359.74 -50.6986 332.888 -74.5637 295.163C-88.59 272.986 -97.7878 251.443 -101.891 231.128C-107.026 205.692 -104.156 182.127 -93.3562 161.084C-89.3614 153.301 -83.802 148.36 -76.3694 145.983C-53.6091 138.709 -17.9921 157.173 23.2448 178.54C87.8537 212.02 161.082 249.97 206.632 198.735C227.791 174.927 221.509 122.686 214.86 67.3798C207.594 6.9332 200.073 -55.5695 230.92 -79.8434C250.224 -95.0386 282.413 -93.9195 329.307 -76.4253L328.963 -75.4879C282.417 -92.8425 250.547 -94.0128 231.543 -79.0577C201.144 -55.134 208.624 7.0931 215.859 67.2663C222.538 122.804 228.852 175.268 207.383 199.406C186.829 222.53 158.808 229.636 121.728 221.277C89.3891 213.944 55.5334 196.399 22.7979 179.434C-18.2451 158.161 -53.6996 139.795 -76.0507 146.936C-83.2184 149.229 -88.5756 154 -92.443 161.535C-116.669 208.74 -95.6323 259.953 -73.7108 294.607C-49.9138 332.224 -19.9775 358.994 -19.6777 359.256L-20.3391 360.009L-20.3683 360.003Z" fill="white"/>
</g>
</svg>
