<svg width="1160" height="487" viewBox="0 0 1160 487" fill="none" xmlns="http://www.w3.org/2000/svg">
<mask id="mask0_254_6831" style="mask-type:alpha" maskUnits="userSpaceOnUse" x="0" y="0" width="1160" height="487">
<rect width="1160" height="487" rx="12" fill="#DFF5FF"/>
</mask>
<g mask="url(#mask0_254_6831)">
<path d="M658.141 570.2C658.124 569.839 656.288 534.081 666.379 494.108C672.308 470.621 681.138 450.292 692.619 433.683C706.984 412.917 725.553 397.953 747.82 389.211C787 373.829 822.208 379.66 853.262 384.807C900.054 392.559 937.011 398.686 966.555 331.935C969.035 326.341 971.421 320.9 973.729 315.639C1017.64 215.66 1035.81 174.28 1158.17 191.517C1205.49 198.186 1240.76 190.566 1262.98 168.867C1285.86 146.531 1286.14 116.785 1286.14 116.481H1287C1287 116.785 1286.73 146.94 1263.57 169.562C1241.15 191.451 1205.65 199.156 1158.06 192.449C1098.81 184.107 1062.64 189.424 1037.12 210.248C1011.97 230.757 996.254 266.535 974.501 316.048C972.184 321.318 969.799 326.75 967.328 332.353C953.65 363.26 937.475 380.688 916.434 387.194C897.411 393.083 875.907 389.515 853.133 385.739C822.173 380.611 787.086 374.79 748.103 390.096C698.034 409.749 676.479 457.636 667.203 494.355C657.146 534.176 658.974 569.782 658.991 570.143L658.133 570.2H658.141Z" fill="white"/>
<path d="M698.21 582.384C698.167 582.04 694.054 547.178 701.241 507.663C705.466 484.441 712.714 464.172 722.778 447.419C735.367 426.462 752.421 410.99 773.477 401.434C811.054 384.366 846.613 390.473 877.991 395.872C922.85 403.584 961.595 410.245 991.968 348.941C1000.09 332.532 1007.24 317.663 1014.15 303.28C1016.4 298.607 1018.59 294.039 1020.74 289.586C1037.51 254.772 1051.28 231.779 1072.03 217.311C1094.41 201.715 1124.48 196.688 1169.53 201.008C1263.85 210.058 1283 154.048 1290.23 132.966C1292.2 127.185 1293.29 124.003 1295 124.261L1294.89 125.207C1293.83 125.063 1292.61 128.695 1291.03 133.31C1287.4 143.918 1280.65 163.662 1263.03 179.248C1241.59 198.227 1210.1 205.872 1169.46 201.973C1078.12 193.2 1054.23 222.08 1021.49 290.054C1019.34 294.508 1017.15 299.066 1014.9 303.749C1007.99 318.131 1000.85 333.01 992.715 349.418C962.059 411.306 923.039 404.597 877.862 396.837C846.596 391.467 811.166 385.37 773.803 402.342C726.496 423.834 708.695 471.587 702.092 507.873C694.93 547.226 699.026 581.925 699.069 582.279L698.219 582.403L698.21 582.384Z" fill="white"/>
<path d="M738.667 593.487C738.598 593.154 732.195 559.527 736.47 520.828C738.984 498.08 744.632 478.055 753.266 461.294C764.071 440.335 779.597 424.469 799.423 414.142C835.178 395.516 869.595 401.636 902.869 407.546C947.645 415.503 986.318 422.366 1017.39 366.886C1029.27 345.68 1039.1 326.987 1047.48 309.75C1077.82 247.085 1096.12 209.27 1180.69 212.725C1258.52 215.923 1280.11 172.57 1291.71 149.289C1296.07 140.542 1298.97 134.774 1303 135.383L1302.89 136.326C1299.42 135.812 1296.66 141.351 1292.47 149.755C1281.18 172.389 1260.51 213.849 1188.7 213.849C1186.09 213.849 1183.41 213.791 1180.65 213.677C1096.62 210.241 1078.42 247.865 1048.23 310.207C1039.86 327.463 1030 346.175 1018.12 367.39C1003.78 392.984 986.962 407.118 965.162 411.886C945.757 416.131 924.858 412.419 902.732 408.489C869.577 402.597 835.298 396.515 799.784 415.008C755.265 438.194 741.241 485.402 737.319 520.923C733.062 559.47 739.439 592.964 739.508 593.297L738.667 593.497V593.487Z" fill="white"/>
<path d="M779.617 606.809C779.531 606.484 770.791 573.889 772.142 535.737C772.933 513.31 777.002 493.375 784.236 476.495C793.286 455.366 807.342 438.973 826 427.784C859.849 407.486 894.842 413.949 928.675 420.203C971.677 428.146 1012.3 435.66 1044.05 385.402C1057.78 363.701 1067.49 346.63 1075.55 330.065C1078.86 323.229 1081.96 316.555 1084.96 310.111C1108.93 258.535 1126.26 221.271 1193.53 223.906C1258.3 226.455 1279.94 189.144 1294.27 164.464C1301.05 152.787 1305.95 144.337 1313 145.416L1312.89 146.361C1306.38 145.388 1301.6 153.598 1295 164.979C1287.84 177.295 1278.94 192.629 1263.46 204.916C1245.13 219.457 1222.23 225.978 1193.5 224.861C1126.76 222.255 1109.55 259.289 1085.72 310.55C1082.72 317.004 1079.62 323.678 1076.3 330.523C1068.23 347.117 1058.5 364.216 1044.76 385.956C1012.68 436.701 971.806 429.149 928.528 421.148C894.834 414.923 859.995 408.479 826.404 428.624C784.503 453.753 774.232 500.765 772.993 535.775C771.651 573.765 780.348 606.207 780.434 606.532L779.608 606.809H779.617Z" fill="white"/>
<path d="M821.928 617.902C821.816 617.588 810.778 586.222 809.19 548.834C808.263 526.857 810.727 507.119 816.529 490.173C823.782 468.968 836.304 452.118 853.737 440.071C885.366 418.218 920.874 425.051 955.216 431.665C998.149 439.928 1038.7 447.743 1070.92 402.788C1085.58 382.335 1095.68 365.904 1103.67 349.531C1108.91 338.752 1113.35 328.43 1117.66 318.452C1127.26 296.198 1135.55 276.984 1148.37 262.336C1162.4 246.315 1180.66 237.547 1205.84 234.745C1257.89 228.941 1278.95 199.196 1294.32 177.466C1304.04 163.742 1311.06 153.83 1322 155.489L1321.89 156.432C1311.43 154.85 1304.53 164.581 1295 178.057C1279.53 199.911 1258.34 229.846 1205.93 235.688C1151.71 241.731 1137.75 274.087 1118.43 318.862C1114.12 328.85 1109.67 339.181 1104.43 349.979C1096.42 366.41 1086.29 382.878 1071.59 403.379C1056.98 423.765 1039.12 435.115 1017 438.079C997.247 440.719 975.807 436.593 955.078 432.599C920.9 426.014 885.555 419.209 854.2 440.872C815.095 467.891 808.615 514.457 810.066 548.758C811.636 585.994 822.631 617.235 822.743 617.549L821.945 617.902H821.928Z" fill="white"/>
<path d="M862.456 630.105C862.319 629.8 848.994 599.638 844.492 562.944C841.848 541.374 842.721 521.788 847.086 504.748C852.554 483.416 863.534 466.023 879.726 453.045C908.969 429.625 945.076 436.901 980.001 443.938C1020.97 452.187 1063.32 460.721 1095.88 420.766C1111.32 401.819 1121.8 385.989 1129.85 369.454C1137.1 354.502 1142.4 339.97 1147.53 325.914C1161.89 286.493 1173.24 255.359 1216.24 245.795C1256.98 236.726 1276.21 211.666 1291.67 191.536C1303.82 175.707 1313.42 163.215 1329 165.58L1328.89 166.524C1313.78 164.226 1304.3 176.546 1292.33 192.147C1276.79 212.391 1257.45 237.594 1216.41 246.72C1173.87 256.189 1162.6 287.113 1148.32 326.267C1143.19 340.342 1137.88 354.893 1130.62 369.903C1122.52 386.504 1112.01 402.391 1096.52 421.396C1063.64 461.741 1021.05 453.159 979.856 444.863C945.11 437.864 909.175 430.626 880.231 453.808C843.919 482.892 841.215 529.121 845.34 562.782C849.824 599.323 863.089 629.37 863.226 629.666L862.456 630.095V630.105Z" fill="white"/>
<path d="M903.213 642.308C903.059 642.021 887.376 613.124 879.925 577.157C875.547 556.016 874.826 536.591 877.788 519.438C881.496 497.963 890.998 479.998 906.046 466.051C932.939 441.122 968.339 448.544 1005.82 456.396C1046.94 465.011 1089.47 473.921 1122.46 438.775C1138.7 421.469 1149.62 406.252 1157.87 389.423C1166.75 371.201 1171.93 352.769 1176.94 334.938C1186.83 299.735 1195.37 269.339 1228.96 256.889C1259.4 245.612 1276.01 224.748 1290.66 206.335C1305.71 187.417 1317.61 172.477 1339 175.72L1338.89 176.665C1317.94 173.488 1306.18 188.256 1291.3 206.965C1277.31 224.547 1259.89 246.433 1229.23 257.795C1196.05 270.083 1187.57 300.269 1177.74 335.224C1172.72 353.093 1167.53 371.573 1158.61 389.881C1150.33 406.796 1139.36 422.089 1123.05 439.462C1089.73 474.952 1046.98 465.993 1005.64 457.331C968.374 449.517 933.163 442.143 906.587 466.785C872.861 498.049 873.925 543.938 880.749 576.918C888.157 612.742 903.78 641.525 903.934 641.811L903.205 642.308H903.213Z" fill="white"/>
<path d="M943.886 653.401C943.705 653.124 925.71 625.56 915.337 590.351C909.235 569.65 906.923 550.399 908.461 533.124C910.387 511.496 918.379 492.942 932.224 477.957C956.605 451.577 992.957 459.518 1031.44 467.926C1072.63 476.927 1115.22 486.232 1148.5 455.681C1165.48 440.095 1176.83 425.473 1185.27 408.293C1195.35 387.649 1199.48 365.516 1203.46 344.098C1209.41 312.115 1215.03 281.898 1240.88 266.904C1261.75 254.792 1275.45 237.107 1287.53 221.511C1304.61 199.464 1319.36 180.423 1348 184.775L1347.89 185.72C1319.71 181.444 1305.11 200.304 1288.19 222.141C1276.06 237.803 1262.3 255.565 1241.28 267.763C1215.8 282.547 1210.47 311.161 1204.31 344.299C1200.31 365.774 1196.18 387.993 1186.03 408.752C1177.53 426.055 1166.13 440.754 1149.05 456.425C1115.46 487.263 1072.67 477.91 1031.28 468.871C993.018 460.51 956.871 452.617 932.825 478.645C901.81 512.212 906.64 557.748 916.153 590.036C926.483 625.102 944.41 652.561 944.591 652.838L943.894 653.401H943.886Z" fill="white"/>
<path d="M984.309 664.494C984.103 664.237 963.867 638.121 950.597 603.795C942.798 583.613 938.899 564.583 939.002 547.22C939.131 525.486 945.573 506.341 958.147 490.312C979.886 462.596 1017.27 471.111 1056.84 480.121C1097.98 489.493 1140.51 499.17 1173.91 473.082C1191.35 459.472 1203.44 445.071 1211.98 427.765C1222.9 405.516 1225.15 379.924 1227.32 355.17C1230.02 324.406 1232.58 295.338 1251.98 277.917C1264.44 266.717 1273.82 253.24 1282.88 240.201C1301.88 212.875 1318.29 189.274 1356 194.998L1355.89 195.941C1318.66 190.312 1302.4 213.694 1283.57 240.782C1274.47 253.859 1265.07 267.393 1252.52 278.66C1233.4 295.833 1230.86 324.701 1228.18 355.265C1226 380.114 1223.74 405.802 1212.73 428.222C1204.13 445.661 1191.95 460.158 1174.41 473.863C1140.7 500.189 1097.99 490.464 1056.67 481.054C1017.35 472.101 980.204 463.643 958.8 490.931C930.628 526.838 939.225 571.917 951.396 603.414C964.606 637.607 984.764 663.609 984.962 663.866L984.309 664.485V664.494Z" fill="white"/>
<path d="M1026.28 676.688C1026.06 676.44 1003.69 651.773 987.594 618.275C978.134 598.582 972.659 579.718 971.322 562.226C969.651 540.322 974.492 520.515 985.717 503.356C1004.74 474.269 1043.22 483.454 1083.96 493.181C1122.98 502.489 1167.2 513.046 1200.59 491.133C1218.65 479.281 1231.14 465.504 1239.89 447.774C1251.33 424.451 1251.12 395.507 1250.92 367.515C1250.71 337.466 1250.5 309.084 1264.26 289.153C1270.09 280.692 1275.25 271.365 1280.25 262.343C1298.62 229.14 1315.98 197.776 1365 205.226L1364.89 206.169C1316.4 198.805 1299.2 229.912 1280.97 262.848C1275.97 271.889 1270.79 281.245 1264.93 289.743C1251.36 309.408 1251.57 337.637 1251.78 367.515C1251.99 395.63 1252.19 424.698 1240.64 448.24C1231.82 466.123 1219.24 480.014 1201.03 491.962C1167.35 514.065 1122.96 503.471 1083.78 494.124C1043.32 484.473 1005.1 475.346 986.403 503.928C961.253 542.371 973.575 587.073 988.331 617.818C1004.36 651.192 1026.65 675.773 1026.87 676.021L1026.27 676.697L1026.28 676.688Z" fill="white"/>
<path d="M1066.03 687.79C1065.78 687.562 1041.28 664.439 1022.35 631.856C1011.23 612.697 1004.17 594.071 1001.37 576.482C997.869 554.452 1001.09 534.02 1010.93 515.727C1027.28 485.339 1065.33 494.809 1109.37 505.781C1148.23 515.46 1192.28 526.432 1225.67 508.52C1244.42 498.46 1257.34 485.339 1266.33 467.217C1278.19 443.191 1275.13 410.817 1272.17 379.507C1269.51 351.412 1266.77 322.346 1275.18 300.221C1276.65 296.361 1278.11 292.339 1279.52 288.46C1286.76 268.532 1294.25 247.928 1307.89 233.457C1323.33 217.056 1344.63 211.161 1373 215.459L1372.89 216.4C1310.11 206.892 1294.97 248.537 1280.33 288.812C1278.91 292.701 1277.46 296.732 1275.98 300.592C1267.64 322.498 1270.38 351.431 1273.03 379.403C1276.01 410.855 1279.09 443.372 1267.09 467.664C1258.02 485.967 1244.98 499.211 1226.06 509.366C1192.4 527.421 1148.19 516.411 1109.19 506.704C1065.46 495.817 1027.71 486.414 1011.67 516.211C989.616 557.19 1005.7 601.44 1023.08 631.342C1041.95 663.802 1066.35 686.84 1066.6 687.068L1066.04 687.79H1066.03Z" fill="white"/>
<path d="M1106.45 699.993C1106.18 699.773 1079.61 678.058 1057.84 646.187C1045.05 627.452 1036.4 608.918 1032.12 591.11C1026.77 568.803 1028.3 547.584 1036.67 528.018C1050.36 496.052 1089.96 506.417 1135.8 518.436C1174.45 528.563 1218.25 540.037 1251.62 525.792C1270.8 517.595 1284.56 504.669 1293.7 486.269C1305.99 461.401 1299.61 424.619 1293.42 389.051C1288.67 361.651 1283.74 333.315 1287.01 309.756C1290.13 287.391 1294.58 262.083 1308.1 244.676C1323.22 225.216 1347.39 218.318 1382 223.563L1381.89 224.509C1347.59 219.302 1323.67 226.104 1308.75 245.297C1295.38 262.513 1290.95 287.668 1287.87 309.899C1284.61 333.305 1289.52 361.556 1294.27 388.869C1300.48 424.6 1306.89 461.554 1294.45 486.727C1285.22 505.338 1271.31 518.407 1251.93 526.681C1218.32 541.03 1174.38 529.518 1135.62 519.363C1090.13 507.44 1050.84 497.15 1037.46 528.429C1018.69 572.261 1038.56 616.342 1058.52 645.595C1080.21 677.361 1106.7 699.009 1106.95 699.219L1106.45 699.993Z" fill="white"/>
<path d="M1148.8 712.196C1148.52 711.996 1120.18 691.838 1095.81 660.9C1081.48 642.715 1071.31 624.416 1065.57 606.507C1058.37 584.09 1058.15 562.236 1064.91 541.544C1075.82 508.091 1116.86 519.442 1164.38 532.595C1202.39 543.107 1245.48 555.031 1278.47 544.327C1298.19 537.932 1312.32 525.675 1321.65 506.871C1334.34 481.242 1324.36 440.869 1313.79 398.132C1307.39 372.255 1300.78 345.502 1299.55 322.056C1298.29 297.981 1299.1 268.006 1316.76 249.821C1331.59 234.552 1355.87 229.72 1391 235.057L1390.89 236.001C1356.02 230.702 1331.97 235.448 1317.35 250.517C1303.78 264.499 1298.55 286.534 1300.41 321.999C1301.64 345.35 1308.24 372.055 1314.62 397.884C1325.24 440.812 1335.27 481.356 1322.41 507.328C1312.96 526.371 1298.66 538.771 1278.71 545.242C1245.49 556.012 1202.3 544.06 1164.18 533.519C1117.06 520.481 1076.36 509.225 1065.71 541.868C1050.57 588.255 1074.08 631.86 1096.45 660.262C1120.74 691.094 1148.97 711.176 1149.25 711.376L1148.79 712.177L1148.8 712.196Z" fill="white"/>
<path d="M1187.65 723.289C1187.34 723.108 1157.04 704.42 1129.86 674.335C1113.88 656.647 1102.08 638.541 1094.8 620.51C1085.68 597.934 1083.63 575.425 1088.73 553.601C1090.62 545.53 1094.36 539.774 1100.15 536.009C1117.9 524.488 1151.32 534.208 1190.01 545.453C1250.62 563.074 1319.32 583.049 1347.91 525.889C1361.19 499.329 1346.04 452.071 1330.01 402.039C1312.48 347.357 1294.35 290.817 1315.68 261.799C1329.03 243.635 1356.29 237.946 1399 244.407L1398.89 245.35C1356.5 238.946 1329.5 244.521 1316.36 262.399C1295.33 290.998 1313.38 347.291 1330.83 401.725C1346.93 451.966 1362.15 499.424 1348.67 526.356C1335.77 552.153 1313.57 564.618 1280.83 564.599C1252.27 564.542 1220.51 555.307 1189.8 546.378C1151.29 535.18 1118.03 525.517 1100.6 536.829C1095.01 540.46 1091.41 546.016 1089.59 553.83C1078.15 602.785 1105.5 646.002 1130.47 673.639C1157.57 703.639 1187.78 722.27 1188.08 722.451L1187.67 723.289H1187.65Z" fill="white"/>
</g>
</svg>
