<svg width="100" height="100" viewBox="0 0 100 100" fill="none" xmlns="http://www.w3.org/2000/svg">
<g opacity="0.5">
<rect width="100" height="100" fill="white" fill-opacity="0.01"/>
<path fill-rule="evenodd" clip-rule="evenodd" d="M60.4167 54.2042H39.5834C33.8334 54.2042 29.1667 58.8709 29.1667 64.6334V81.2084C35.327 85.3434 42.5806 87.547 50 87.5375C57.4195 87.5473 64.6732 85.3436 70.8334 81.2084V64.6334C70.8345 61.8692 69.7378 59.2178 67.7844 57.262C65.831 55.3063 63.1809 54.2064 60.4167 54.2042Z" fill="#4CC1FF"/>
<path d="M50 50C56.9036 50 62.5 44.4036 62.5 37.5C62.5 30.5965 56.9036 25 50 25C43.0965 25 37.5 30.5965 37.5 37.5C37.5 44.4036 43.0965 50 50 50Z" fill="#4CC1FF"/>
<path d="M50 83.3334C58.8406 83.3334 67.3191 79.8215 73.5703 73.5703C79.8215 67.3191 83.3334 58.8406 83.3334 50C83.3334 41.1595 79.8215 32.681 73.5703 26.4298C67.3191 20.1786 58.8406 16.6667 50 16.6667C41.1595 16.6667 32.681 20.1786 26.4298 26.4298C20.1786 32.681 16.6667 41.1595 16.6667 50C16.6667 58.8406 20.1786 67.3191 26.4298 73.5703C32.681 79.8215 41.1595 83.3334 50 83.3334ZM50 91.6667C26.9875 91.6667 8.33337 73.0125 8.33337 50C8.33337 26.9875 26.9875 8.33337 50 8.33337C73.0125 8.33337 91.6667 26.9875 91.6667 50C91.6667 73.0125 73.0125 91.6667 50 91.6667Z" fill="#4CC1FF"/>
</g>
</svg>
