<svg width="100" height="100" viewBox="0 0 100 100" fill="none" xmlns="http://www.w3.org/2000/svg">
<g opacity="0.5">
<rect width="100" height="100" fill="white" fill-opacity="0.01"/>
<path d="M79.1667 20.8333H79.1917C83.7792 20.8333 87.5 24.5625 87.5 29.1417V79.1917C87.4989 81.3948 86.6232 83.5074 85.0653 85.0653C83.5074 86.6232 81.3948 87.4989 79.1917 87.5H29.1417C26.9385 87.4989 24.8259 86.6232 23.268 85.0653C21.7101 83.5074 20.8344 81.3948 20.8333 79.1917V79.1667H75C77.3125 79.1667 79.1667 77.3 79.1667 75V20.8333ZM12.5 20.8583C12.5 16.2417 16.2375 12.5 20.8583 12.5H62.475C67.0917 12.5 70.8333 16.2375 70.8333 20.8583V62.475C70.8339 63.5728 70.6181 64.6599 70.1982 65.6742C69.7784 66.6886 69.1627 67.6102 68.3865 68.3865C67.6102 69.1627 66.6886 69.7784 65.6742 70.1982C64.6599 70.6181 63.5728 70.8339 62.475 70.8333H20.8583C19.7605 70.8339 18.6734 70.6181 17.6591 70.1982C16.6448 69.7784 15.7231 69.1627 14.9469 68.3865C14.1706 67.6102 13.555 66.6886 13.1351 65.6742C12.7153 64.6599 12.4995 63.5728 12.5 62.475V20.8583ZM20.8333 20.8333V62.5H62.5V20.8333H20.8333ZM25 33.3333C25 31.0333 26.8875 29.1667 29.1542 29.1667H54.1792C56.4708 29.1667 58.3333 31.0167 58.3333 33.3333C58.3333 35.6333 56.4458 37.5 54.1792 37.5H29.1542C28.6074 37.5006 28.066 37.3931 27.5609 37.1837C27.0558 36.9744 26.5971 36.6673 26.2111 36.2801C25.825 35.8929 25.5193 35.4332 25.3115 34.9275C25.1037 34.4219 24.9978 33.8801 25 33.3333ZM25 45.8333C25 43.5333 26.8875 41.6667 29.1542 41.6667H54.1792C56.4708 41.6667 58.3333 43.5167 58.3333 45.8333C58.3333 48.1333 56.4458 50 54.1792 50H29.1542C28.6074 50.0006 28.066 49.8931 27.5609 49.6837C27.0558 49.4744 26.5971 49.1673 26.2111 48.7801C25.825 48.3929 25.5193 47.9333 25.3115 47.4276C25.1037 46.9219 24.9978 46.3801 25 45.8333Z" fill="#4CC1FF"/>
</g>
</svg>
