<svg width="55" height="185" viewBox="0 0 55 185" fill="none" xmlns="http://www.w3.org/2000/svg">
<path d="M0.166667 6C0.166667 8.94552 2.55448 11.3333 5.5 11.3333C8.44552 11.3333 10.8333 8.94552 10.8333 6C10.8333 3.05448 8.44552 0.666667 5.5 0.666667C2.55448 0.666667 0.166667 3.05448 0.166667 6ZM4.79289 176.793C4.40237 177.183 4.40237 177.817 4.79289 178.207L11.1569 184.571C11.5474 184.962 12.1805 184.962 12.5711 184.571C12.9616 184.181 12.9616 183.547 12.5711 183.157L6.91421 177.5L12.5711 171.843C12.9616 171.453 12.9616 170.819 12.5711 170.429C12.1805 170.038 11.5474 170.038 11.1569 170.429L4.79289 176.793ZM5.5 7H10.5V5H5.5V7ZM20.5 7H30.5V5H20.5V7ZM40.5 7H45.5V5H40.5V7ZM45.5 7C46.451 7 47.3553 7.18909 48.1792 7.53077L48.9454 5.68332C47.8828 5.24269 46.7185 5 45.5 5V7ZM51.9692 11.3208C52.3109 12.1447 52.5 13.049 52.5 14H54.5C54.5 12.7815 54.2573 11.6172 53.8167 10.5546L51.9692 11.3208ZM52.5 14V20.4792H54.5V14H52.5ZM52.5 33.4375V46.3958H54.5V33.4375H52.5ZM52.5 59.3542V72.3125H54.5V59.3542H52.5ZM52.5 85.2708V98.2292H54.5V85.2708H52.5ZM52.5 111.188V124.146H54.5V111.188H52.5ZM52.5 137.104V150.062H54.5V137.104H52.5ZM52.5 163.021V169.5H54.5V163.021H52.5ZM52.5 169.5C52.5 170.451 52.3109 171.355 51.9692 172.179L53.8167 172.945C54.2573 171.883 54.5 170.718 54.5 169.5H52.5ZM48.1792 175.969C47.3553 176.311 46.451 176.5 45.5 176.5V178.5C46.7185 178.5 47.8828 178.257 48.9454 177.817L48.1792 175.969ZM45.5 176.5H40.5V178.5H45.5V176.5ZM30.5 176.5H20.5V178.5H30.5V176.5ZM10.5 176.5H5.5V178.5H10.5V176.5Z" fill="#4CC1FF"/>
</svg>
