<svg width="55" height="185" viewBox="0 0 55 185" fill="none" xmlns="http://www.w3.org/2000/svg">
<path d="M0.666667 6C0.666667 8.94552 3.05448 11.3333 6 11.3333C8.94552 11.3333 11.3333 8.94552 11.3333 6C11.3333 3.05448 8.94552 0.666667 6 0.666667C3.05448 0.666667 0.666667 3.05448 0.666667 6ZM5.29289 176.793C4.90237 177.183 4.90237 177.817 5.29289 178.207L11.6569 184.571C12.0474 184.962 12.6805 184.962 13.0711 184.571C13.4616 184.181 13.4616 183.547 13.0711 183.157L7.41421 177.5L13.0711 171.843C13.4616 171.453 13.4616 170.819 13.0711 170.429C12.6805 170.038 12.0474 170.038 11.6569 170.429L5.29289 176.793ZM6 7H11V5H6V7ZM21 7H31V5H21V7ZM41 7H46V5H41V7ZM46 7C46.951 7 47.8553 7.18909 48.6792 7.53077L49.4454 5.68332C48.3828 5.24269 47.2185 5 46 5V7ZM52.4692 11.3208C52.8109 12.1447 53 13.049 53 14H55C55 12.7815 54.7573 11.6172 54.3167 10.5546L52.4692 11.3208ZM53 14V20.4792H55V14H53ZM53 33.4375V46.3958H55V33.4375H53ZM53 59.3542V72.3125H55V59.3542H53ZM53 85.2708V98.2292H55V85.2708H53ZM53 111.188V124.146H55V111.188H53ZM53 137.104V150.062H55V137.104H53ZM53 163.021V169.5H55V163.021H53ZM53 169.5C53 170.451 52.8109 171.355 52.4692 172.179L54.3167 172.945C54.7573 171.883 55 170.718 55 169.5H53ZM48.6792 175.969C47.8553 176.311 46.951 176.5 46 176.5V178.5C47.2185 178.5 48.3828 178.257 49.4454 177.817L48.6792 175.969ZM46 176.5H41V178.5H46V176.5ZM31 176.5H21V178.5H31V176.5ZM11 176.5H6V178.5H11V176.5Z" fill="#4CC1FF"/>
</svg>
