<svg width="24" height="24" viewBox="0 0 24 24" fill="none" xmlns="http://www.w3.org/2000/svg">
<path d="M11.77 0.84668C5.38172 0.84668 0.203125 6.02528 0.203125 12.4136C0.203125 18.8019 5.38172 23.9805 11.77 23.9805C18.1583 23.9805 23.3369 18.8019 23.3369 12.4136C23.3369 6.02528 18.1583 0.84668 11.77 0.84668ZM8.93855 17.2078H6.59625V9.67006H8.93855V17.2078ZM7.75294 8.7447C7.01314 8.7447 6.5348 8.22058 6.5348 7.57235C6.5348 6.91087 7.0276 6.40241 7.78306 6.40241C8.53852 6.40241 9.0012 6.91087 9.01566 7.57235C9.01566 8.22058 8.53852 8.7447 7.75294 8.7447ZM17.4932 17.2078H15.1509V13.0305C15.1509 12.0581 14.8112 11.3979 13.9641 11.3979C13.3171 11.3979 12.9327 11.8449 12.7629 12.275C12.7002 12.428 12.6845 12.6449 12.6845 12.8606V17.2066H10.341V12.0738C10.341 11.1328 10.3109 10.346 10.2796 9.66885H12.3146L12.4219 10.7159H12.4689C12.7773 10.2243 13.5328 9.49896 14.7967 9.49896C16.3377 9.49896 17.4932 10.5316 17.4932 12.7509V17.2078Z" fill="#263238"/>
</svg>
