<svg width="55" height="185" viewBox="0 0 55 185" fill="none" xmlns="http://www.w3.org/2000/svg">
<path d="M54.3333 6C54.3333 8.94552 51.9455 11.3333 49 11.3333C46.0545 11.3333 43.6667 8.94552 43.6667 6C43.6667 3.05448 46.0545 0.666667 49 0.666667C51.9455 0.666667 54.3333 3.05448 54.3333 6ZM49.7071 176.793C50.0976 177.183 50.0976 177.817 49.7071 178.207L43.3431 184.571C42.9526 184.962 42.3195 184.962 41.9289 184.571C41.5384 184.181 41.5384 183.547 41.9289 183.157L47.5858 177.5L41.9289 171.843C41.5384 171.453 41.5384 170.819 41.9289 170.429C42.3195 170.038 42.9526 170.038 43.3431 170.429L49.7071 176.793ZM49 7H44V5H49V7ZM34 7H24V5H34V7ZM14 7H9V5H14V7ZM9 7C8.04902 7 7.14472 7.18909 6.32075 7.53077L5.55465 5.68332C6.6172 5.24269 7.78152 5 9 5V7ZM2.53077 11.3208C2.18908 12.1447 2 13.049 2 14H0C0 12.7815 0.242695 11.6172 0.683319 10.5546L2.53077 11.3208ZM2 14V20.4792H0V14H2ZM2 33.4375V46.3958H0V33.4375H2ZM2 59.3542V72.3125H0V59.3542H2ZM2 85.2708V98.2292H0V85.2708H2ZM2 111.188V124.146H0V111.188H2ZM2 137.104V150.062H0V137.104H2ZM2 163.021V169.5H0V163.021H2ZM2 169.5C2 170.451 2.18908 171.355 2.53077 172.179L0.683319 172.945C0.242695 171.883 0 170.718 0 169.5H2ZM6.32075 175.969C7.14472 176.311 8.04902 176.5 9 176.5V178.5C7.78152 178.5 6.6172 178.257 5.55465 177.817L6.32075 175.969ZM9 176.5H14V178.5H9V176.5ZM24 176.5H34V178.5H24V176.5ZM44 176.5H49V178.5H44V176.5Z" fill="#4CC1FF"/>
</svg>
